SplineFontDB: 1.0
FontName: Norasi-Oblique
FullName: Norasi Oblique
FamilyName: Norasi
Weight: Book
Copyright: Copyright © 1999, The National Font Project (v.beta ). Yannis Haralambous, Virach Sornlertlamvanich and Anutara Tantraporn. All rights reserved.\n\nModified by TLWG
Version: 1.1 : May 12, 2003
ItalicAngle: -12
UnderlinePosition: -100
UnderlineWidth: 50
Ascent: 800
Descent: 200
NeedsXUIDChange: 1
FSType: 0
PfmFamily: 17
TTFWeight: 400
TTFWidth: 5
Panose: 2 0 5 6 0 0 0 2 0 4
LineGap: 20
VLineGap: 0
ScriptLang: 2
 1 DFLT 1 dflt 
 1 thai 1 dflt 
LangName: 1033 "" "" "" "TheOmegaProject(v.beta1).YannisHaralambous,VirachSornlertlamvanichandAnutaraTantraporn: Omega3: 1999" "" "" "" "Norasi Italic is a trademark of the The National Font Project (v.beta ). Yannis Haralambous, Virach Sornlertlamvanich and Anutara Tantraporn." "" "Yannis Haralambous, Virach Sornlertlamvanich and Anutara Tantraporn" "This font was developed under National Font Project at NECTEC as to be a free licensed font for Thai users and developers." 
Encoding: custom
UnicodeInterp: none
DisplaySize: -72
AntiAlias: 1
FitToEm: 1
WinInfo: 208 8 2
BeginPrivate: 4
BlueValues 39 [-10 0 307 314 376 385 452 461 516 517]
OtherBlues 11 [-163 -151]
ForceBold 5 false
BlueScale 8 0.039625
EndPrivate
BeginChars: 278 245
StartChar: .notdef
Encoding: 0 0 0
Width: 250
Flags: W
HStem: 0 21G<0 250> 432 20G<96 346>
DStem: 96 452 346 452 0 0 250 0
Fore
250 0 m 1
 0 0 l 1
 96 452 l 5
 346 452 l 1
 250 0 l 1
EndSplineSet
EndChar
StartChar: exclam
Encoding: 33 33 2
Width: 227
Flags: W
HStem: -6 72<124 139> -6 72<124 139> 462 21G<208 232.215>
Fore
155 120 m 1
 146 120 l 1
 155 194 l 1
 161 242 168 373 175 404 c 0
 181 431 194 462 222 462 c 0
 242.43 462 250.584 449.363 250.584 429.512 c 0
 250.584 416.327 246.987 399.96 241 382 c 1
 155 120 l 1
169.721 35.854 m 0
 169.721 8.96502 142.026 -6 124 -6 c 0
 111.5 -6 94.2157 1.17522 94.2157 21.2205 c 0
 94.2157 46.7791 118.601 66 139 66 c 0
 157.447 66 169.721 52.1101 169.721 35.854 c 0
EndSplineSet
Back
250.977 405.762 m 1
 245.117 380.859 l 1
 159.18 120.117 l 1
 149.902 120.117 l 1
 153.809 155.762 157.715 187.988 160.645 215.332 c 0
 163.574 243.164 166.016 268.066 167.969 290.039 c 0
 169.922 312.012 171.875 332.031 173.34 350.586 c 0
 175.293 368.652 176.758 386.719 179.199 403.809 c 1
 187.012 441.895 202.637 460.938 226.074 460.938 c 0
 250.488 460.938 259.277 443.848 251.953 410.156 c 2
 250.977 405.762 l 1
172.852 27.832 m 0
 170.898 18.5547 165.527 11.2305 156.738 4.88281 c 0
 147.461 -0.976562 138.184 -3.90625 127.93 -3.90625 c 0
 103.516 -3.90625 93.75 6.83594 99.1211 27.832 c 0
 103.516 49.8047 118.164 62.5 143.066 64.9414 c 1
 166.992 64.9414 176.758 52.7344 172.852 27.832 c 0
EndSplineSet
EndChar
StartChar: quotedbl
Encoding: 34 34 3
Width: 278
Flags: W
HStem: 462 21G<173 185.73 288.5 300.73>
Fore
266 294 m 1
 252 294 l 1
 254 332 256 414 260 434 c 0
 264 452 282 462 295 462 c 0
 306.459 462 318.695 454.23 318.695 440.06 c 0
 318.695 438.155 318.474 436.133 318 434 c 0
 314 414 282 332 266 294 c 1
151 294 m 1
 136 294 l 1
 139 332 141 414 145 434 c 0
 149 452 166 462 180 462 c 0
 191.459 462 203.695 454.23 203.695 440.06 c 0
 203.695 438.155 203.474 436.133 203 434 c 0
 199 414 167 332 151 294 c 1
EndSplineSet
Back
335.938 432.129 m 0
 335.449 426.758 327.148 404.297 312.012 365.234 c 0
 304.688 345.703 298.34 329.59 293.457 317.383 c 0
 288.574 305.176 285.156 295.898 283.203 290.039 c 1
 269.043 290.039 l 1
 270.508 319.336 271.484 342.773 271.973 360.352 c 0
 272.461 377.93 272.949 392.09 273.438 401.855 c 0
 273.926 412.109 273.926 418.945 274.414 422.852 c 0
 274.902 426.758 275.391 430.176 275.879 432.129 c 0
 279.785 451.172 291.992 460.938 312.012 460.938 c 0
 330.566 460.938 338.867 451.172 335.938 432.129 c 0
217.773 432.129 m 0
 217.285 426.758 209.473 404.297 193.848 365.234 c 0
 186.523 345.703 180.664 329.59 175.293 317.383 c 0
 170.41 305.176 166.992 295.898 165.039 290.039 c 1
 150.879 290.039 l 1
 152.344 319.336 153.32 342.773 153.809 360.352 c 0
 154.785 377.93 155.273 392.09 155.273 401.855 c 0
 155.762 412.109 156.25 418.945 156.738 422.852 c 0
 156.738 426.758 157.227 430.176 158.203 432.129 c 0
 162.109 451.172 173.828 460.938 193.848 460.938 c 0
 212.891 460.938 220.703 451.172 217.773 432.129 c 0
EndSplineSet
EndChar
StartChar: numbersign
Encoding: 35 35 4
Width: 341
Flags: W
HStem: 0 21G<54 94 186 226> 147 38<41 107 161 239 292 353> 147 167<89 239 209 353> 277 37<88 156 209 286 339 398> 432 20G<220 259 349 389>
DStem: 107 147 147 147 54 0 94 0 156 277 196 277 122 185 161 185 220 452 259 452 169 314 209 314 239 147 278 147 186 0 226 0 286 277 326 277 253 185 292 185 349 452 389 452 300 314 339 314
Fore
361 185 m 1
 353 147 l 1
 278 147 l 1
 226 0 l 1
 186 0 l 1
 239 147 l 1
 147 147 l 1
 94 0 l 1
 54 0 l 1
 107 147 l 1
 34 147 l 1
 42 185 l 1
 122 185 l 1
 156 277 l 1
 81 277 l 1
 89 314 l 1
 169 314 l 1
 220 452 l 1
 259 452 l 1
 209 314 l 1
 300 314 l 1
 349 452 l 1
 389 452 l 1
 339 314 l 1
 406 314 l 1
 398 277 l 1
 326 277 l 1
 292 185 l 1
 361 185 l 1
286 277 m 1
 196 277 l 1
 161 185 l 1
 253 185 l 1
 286 277 l 1
EndSplineSet
Back
410.156 276.855 m 1
 338.867 276.855 l 1
 306.152 186.035 l 1
 374.023 186.035 l 1
 365.234 147.949 l 1
 290.039 147.949 l 1
 238.77 0 l 1
 199.219 0 l 1
 250.977 147.949 l 1
 159.18 147.949 l 1
 105.957 0 l 1
 65.918 0 l 1
 119.141 147.949 l 1
 45.8984 147.949 l 1
 55.1758 186.035 l 1
 134.766 186.035 l 1
 167.969 276.855 l 1
 92.7734 276.855 l 1
 101.074 314.941 l 1
 182.129 314.941 l 1
 231.934 452.148 l 1
 270.996 452.148 l 1
 222.168 314.941 l 1
 312.988 314.941 l 1
 361.816 452.148 l 1
 400.879 452.148 l 1
 352.051 314.941 l 1
 417.969 314.941 l 1
 410.156 276.855 l 1
298.828 276.855 m 1
 208.008 276.855 l 1
 173.828 186.035 l 1
 266.113 186.035 l 1
 298.828 276.855 l 1
EndSplineSet
EndChar
StartChar: dollar
Encoding: 36 36 5
Width: 341
Flags: W
HStem: -59 78<144 162> 0 19<143 161> 341 21G<352 362>
VStem: 107.656 54.1282<327 350.874> 281.945 58.6<121.045 148.921>
DStem: 157 0 180 0 144 -59 167 -59 202 212 223 200 161 19 184 19 248 435 272 435 215 278 237 267 262 496 285 496 253 453 276 453
Fore
107.656 327.294 m 0
 107.656 394.745 167.708 448.154 253 453 c 1
 262 496 l 1
 285 496 l 1
 276 453 l 1
 307 449 354 444 379 417 c 1
 362 341 l 1
 352 341 l 1
 352.09 343.278 352.134 345.501 352.134 347.669 c 0
 352.134 417.83 305.951 431.12 272 435 c 1
 237 267 l 1
 302.536 223.593 340.545 200.469 340.545 148.921 c 0
 340.545 139.904 339.382 130.017 337 119 c 0
 321 40 254 10 180 0 c 1
 167 -59 l 1
 144 -59 l 1
 157 0 l 1
 89 0 53 23 37 35 c 1
 56 124 l 1
 66 124 l 1
 67 55 97 19 161 19 c 1
 202 212 l 1
 153.257 242.132 107.656 273.835 107.656 327.294 c 0
215 278 m 1
 248 435 l 1
 176.095 423.368 161.784 374.378 161.784 350.874 c 0
 161.784 321.768 184.107 301.832 215 278 c 1
223 200 m 1
 184 19 l 1
 208 23 265 33 280 103 c 0
 281.322 109.478 281.945 115.467 281.945 121.045 c 0
 281.945 157.658 255.108 176.57 223 200 c 1
EndSplineSet
Back
357.91 122.07 m 0
 342.773 53.2227 289.062 12.6953 196.777 0 c 1
 184.082 -59.082 l 1
 160.156 -59.082 l 1
 172.852 0 l 1
 125.488 0 84.9609 12.207 50.7812 36.1328 c 1
 69.8242 126.953 l 1
 80.0781 126.953 l 1
 81.543 55.6641 113.77 20.0195 176.758 20.0195 c 1
 219.238 216.797 l 1
 201.66 228.516 187.012 238.77 174.316 248.535 c 0
 162.109 258.301 152.344 267.09 145.02 274.902 c 0
 125 300.293 118.164 328.125 124.023 357.91 c 0
 130.859 390.625 149.414 416.992 180.176 437.012 c 0
 206.543 455.566 237.305 464.844 271.973 464.844 c 1
 280.762 508.789 l 1
 305.176 508.789 l 1
 295.898 464.844 l 1
 351.074 455.078 l 2
 371.582 451.172 388.184 441.895 399.902 428.223 c 1
 382.812 350.098 l 1
 373.047 350.098 l 1
 375 408.203 348.145 439.941 291.992 445.801 c 1
 254.883 273.926 l 1
 312.012 233.887 l 1
 341.797 206.055 l 1
 359.863 183.105 365.234 155.273 357.91 122.07 c 0
232.91 285.156 m 1
 267.09 445.801 l 1
 217.773 437.988 188.477 413.574 179.199 372.07 c 0
 175.781 355.469 179.199 339.844 188.965 325.195 c 1
 232.91 285.156 l 1
299.805 105.957 m 0
 304.199 127.93 299.805 147.461 288.086 164.062 c 0
 281.25 172.852 265.625 186.523 241.211 205.078 c 1
 201.172 20.0195 l 1
 255.859 28.8086 288.574 57.1289 299.805 105.957 c 0
EndSplineSet
EndChar
StartChar: percent
Encoding: 37 37 6
Width: 568
Flags: W
HStem: -9 21G<135 168> 0 20<391 406> 197 24<164 183> 231 22<502 517> 398 17<387 405> 432 20<284 286> 442 20G<504 531>
VStem: 100.971 48.587<250 263> 323.661 47.2283<50 66> 327 16.8944<390 405> 547.713 20.088<188 202>
DStem: 464 416 531 462 135 -9 168 -9
Fore
507 253 m 0
 527.911 253 567.801 249.963 567.801 202.219 c 0
 567.801 195.166 566.931 187.138 565 178 c 0
 549 102 473 0 391 0 c 0
 340.558 0 323.661 28.5742 323.661 64.1811 c 0
 323.661 73.752 324.881 83.8311 327 94 c 0
 342 166 432 253 507 253 c 0
511 231 m 0
 444 231 379 101 373 72 c 0
 372.333 67.6667 370.889 60.4444 370.889 52.7407 c 0
 370.889 37.3333 376.667 20 406 20 c 0
 466 20 533 115 546 173 c 0
 547.157 178.62 547.713 183.967 547.713 188.978 c 0
 547.713 214.279 533.537 231 511 231 c 0
531 462 m 1
 168 -9 l 1
 135 -9 l 1
 464 416 l 1
 463 417 l 1
 445 408 424 398 387 398 c 0
 361 398 353 401 343 405 c 1
 343.447 400.528 343.894 396.856 343.894 392.821 c 0
 343.894 387.833 343.211 382.292 341 374 c 0
 326 303 252 197 164 197 c 0
 137.306 197 100.971 214.796 100.971 263.798 c 0
 100.971 271.701 101.917 280.417 104 290 c 0
 118 358 204 452 284 452 c 0
 316 452 323 443 332 434 c 0
 341 425 352 415 387 415 c 0
 444 415 478 441 504 462 c 1
 531 462 l 1
284 432 m 0
 237.621 432 149.558 315.884 149.558 251.154 c 0
 149.558 229.211 161.542 221 183 221 c 0
 238 221 309 301 325 378 c 0
 326.5 383.5 327 388.25 327 393.25 c 0
 327 398.25 326.5 403.5 326 410 c 1
 285 421 297 432 284 432 c 0
EndSplineSet
Back
546.875 473.145 m 1
 174.805 -6.83594 l 1
 142.09 -6.83594 l 1
 478.027 425.781 l 1
 450.195 414.062 423.828 408.203 398.926 408.203 c 0
 377.441 408.203 362.793 410.156 354.004 415.039 c 1
 353.027 383.789 l 1
 345.703 352.539 332.52 323.242 312.988 294.922 c 0
 310.547 291.504 307.129 287.598 303.223 282.715 c 0
 298.828 277.344 294.434 271.973 289.062 266.113 c 0
 250.488 223.145 210.449 202.148 169.922 202.148 c 0
 144.531 202.148 126.465 211.426 116.211 229.98 c 0
 105.469 248.535 102.539 270.996 107.91 296.875 c 0
 116.699 336.914 139.648 374.512 176.758 410.156 c 0
 216.309 445.312 254.883 462.891 292.969 462.891 c 0
 308.105 462.891 324.707 456.543 341.797 443.848 c 1
 363.281 432.129 382.812 425.781 399.902 425.781 c 0
 436.523 425.781 476.562 441.895 519.043 473.145 c 1
 546.875 473.145 l 1
581.055 183.105 m 0
 572.266 140.137 551.27 100.098 518.066 62.9883 c 0
 481.934 20.9961 443.359 0 401.855 0 c 0
 374.023 0 354.492 8.78906 344.238 26.8555 c 0
 333.496 44.9219 330.566 67.8711 335.938 96.1914 c 0
 345.215 135.254 368.652 172.363 405.762 207.031 c 0
 444.824 242.188 482.91 259.766 520.996 259.766 c 0
 572.266 259.766 592.285 234.375 581.055 183.105 c 0
334.961 387.207 m 0
 336.914 393.555 337.402 404.785 335.938 419.922 c 1
 324.219 423.34 312.988 428.223 303.223 435.059 c 2
 295.898 440.918 l 1
 292.969 441.895 l 2
 268.555 441.895 240.234 420.41 208.008 376.953 c 0
 180.176 338.379 163.086 305.176 157.227 277.832 c 0
 150.391 243.164 161.133 226.074 188.965 226.074 c 0
 220.215 226.074 251.953 245.605 284.18 285.156 c 0
 311.523 318.848 328.125 353.027 334.961 387.207 c 0
562.012 178.223 m 0
 565.43 193.848 563.965 208.008 557.617 219.727 c 0
 551.27 230.957 540.527 236.816 524.902 236.816 c 0
 495.605 236.816 464.844 213.867 432.129 166.992 c 0
 405.273 129.883 389.648 98.6328 384.766 74.2188 c 0
 376.953 38.5742 388.184 20.9961 417.969 20.9961 c 0
 448.73 20.9961 479.492 40.5273 509.766 79.1016 c 0
 537.109 111.816 554.688 144.531 562.012 178.223 c 0
EndSplineSet
EndChar
StartChar: ampersand
Encoding: 38 38 7
Width: 531
Flags: W
HStem: -9 49<407 445> 440 22<333 348>
VStem: 46.6817 68.1005<68.9765 101.976> 209.588 60.2916<322.788 348.941> 381.774 36.1728<390 408>
Fore
339 440 m 0
 300.237 440 269.88 408.441 269.88 348.941 c 0
 269.88 326.111 274.205 303.179 279 284 c 1
 300.749 294.357 381.774 334.865 381.774 396.954 c 0
 381.774 423.404 363.634 440 339 440 c 0
209.588 322.788 m 0
 209.588 398.018 267.855 462 340 462 c 0
 384.009 462 417.947 438.758 417.947 397.73 c 0
 417.947 392.145 417.318 386.23 416 380 c 0
 402 313 333 283 285 262 c 1
 299 213 320 164 346 122 c 1
 370 147 425 203 434 245 c 0
 434.758 248.286 435.117 251.205 435.117 253.803 c 0
 435.117 271.758 417.967 274.379 397 277 c 1
 400 291 l 1
 547 291 l 1
 544 277 l 1
 519 273 497 270 471 236 c 2
 448 205 l 2
 412 160 412 160 357 102 c 1
 361 93 395 40 445 40 c 0
 481 40 497 55 518 76 c 1
 526 68 l 1
 525 66 479 -9 407 -9 c 0
 352 -9 320 33 304 53 c 1
 272 29 221 -9 139 -9 c 0
 102.912 -9 46.6817 4.94514 46.6817 68.9765 c 0
 46.6817 169.75 153.272 224.108 217 257 c 1
 213.081 284.435 209.588 303.763 209.588 322.788 c 0
222 234 m 1
 183.505 212.614 114.782 173.103 114.782 101.976 c 0
 114.782 59.0802 143.677 27 186 27 c 0
 201 27 236 31 291 71 c 1
 261 119 239 180 222 234 c 1
EndSplineSet
Back
539.062 67.8711 m 1
 536.133 62.0117 532.227 55.6641 526.367 48.8281 c 0
 520.996 42.4805 514.16 35.1562 506.836 27.832 c 0
 479.492 4.88281 450.684 -6.83594 419.922 -6.83594 c 0
 384.766 -6.83594 350.098 13.1836 315.918 53.2227 c 1
 280.762 27.832 l 1
 253.906 13.1836 l 1
 220.215 -0.488281 186.523 -6.83594 152.832 -6.83594 c 0
 117.676 -6.83594 91.7969 1.46484 75.6836 19.043 c 0
 59.082 36.1328 54.6875 62.5 62.0117 98.1445 c 0
 72.7539 151.367 118.164 199.219 199.219 242.188 c 1
 229.98 256.836 l 1
 224.121 312.988 l 1
 225.098 354.004 l 1
 228.516 368.652 233.887 382.324 242.188 395.508 c 0
 250 408.691 259.766 419.922 271.484 429.688 c 0
 283.203 438.965 295.898 446.777 310.059 452.637 c 0
 324.219 458.008 338.379 460.938 353.027 460.938 c 0
 378.418 460.938 398.438 453.613 414.062 438.965 c 0
 429.199 424.316 434.57 404.297 429.199 378.906 c 0
 425.781 364.258 419.922 351.074 411.621 338.379 c 0
 403.32 326.172 391.113 314.453 375.977 303.223 c 0
 368.652 297.852 358.398 291.504 345.703 285.156 c 0
 332.52 278.32 316.895 270.508 297.852 262.207 c 1
 305.176 235.84 313.965 211.426 324.707 187.988 c 0
 334.961 164.551 346.191 142.578 358.887 122.07 c 1
 411.133 175.293 439.941 216.309 445.801 245.117 c 0
 450.195 265.625 437.5 275.879 409.18 275.879 c 1
 412.109 291.016 l 1
 561.035 291.016 l 1
 558.105 275.879 l 1
 542.48 273.926 530.273 270.996 520.996 267.09 c 0
 511.23 263.184 498.535 252.441 483.887 235.84 c 1
 460.938 205.078 l 1
 446.289 187.012 431.641 169.434 416.504 151.855 c 0
 401.367 134.766 386.23 118.164 370.117 102.051 c 1
 375.488 89.8438 382.324 79.1016 391.113 69.8242 c 0
 399.902 60.5469 411.133 53.2227 424.805 46.875 c 0
 432.129 42.4805 443.359 40.0391 458.008 40.0391 c 0
 474.121 40.0391 488.281 43.457 500.977 49.8047 c 0
 504.395 51.2695 508.301 54.1992 512.695 58.5938 c 0
 516.602 62.9883 522.461 68.8477 529.785 76.1719 c 1
 539.062 67.8711 l 1
393.066 381.836 m 0
 396.484 397.949 394.531 411.621 387.207 422.852 c 0
 379.883 434.57 368.164 439.941 352.051 439.941 c 0
 315.918 439.941 293.945 419.922 286.133 379.883 c 0
 279.785 352.051 282.227 319.824 291.992 284.18 c 1
 351.562 312.012 384.766 344.727 393.066 381.836 c 0
304.199 70.8008 m 1
 279.297 110.352 255.859 164.551 233.887 233.887 c 1
 198.242 212.891 l 1
 173.828 193.848 l 1
 149.902 170.898 135.254 146.973 129.883 123.047 c 0
 127.441 110.352 126.953 98.1445 128.906 86.4258 c 0
 130.859 74.707 134.766 64.4531 141.113 55.6641 c 0
 146.973 46.3867 154.785 39.5508 164.551 34.1797 c 0
 174.316 28.8086 185.547 25.8789 198.242 25.8789 c 0
 226.562 25.8789 262.207 41.0156 304.199 70.8008 c 1
EndSplineSet
EndChar
StartChar: quotesingle
Encoding: 39 39 8
Width: 122
Flags: W
HStem: 462 21G<153 165.73>
Fore
131 294 m 1
 117 294 l 1
 119 332 121 414 125 434 c 0
 129 452 146 462 160 462 c 0
 171.459 462 183.695 454.23 183.695 440.06 c 0
 183.695 438.155 183.474 436.133 183 434 c 0
 179 414 147 332 131 294 c 1
EndSplineSet
Back
216.797 405.762 m 0
 212.891 388.672 200.195 368.164 178.223 345.215 c 0
 158.203 325.684 137.695 311.523 117.188 303.223 c 1
 113.77 315.918 l 1
 158.203 341.309 182.129 366.211 187.012 391.113 c 0
 188.477 396.973 185.547 399.902 179.199 399.902 c 2
 170.898 398.926 l 1
 162.109 397.949 l 2
 132.812 397.949 120.605 409.668 125.977 433.105 c 0
 131.348 456.543 147.949 469.727 175.781 473.145 c 1
 187.988 473.145 198.242 469.238 207.031 460.938 c 0
 219.238 448.242 222.168 430.176 216.797 405.762 c 0
EndSplineSet
EndChar
StartChar: parenleft
Encoding: 40 40 9
Width: 227
Flags: W
VStem: 60.8587 52.3225<56.021 94.15>
Fore
60.8587 94.15 m 0
 60.8587 256.907 165.696 390.829 299 462 c 1
 304 451 l 1
 244 410 167 357 130 184 c 0
 123.291 152.691 113.181 105.379 113.181 56.021 c 0
 113.181 -4.97616 128.621 -69.0977 185 -110 c 1
 173 -121 l 1
 139 -100 104 -52 86 -14 c 0
 71.1306 18.3248 60.8587 50.2316 60.8587 94.15 c 0
EndSplineSet
Back
210.938 -110.84 m 1
 200.195 -122.07 l 1
 175.293 -107.422 154.297 -87.8906 137.695 -62.9883 c 0
 120.605 -38.5742 106.445 -8.30078 95.2148 26.8555 c 0
 92.7734 34.1797 91.3086 41.0156 89.3555 47.3633 c 0
 87.8906 53.7109 86.4258 60.5469 85.9375 66.8945 c 0
 82.0312 99.6094 84.9609 138.184 95.2148 183.105 c 0
 121.094 305.664 199.219 402.344 329.102 473.145 c 1
 333.008 461.914 l 1
 290.527 433.105 257.812 404.785 235.84 376.953 c 0
 215.82 350.098 199.219 321.289 185.547 290.039 c 0
 171.875 258.789 162.109 224.609 155.762 187.988 c 1
 141.113 104.98 l 1
 137.695 84.9609 137.207 63.4766 139.16 40.0391 c 0
 141.602 -25.8789 165.527 -76.1719 210.938 -110.84 c 1
EndSplineSet
EndChar
StartChar: parenright
Encoding: 41 41 10
Width: 227
Flags: W
VStem: 186 53.1412<246 285.97>
Fore
0 -121 m 1
 -3 -110 l 1
 55 -70 133 -16 169 157 c 0
 175.769 188.589 186 236.266 186 285.97 c 0
 186 346.409 170.873 409.845 116 451 c 1
 126 462 l 1
 162 440 197 393 214 354 c 0
 228.869 322.322 239.141 290.643 239.141 246.806 c 0
 239.141 222.835 236.07 195.229 229 162 c 0
 204 44 120 -58 0 -121 c 1
EndSplineSet
Back
255.859 166.016 m 0
 243.164 105.469 216.797 50.293 175.781 0.488281 c 0
 135.254 -49.3164 84.4727 -89.8438 22.9492 -122.07 c 1
 18.0664 -110.84 l 1
 36.6211 -98.1445 53.2227 -85.9375 67.3828 -73.7305 c 0
 82.0312 -61.0352 94.7266 -48.3398 106.445 -35.6445 c 0
 118.164 -22.4609 128.418 -8.30078 137.695 6.34766 c 0
 146.484 21.4844 154.785 38.0859 163.086 56.1523 c 0
 176.27 85.9375 187.012 121.094 194.824 161.133 c 0
 202.148 192.871 207.52 221.191 209.961 246.094 c 0
 212.891 270.508 213.867 291.504 212.891 309.082 c 0
 207.52 376.953 183.105 428.223 140.137 461.914 c 1
 151.855 473.145 l 1
 198.242 444.336 230.469 400.879 249.023 341.797 c 0
 267.09 286.133 269.531 227.539 255.859 166.016 c 0
EndSplineSet
EndChar
StartChar: asterisk
Encoding: 42 42 11
Width: 341
Flags: W
HStem: 462 21G<268.5 278.018>
VStem: 189.419 53.2084<201.664 216.311>
Fore
242.627 216.311 m 0
 242.627 197.086 224.646 181 208 181 c 0
 197.578 181 189.419 188.543 189.419 201.664 c 0
 189.419 203.651 189.606 205.765 190 208 c 0
 195.415 230.742 227.812 266.278 230 311 c 1
 190 288 190 288 169 269 c 0
 141 244 137 240 121 240 c 0
 106.942 240 102.458 249.574 102.458 257.411 c 0
 102.458 259.052 102.654 260.616 103 262 c 0
 112 305 162 282 228 322 c 1
 221 326 l 2
 184.549 354.04 127.131 342.768 127.131 373.019 c 0
 127.131 386.097 137.478 404 156 404 c 0
 186 404 178 367 236 332 c 1
 237.703 347.323 241.595 368.327 241.595 378.746 c 0
 241.595 397.207 237.602 407.82 237.602 421.288 c 0
 237.602 425.475 237.988 429.939 239 435 c 0
 245 462 266 462 271 462 c 0
 285.036 462 288.735 451.054 288.735 441.966 c 0
 288.735 439.4 288.44 436.982 288 435 c 0
 285 417 260 384 252 348 c 2
 248 330 l 1
 253 333 l 2
 303 358 330 405 356 405 c 0
 363.087 405 375.666 400.292 375.666 386.01 c 0
 375.666 384.169 375.457 382.169 375 380 c 0
 366 337 331 365 251 321 c 1
 256 318 l 2
 300.537 285.525 351.96 301.261 351.96 271.75 c 0
 351.96 253.05 337.531 239 321 239 c 0
 291 239 287 292 248 309 c 2
 244 311 l 1
 239.86 294.441 237.366 269.243 237.366 259.536 c 0
 237.366 236.815 242.627 227.128 242.627 216.311 c 0
EndSplineSet
Back
380.859 270.02 m 0
 378.418 253.418 368.164 245.117 351.074 245.117 c 0
 342.285 245.117 331.055 255.371 316.895 275.879 c 0
 309.082 287.109 301.27 296.387 294.434 303.223 c 0
 287.598 309.57 281.25 314.453 275.879 316.895 c 2
 271.973 318.848 l 1
 270.996 313.965 l 2
 267.578 301.27 265.625 289.551 265.137 277.832 c 0
 264.16 266.602 264.648 255.859 266.113 246.094 c 2
 270.02 214.844 l 1
 266.113 197.754 254.395 187.5 234.863 185.059 c 1
 219.238 185.059 212.891 194.336 216.797 212.891 c 1
 233.887 250.977 l 1
 240.723 264.16 245.605 275.391 248.535 283.691 c 0
 251.465 291.992 253.906 297.852 254.883 300.781 c 1
 257.812 313.965 l 1
 257.812 318.848 l 1
 220.215 295.898 l 1
 195.801 275.879 l 1
 172.852 254.883 l 1
 164.551 249.023 155.273 246.094 145.996 246.094 c 0
 130.859 246.094 124.512 253.418 126.953 268.066 c 0
 130.371 283.203 144.531 293.945 169.922 299.805 c 0
 209.473 310.059 237.793 319.824 255.859 330.078 c 1
 249.023 334.961 l 2
 247.07 337.891 227.051 344.727 188.965 355.957 c 0
 162.109 364.746 150.391 375.977 152.832 390.137 c 0
 154.297 395.996 157.715 401.855 163.086 407.227 c 0
 166.504 410.156 172.363 412.598 181.152 414.062 c 0
 191.895 414.062 202.148 406.25 211.914 391.113 c 0
 226.074 368.164 243.164 351.562 263.184 339.844 c 1
 265.137 349.121 l 2
 266.113 355.469 267.09 362.793 267.578 371.094 c 0
 268.066 378.906 267.578 388.184 267.09 398.926 c 0
 265.625 410.156 265.137 419.922 265.625 427.734 c 0
 265.625 435.059 266.602 441.406 268.066 445.801 c 0
 271.973 463.867 282.715 473.145 299.805 473.145 c 0
 315.918 473.145 321.777 463.867 317.871 445.801 c 1
 300.781 408.203 l 2
 288.574 381.348 281.25 364.258 279.785 356.934 c 2
 275.879 338.867 l 1
 282.227 341.797 l 2
 298.828 350.586 318.848 366.211 342.773 388.184 c 0
 362.793 405.762 377.441 415.039 386.23 415.039 c 0
 403.809 415.039 411.133 406.738 407.227 390.137 c 0
 403.809 377.93 396.973 369.141 387.207 363.77 c 1
 346.191 354.98 l 2
 320.801 349.609 298.828 340.82 279.785 329.102 c 1
 284.18 325.195 l 1
 311.035 311.035 l 1
 354.98 299.805 l 2
 376.465 294.434 384.766 284.668 380.859 270.02 c 0
EndSplineSet
EndChar
StartChar: plus
Encoding: 43 43 12
Width: 385
Flags: W
HStem: 0 21G<175 210> 156 34<59 208 250 398> 325 20G<248 283>
DStem: 208 156 243 156 175 0 210 0 248 345 283 345 215 190 250 190
Fore
215 190 m 1
 248 345 l 1
 283 345 l 1
 250 190 l 1
 405 190 l 1
 398 156 l 1
 243 156 l 1
 210 0 l 1
 175 0 l 1
 208 156 l 1
 53 156 l 1
 60 190 l 1
 215 190 l 1
EndSplineSet
Back
430.176 160.156 m 1
 270.996 160.156 l 1
 236.816 0 l 1
 202.148 0 l 1
 235.84 160.156 l 1
 77.1484 160.156 l 1
 83.9844 194.824 l 1
 243.164 194.824 l 1
 276.855 354.004 l 1
 312.012 354.004 l 1
 277.832 194.824 l 1
 437.012 194.824 l 1
 430.176 160.156 l 1
EndSplineSet
EndChar
StartChar: comma
Encoding: 44 44 13
Width: 170
Flags: W
HStem: -24 20G<71.851 82>
Fore
43.3048 22.8665 m 0
 43.3048 52.538 74.64 70 93 70 c 0
 106.831 70 136.353 63.275 136.353 24.6342 c 0
 136.353 18.5737 135.627 11.728 134 4 c 0
 124 -44 58 -89 37 -96 c 1
 33 -83 l 1
 85.3625 -54.2519 105.154 -22.6697 105.154 -9.1892 c 0
 105.154 -4.20871 101.478 -0.999999 97 -1 c 0
 96 -1 94 -2 90 -3 c 0
 88 -3 84 -4 80 -4 c 0
 63.702 -4 43.3048 1.73882 43.3048 22.8665 c 0
EndSplineSet
Back
139.16 3.90625 m 0
 137.695 -3.41797 133.789 -12.207 126.953 -21.9727 c 0
 120.117 -32.2266 111.816 -42.4805 101.074 -54.1992 c 0
 79.1016 -76.1719 58.1055 -90.332 39.0625 -97.168 c 1
 36.1328 -83.0078 l 1
 80.0781 -58.1055 104.492 -33.6914 108.887 -8.78906 c 0
 110.352 -2.92969 107.91 0 101.074 0 c 2
 92.7734 -0.976562 l 1
 84.9609 -1.95312 l 2
 55.6641 -1.95312 43.457 8.78906 47.8516 30.7617 c 0
 52.7344 57.6172 68.8477 70.8008 97.168 70.8008 c 0
 115.234 70.8008 127.441 64.4531 134.277 51.2695 c 0
 141.602 38.5742 143.066 22.4609 139.16 3.90625 c 0
EndSplineSet
EndChar
StartChar: hyphen
Encoding: 45 45 14
Width: 227
Flags: W
HStem: 137 34<62 224>
Fore
63 171 m 1
 231 171 l 1
 224 137 l 1
 56 137 l 1
 63 171 l 1
EndSplineSet
Back
270.02 128.906 m 1
 53.2227 128.906 l 1
 60.0586 162.109 l 1
 276.855 162.109 l 1
 270.02 128.906 l 1
EndSplineSet
EndChar
StartChar: period
Encoding: 46 46 15
Width: 170
Flags: W
HStem: -8 21G<76.7498 91.8026>
Fore
130.967 37.362 m 0
 130.967 8.80433 100.605 -8 83 -8 c 0
 70.4996 -8 53.2157 0.769711 53.2157 21.1565 c 0
 53.2157 47.5791 78.5842 68 99 68 c 0
 117.249 68 130.967 55.1625 130.967 37.362 c 0
EndSplineSet
Back
145.02 29.7852 m 0
 143.066 20.0195 137.207 11.7188 127.441 4.39453 c 0
 117.676 -2.44141 107.91 -5.85938 98.1445 -5.85938 c 0
 87.8906 -5.85938 79.5898 -2.44141 73.7305 4.39453 c 0
 67.3828 11.7188 64.9414 20.0195 66.8945 29.7852 c 0
 69.8242 40.5273 75.6836 49.8047 84.4727 58.1055 c 0
 93.2617 65.918 103.516 69.8242 113.77 69.8242 c 0
 124.023 69.8242 132.324 65.918 139.16 57.6172 c 0
 145.508 49.3164 147.461 40.0391 145.02 29.7852 c 0
EndSplineSet
EndChar
StartChar: slash
Encoding: 47 47 16
Width: 219
Flags: W
HStem: 442 20G<287 323>
DStem: 287 462 323 462 -30 -120 7 -120
Fore
-30 -120 m 1
 287 462 l 1
 323 462 l 1
 7 -120 l 1
 -30 -120 l 1
EndSplineSet
Back
333.984 473.145 m 1
 9.76562 -121.094 l 1
 -25.8789 -121.094 l 1
 296.875 473.145 l 1
 333.984 473.145 l 1
EndSplineSet
EndChar
StartChar: zero
Encoding: 48 48 17
Width: 341
Flags: W
HStem: -10 18<165 183> 444 18<261 271>
VStem: 54.9036 59.0003<103 142.511> 322.423 59.2591<308 346.798>
Fore
265 444 m 0
 177 444 140 272 130 226 c 0
 124.311 199.928 113.904 149.586 113.904 103.843 c 0
 113.904 53.0908 126.716 8 173 8 c 0
 260 8 296 172 307 226 c 0
 311.814 248.146 322.423 299.497 322.423 346.798 c 0
 322.423 397.748 310.115 444 265 444 c 0
269 462 m 0
 358.148 462 381.682 383.163 381.682 308.556 c 0
 381.682 278.552 377.876 249.232 373 226 c 0
 355 143 294 -10 169 -10 c 0
 79.1619 -10 54.9036 67.7806 54.9036 142.511 c 0
 54.9036 172.592 58.834 202.179 64 226 c 0
 81 307 143 462 269 462 c 0
EndSplineSet
Back
390.137 226.074 m 0
 377.93 167.969 357.422 118.164 328.125 77.1484 c 0
 289.551 20.5078 242.188 -7.8125 186.035 -7.8125 c 0
 157.227 -7.8125 134.766 -0.488281 118.164 14.1602 c 0
 101.562 28.8086 89.3555 47.3633 82.5195 70.3125 c 0
 75.6836 93.2617 72.2656 118.652 73.2422 145.996 c 0
 73.7305 173.34 76.6602 200.195 82.0312 226.074 c 0
 87.4023 251.465 95.7031 277.832 106.934 305.664 c 0
 118.164 333.008 132.324 358.398 149.414 381.348 c 0
 166.504 404.297 186.523 423.34 208.984 438.477 c 0
 231.445 453.613 257.324 460.938 286.133 460.938 c 0
 341.797 460.938 376.953 432.129 391.113 374.023 c 0
 402.344 333.496 401.855 284.18 390.137 226.074 c 0
325.195 226.074 m 0
 356.445 371.094 341.797 443.848 282.227 443.848 c 0
 223.145 443.848 178.223 371.094 146.973 226.074 c 0
 115.723 80.5664 129.883 7.8125 189.941 7.8125 c 0
 248.535 7.8125 293.457 80.5664 325.195 226.074 c 0
EndSplineSet
EndChar
StartChar: one
Encoding: 49 49 18
Width: 341
Flags: W
HStem: 0 10<256 271>
DStem: 224 373 302 460 159 64 215 51 297 462 297 462 161 399 302 460
Fore
81 0 m 1
 83 10 l 1
 123 12 148 13 159 64 c 2
 224 373 l 2
 225.095 378.11 226.323 383.752 226.323 388.858 c 0
 226.323 397.742 222.605 405 208 405 c 0
 200 405 200 405 159 390 c 1
 161 399 l 1
 297 462 l 1
 302 460 l 1
 215 51 l 2
 213.816 45.418 213.176 40.5513 213.176 36.3176 c 0
 213.176 15.5225 228.627 10 271 10 c 1
 269 0 l 1
 81 0 l 1
EndSplineSet
Back
292.969 0 m 1
 104.98 0 l 1
 106.934 9.76562 l 1
 130.371 9.76562 147.461 13.6719 158.691 20.5078 c 0
 169.434 27.3438 177.246 41.5039 182.129 62.9883 c 2
 248.047 372.07 l 2
 252.441 393.555 247.559 403.809 231.934 403.809 c 0
 229.492 403.809 212.891 399.414 183.105 390.137 c 1
 185.059 397.949 l 1
 319.824 460.938 l 1
 326.172 459.961 l 1
 238.77 50.7812 l 2
 234.863 31.7383 238.77 19.5312 250 14.1602 c 0
 257.324 11.2305 272.461 9.76562 294.922 9.76562 c 1
 292.969 0 l 1
EndSplineSet
EndChar
StartChar: two
Encoding: 50 50 19
Width: 341
Flags: W
HStem: 0 52<98 287> 411 51<220 264>
VStem: 300.352 64.5739<336.526 365.947>
DStem: 171 137 239 172 22 8 98 52
Fore
344 94 m 1
 287 0 l 1
 20 0 l 1
 22 8 l 1
 171 137 l 2
 244 201 287 262 298 313 c 0
 299.394 319.971 300.352 328.053 300.352 336.526 c 0
 300.352 370.597 284.867 411 220 411 c 0
 158 411 127 359 104 322 c 1
 90 326 l 1
 133 429 204 462 264 462 c 0
 318.298 462 364.926 425.952 364.926 365.947 c 0
 364.926 357.435 363.988 348.441 362 339 c 0
 347 266 275 204 239 172 c 2
 98 52 l 1
 262 52 l 2
 287 52 300 54 336 97 c 1
 344 94 l 1
EndSplineSet
Back
366.211 92.7734 m 1
 309.082 0 l 1
 42.9688 0 l 1
 44.9219 7.8125 l 1
 193.848 138.184 l 2
 266.602 200.195 309.082 258.301 320.801 312.988 c 0
 327.637 345.215 324.219 369.141 310.547 386.23 c 0
 296.875 402.832 273.926 411.133 242.188 411.133 c 0
 214.844 411.133 190.918 400.879 170.898 380.859 c 0
 158.203 369.141 143.555 349.121 125.977 320.801 c 1
 112.793 325.195 l 1
 128.418 367.188 150.879 400.391 180.176 424.316 c 0
 209.473 448.73 245.117 460.938 287.109 460.938 c 0
 322.266 460.938 349.121 449.707 367.676 426.27 c 0
 385.742 403.32 391.113 374.023 383.789 337.891 c 0
 372.559 288.086 332.031 232.91 262.207 171.875 c 2
 121.094 50.7812 l 1
 284.18 50.7812 l 2
 300.781 50.7812 314.453 54.6875 325.195 62.0117 c 0
 334.473 67.3828 345.215 78.6133 356.934 96.1914 c 1
 366.211 92.7734 l 1
EndSplineSet
EndChar
StartChar: three
Encoding: 51 51 20
Width: 341
Flags: W
HStem: -10 63<67 103> 421 41<231 263>
VStem: 292.885 57.9518<365 387.127>
Fore
272.604 139.713 m 0
 272.604 190.065 245.276 225.487 172.767 225.487 c 0
 166.562 225.487 159.692 225.32 152 225 c 1
 154 234 l 1
 220 254 278 287 291 350 c 0
 292.245 355.292 292.885 360.656 292.885 365.942 c 0
 292.885 394.621 274.062 421 231 421 c 0
 169 421 129 367 115 348 c 1
 106 351 l 1
 152 440 217 462 263 462 c 0
 335.155 462 350.836 418.299 350.836 387.127 c 0
 350.836 336.865 319.376 304.351 266 274 c 1
 288.021 263.836 329.412 245.064 329.412 184.266 c 0
 329.412 173.282 328.061 160.925 325 147 c 0
 305 51 210 -10 103 -10 c 0
 87.8893 -10 34.4258 -6.43229 34.4258 23.4466 c 0
 34.4258 43.4288 53.2792 53 67 53 c 0
 98 53 116 15 157 15 c 0
 220 15 260 69 271 120 c 0
 271.802 124.543 272.604 131.515 272.604 139.713 c 0
EndSplineSet
Back
348.145 146.973 m 0
 337.891 96.1914 310.547 57.1289 265.137 28.8086 c 0
 223.633 4.39453 177.246 -7.8125 125.977 -7.8125 c 0
 106.445 -7.8125 92.7734 -5.85938 83.9844 -0.976562 c 1
 63.9648 4.39453 55.1758 14.1602 58.1055 28.8086 c 0
 62.0117 44.9219 72.2656 53.2227 88.8672 53.2227 c 0
 98.1445 53.2227 112.305 46.875 130.859 34.1797 c 0
 151.855 20.5078 167.48 14.1602 179.199 14.1602 c 0
 208.496 14.1602 233.398 24.9023 253.906 46.875 c 0
 273.438 65.4297 286.621 89.8438 293.945 120.117 c 0
 297.363 136.23 296.875 150.391 292.969 163.086 c 1
 287.109 204.102 247.559 225.098 174.805 225.098 c 1
 175.781 233.887 l 1
 256.836 257.812 302.734 296.387 313.965 349.121 c 0
 318.848 370.117 315.43 387.695 304.199 400.391 c 0
 292.48 413.574 275.879 419.922 253.906 419.922 c 0
 212.891 419.922 173.828 395.996 138.184 348.145 c 1
 127.93 351.074 l 1
 166.016 424.316 218.75 460.938 286.133 460.938 c 0
 315.918 460.938 339.355 453.125 356.445 437.5 c 0
 373.535 421.875 378.906 399.414 373.047 370.117 c 0
 365.234 334.473 336.914 302.734 289.062 273.926 c 1
 311.035 263.184 326.172 251.953 334.961 240.234 c 0
 353.027 217.285 357.422 186.523 348.145 146.973 c 0
EndSplineSet
EndChar
StartChar: four
Encoding: 52 52 21
Width: 341
Flags: W
HStem: 0 21G<200 253> 114 44<70 224 287 346> 442 20G<321 351>
DStem: 224 114 277 114 200 0 253 0 282 390 351 462 233 158 287 158 321 462 281 390 42 158 70 158
Fore
356 158 m 1
 346 114 l 1
 277 114 l 1
 253 0 l 1
 200 0 l 1
 224 114 l 1
 32 114 l 1
 42 158 l 1
 321 462 l 1
 351 462 l 1
 287 158 l 1
 356 158 l 1
233 158 m 1
 282 390 l 1
 281 390 l 1
 70 158 l 1
 233 158 l 1
EndSplineSet
Back
360.84 111.816 m 1
 293.945 111.816 l 1
 270.02 0 l 1
 217.773 0 l 1
 242.188 111.816 l 1
 54.1992 111.816 l 1
 62.9883 154.785 l 1
 335.938 452.148 l 1
 366.211 452.148 l 1
 303.223 154.785 l 1
 370.117 154.785 l 1
 360.84 111.816 l 1
250 154.785 m 1
 297.852 381.836 l 1
 89.8438 154.785 l 1
 250 154.785 l 1
EndSplineSet
EndChar
StartChar: five
Encoding: 53 53 22
Width: 341
Flags: W
HStem: -10 68<61 106> 398 54<214 349>
VStem: 275.011 55.9516<164.357 208.221>
DStem: 215 452 209 398 106 290 167 340
Fore
28.2222 24.9158 m 0
 28.2222 35.9019 35.0314 58 61 58 c 0
 105 58 114 16 151 16 c 0
 196 16 254 54 272 137 c 0
 274.049 146.712 275.011 155.82 275.011 164.357 c 0
 275.011 251.634 174.496 279.178 108 281 c 0
 105.578 281 104.256 282.467 104.256 284.734 c 0
 104.256 286.211 104.817 288.028 106 290 c 2
 215 452 l 1
 358 452 l 2
 375 452 383 460 393 470 c 1
 398 465 l 1
 359 404 l 2
 355 398 350 398 342 398 c 2
 209 398 l 1
 167 340 l 1
 220 330 282 319 311 270 c 0
 324.625 247.704 330.963 231.546 330.963 208.221 c 0
 330.963 193.885 328.568 176.841 324 154 c 0
 304 63 214 -10 106 -10 c 0
 56.6867 -10 28.2222 4.17718 28.2222 24.9158 c 0
EndSplineSet
Back
426.758 466.797 m 1
 388.184 405.762 l 2
 385.254 401.855 379.883 399.902 371.094 399.902 c 2
 236.816 399.902 l 1
 195.801 341.797 l 1
 234.863 335.938 266.113 326.66 290.527 314.453 c 0
 314.941 302.246 331.055 287.109 338.867 270.02 c 1
 354.004 243.164 l 1
 358.887 222.168 l 1
 360.84 205.566 358.887 182.129 353.027 152.832 c 0
 341.797 103.027 314.453 63.4766 271.973 34.1797 c 0
 229.98 5.85938 184.57 -7.8125 134.766 -7.8125 c 0
 76.1719 -7.8125 49.8047 4.88281 56.1523 30.7617 c 0
 59.5703 48.8281 70.3125 58.1055 88.8672 58.1055 c 0
 104.492 58.1055 120.605 50.7812 138.184 36.1328 c 0
 155.273 22.4609 169.434 16.1133 180.176 16.1133 c 0
 209.473 16.1133 235.84 29.2969 259.766 56.1523 c 0
 280.762 79.1016 293.945 106.445 299.805 138.184 c 0
 310.547 186.523 295.898 224.121 254.883 250 c 0
 220.215 271.484 181.152 282.227 137.207 282.227 c 0
 132.812 282.227 131.836 285.156 133.789 291.016 c 1
 243.164 453.125 l 1
 386.23 453.125 l 2
 397.949 453.125 410.156 459.473 421.875 472.168 c 1
 426.758 466.797 l 1
EndSplineSet
EndChar
StartChar: six
Encoding: 54 54 23
Width: 341
Flags: W
HStem: -10 20<171 188> 261 31<220 256>
VStem: 56.7866 59.3665<105 128> 290.654 65.8396<173 191>
Fore
56.7866 126.403 m 0
 56.7866 318.002 226.222 461.677 404 467 c 1
 403 456 l 1
 277 437 190 345 160 262 c 1
 201 284 218 292 256 292 c 0
 316.477 292 356.494 255.312 356.494 189.641 c 0
 356.494 100.638 290.339 -10 171 -10 c 0
 105.962 -10 56.7866 32.9601 56.7866 126.403 c 0
220 261 m 0
 197 261 171 255 151 239 c 0
 143 232 133 216 124 175 c 0
 118.618 149.213 116.153 126.694 116.153 107.275 c 0
 116.153 40.0906 145.66 10 186 10 c 0
 229 10 268 45 284 122 c 0
 288.119 141.495 290.654 160.763 290.654 178.46 c 0
 290.654 225.215 272.956 261 220 261 c 0
EndSplineSet
Back
363.77 146.973 m 0
 359.375 125 352.051 104.492 341.309 85.4492 c 0
 331.055 66.4062 318.359 50.293 303.711 36.6211 c 0
 288.574 22.9492 270.996 12.207 251.465 3.90625 c 0
 231.934 -3.90625 210.449 -7.8125 187.012 -7.8125 c 0
 159.18 -7.8125 136.719 -1.95312 120.605 9.76562 c 0
 104.004 21.9727 92.2852 37.5977 84.9609 56.6406 c 0
 77.6367 75.6836 74.2188 97.168 74.707 122.07 c 0
 74.707 146.484 77.6367 171.387 83.0078 195.801 c 0
 90.332 231.934 104.98 266.113 126.953 298.34 c 0
 148.926 331.055 175.293 358.887 205.566 382.812 c 0
 235.84 407.227 269.531 425.781 306.152 439.941 c 0
 342.773 454.102 379.395 460.938 416.016 460.938 c 1
 416.016 450.195 l 1
 359.375 440.43 310.547 419.434 269.043 386.23 c 0
 227.539 352.539 196.289 310.059 174.805 257.812 c 1
 225.098 280.762 l 1
 241.699 285.645 256.836 288.086 270.996 288.086 c 0
 309.57 288.086 336.914 274.414 353.027 247.559 c 0
 369.141 220.703 372.559 187.012 363.77 146.973 c 0
298.828 120.117 m 0
 318.359 211.426 296.875 256.836 234.863 256.836 c 0
 207.031 256.836 184.57 250.488 166.992 236.816 c 1
 163.574 230.469 159.668 221.68 155.273 210.938 c 0
 151.367 200.195 147.461 187.5 144.043 171.875 c 0
 140.137 155.273 137.207 137.695 135.742 118.652 c 0
 133.789 99.6094 134.766 82.0312 138.184 65.918 c 0
 141.113 49.8047 147.949 36.6211 157.715 25.8789 c 0
 166.992 15.1367 181.641 9.76562 201.172 9.76562 c 0
 214.844 9.76562 227.539 13.1836 237.793 19.043 c 0
 248.535 24.9023 257.812 33.2031 266.113 43.457 c 0
 273.926 53.7109 280.762 65.4297 286.133 79.1016 c 0
 291.504 92.2852 295.898 105.957 298.828 120.117 c 0
EndSplineSet
EndChar
StartChar: seven
Encoding: 55 55 24
Width: 341
Flags: W
HStem: -5 21G<116 161> 401 51<150 338>
DStem: 338 401 401 441 116 -5 161 -5
Fore
403 452 m 1
 401 441 l 1
 161 -5 l 1
 116 -5 l 1
 338 401 l 1
 189 401 l 2
 145 401 129 382 99 346 c 1
 89 352 l 1
 109 385 131 417 150 452 c 1
 403 452 l 1
EndSplineSet
Back
423.828 441.895 m 1
 184.082 -3.90625 l 1
 139.16 -3.90625 l 1
 361.816 402.832 l 1
 212.891 402.832 l 2
 194.336 402.832 177.246 398.438 162.109 389.16 c 0
 153.809 384.277 140.625 370.117 122.07 347.168 c 1
 110.84 352.051 l 1
 171.875 453.125 l 1
 425.781 453.125 l 1
 423.828 441.895 l 1
EndSplineSet
EndChar
StartChar: eight
Encoding: 56 56 25
Width: 341
Flags: W
HStem: -10 20<165 185> 442 20<250 274>
VStem: 56.9529 52.9461<69 88> 114.851 55.6633<329.062 358.685> 272.503 56.7757<107 131.78> 321.948 48.0727<373 391>
Fore
190 213 m 1
 164 195 126 169 113 107 c 0
 110.928 97.8465 109.899 88.9615 109.899 80.5253 c 0
 109.899 40.1142 133.499 10 179 10 c 0
 222 10 260 38 270 86 c 0
 271.663 93.7107 272.503 100.713 272.503 107.238 c 0
 272.503 143.871 246.021 165.467 190 213 c 1
329.279 131.78 m 0
 329.279 61.974 272.089 -10 166 -10 c 0
 91.5069 -10 56.9529 33.0112 56.9529 79.9929 c 0
 56.9529 86.6195 57.6403 93.325 59 100 c 0
 72 159 104 180 175 227 c 1
 137.132 268.161 114.851 291.024 114.851 329.062 c 0
 114.851 337.231 115.879 346.1 118 356 c 0
 132 425 209 462 268 462 c 0
 335.563 462 370.02 427.354 370.02 383.733 c 0
 370.02 311.578 292.209 272.614 252 253 c 1
 312.863 202.281 329.279 166.784 329.279 131.78 c 0
260 442 m 0
 206.358 442 170.514 400.214 170.514 358.685 c 0
 170.514 313.003 215.939 279.615 235 266 c 1
 264 283 307 308 320 368 c 0
 321.282 374.089 321.948 380.127 321.948 385.974 c 0
 321.948 416.613 303.667 442 260 442 c 0
EndSplineSet
Back
338.867 102.051 m 0
 334.961 83.4961 328.125 66.8945 317.871 53.2227 c 0
 308.105 39.0625 295.898 27.3438 282.227 18.5547 c 0
 268.066 9.27734 252.441 2.92969 235.352 -1.46484 c 0
 218.262 -5.85938 201.172 -7.8125 183.105 -7.8125 c 0
 166.504 -7.8125 150.879 -5.85938 137.207 -0.976562 c 0
 123.047 3.90625 110.84 10.7422 101.074 20.0195 c 0
 90.8203 29.2969 83.9844 40.5273 80.0781 54.1992 c 0
 76.1719 67.3828 75.6836 82.5195 79.1016 99.1211 c 0
 82.5195 115.723 87.4023 129.395 93.2617 140.137 c 0
 99.6094 150.879 107.422 160.156 116.699 168.945 c 0
 125.488 177.734 136.23 186.523 148.926 194.824 c 0
 161.621 203.613 176.27 213.867 192.871 226.074 c 1
 183.105 239.258 173.828 250.488 165.527 259.277 c 0
 157.227 268.555 150.391 277.344 145.02 286.621 c 0
 139.648 295.41 136.23 305.176 134.766 315.918 c 0
 133.789 326.66 134.766 339.844 138.184 355.957 c 0
 141.113 372.07 147.949 386.719 157.715 399.414 c 0
 166.992 412.598 178.711 423.34 192.383 432.617 c 0
 206.055 441.406 221.191 448.73 236.816 453.613 c 0
 252.93 458.496 269.043 460.938 285.156 460.938 c 0
 300.293 460.938 314.453 458.984 328.125 455.566 c 0
 341.309 451.66 352.539 445.801 361.816 437.988 c 0
 371.094 430.176 377.93 419.922 381.348 408.203 c 0
 385.254 395.996 385.254 381.836 381.836 365.234 c 0
 375.977 336.914 362.793 314.941 342.285 298.828 c 0
 322.266 283.203 297.363 267.578 268.066 252.93 c 1
 279.785 239.746 291.016 228.027 301.27 217.773 c 0
 312.012 208.008 320.312 197.754 327.637 187.012 c 0
 334.473 176.27 339.355 164.551 341.309 151.367 c 0
 343.75 138.672 342.773 122.07 338.867 102.051 c 0
334.961 368.164 m 0
 338.867 389.16 336.914 406.25 329.102 418.945 c 0
 318.359 435.059 300.781 442.871 276.855 442.871 c 0
 256.348 442.871 237.793 436.523 221.68 423.828 c 0
 205.078 411.133 194.824 394.531 189.941 373.047 c 0
 182.617 337.891 203.125 301.758 250.977 265.137 c 1
 278.809 284.18 l 1
 298.828 299.805 l 1
 316.895 317.871 329.102 340.82 334.961 368.164 c 0
285.156 85.9375 m 0
 290.527 110.84 287.109 130.859 274.902 146.973 c 0
 265.137 161.133 242.188 182.617 207.031 211.914 c 1
 183.105 192.871 l 1
 165.039 175.781 l 1
 148.438 155.762 137.207 132.812 131.836 105.957 c 0
 125.977 78.125 128.418 55.1758 139.16 37.1094 c 0
 149.902 19.043 168.457 9.76562 194.824 9.76562 c 0
 216.309 9.76562 235.352 17.0898 252.441 31.7383 c 0
 269.531 45.8984 280.273 63.9648 285.156 85.9375 c 0
EndSplineSet
EndChar
StartChar: nine
Encoding: 57 57 26
Width: 341
Flags: W
HStem: 162 29<177 212> 442 20<244 262>
VStem: 79.4202 66.8888<256 274> 315.178 61.3583<326 353.704>
Fore
37 -15 m 1
 38 -1 l 1
 209 26 279 181 287 198 c 1
 286 199 l 1
 251 174 212 162 177 162 c 0
 103.254 162 79.4202 213.883 79.4202 263.362 c 0
 79.4202 274.938 80.7248 286.382 83 297 c 0
 102 388 173 462 262 462 c 0
 331.116 462 376.536 409.193 376.536 326.975 c 0
 376.536 309.27 374.43 290.2 370 270 c 0
 340 126 213 -4 37 -15 c 1
250 442 m 0
 180.711 442 146.309 342.034 146.309 272.61 c 0
 146.309 230.868 160.466 191 212 191 c 0
 234 191 265 203 282 215 c 0
 292 222 296 230 298 242 c 2
 304 269 l 2
 307.85 286.112 315.178 320.245 315.178 353.704 c 0
 315.178 398.455 302.069 442 250 442 c 0
EndSplineSet
Back
393.066 270.02 m 0
 376.953 193.848 339.844 129.883 280.762 78.125 c 0
 212.402 17.0898 138.672 -13.1836 60.0586 -13.1836 c 1
 61.0352 0 l 1
 88.3789 3.41797 114.258 10.7422 139.648 21.9727 c 0
 164.551 33.2031 187.5 47.8516 208.984 65.918 c 0
 230.469 83.9844 249.512 104.492 267.09 126.953 c 0
 284.18 149.902 298.34 173.34 309.082 198.242 c 1
 291.504 185.547 273.926 176.27 255.859 170.41 c 0
 237.793 165.039 219.238 162.109 200.195 162.109 c 0
 162.109 162.109 134.766 175.293 118.164 202.148 c 0
 102.051 226.074 98.1445 257.324 105.957 295.898 c 0
 116.211 342.773 136.23 380.859 166.016 411.133 c 0
 199.219 444.336 238.77 460.938 284.18 460.938 c 0
 332.52 460.938 366.211 440.43 384.766 398.926 c 0
 400.879 362.305 403.809 319.336 393.066 270.02 c 0
319.824 242.188 m 1
 326.172 269.043 l 2
 351.562 384.766 333.496 442.871 272.949 442.871 c 0
 224.121 442.871 191.406 402.832 173.828 323.242 c 0
 166.016 288.574 165.527 259.277 172.852 235.84 c 0
 182.129 206.055 202.637 190.918 233.887 190.918 c 0
 246.094 190.918 257.812 192.871 269.043 196.777 c 0
 280.273 201.172 291.992 206.543 304.199 213.867 c 0
 312.5 219.238 317.871 228.516 319.824 242.188 c 1
EndSplineSet
EndChar
StartChar: colon
Encoding: 58 58 27
Width: 189
Flags: W
HStem: -8 76<91 107> -8 76<91 107> 238 75<144 160>
Fore
190.019 282.797 m 0
 190.019 254.451 161.263 238 144 238 c 0
 131.385 238 112.275 246.931 112.275 266.988 c 0
 112.275 292.896 139.159 313 160 313 c 0
 177.238 313 190.019 300.371 190.019 282.797 c 0
137.969 37.3913 m 0
 137.969 8.94403 107.675 -8 91 -8 c 0
 78.4402 -8 60.2464 0.853276 60.2464 21.448 c 0
 60.2464 47.7468 85.8244 68 107 68 c 0
 124.37 68 137.969 55.1765 137.969 37.3913 c 0
EndSplineSet
Back
206.055 280.762 m 0
 200.195 256.348 184.57 244.141 159.18 244.141 c 0
 148.926 244.141 140.625 247.559 134.277 254.883 c 0
 127.93 262.207 126.465 270.996 128.906 280.762 c 0
 134.277 304.199 149.902 317.871 174.805 320.801 c 0
 185.547 320.801 193.848 316.895 200.195 309.082 c 0
 206.055 300.781 208.008 291.504 206.055 280.762 c 0
151.855 29.7852 m 0
 149.902 19.5312 144.531 10.7422 135.742 3.90625 c 0
 126.465 -2.44141 116.699 -5.85938 105.957 -5.85938 c 0
 96.1914 -5.85938 87.8906 -2.44141 81.543 4.39453 c 0
 75.1953 11.7188 73.2422 20.0195 75.1953 29.7852 c 0
 77.6367 40.5273 83.4961 49.8047 92.2852 58.1055 c 0
 101.562 65.918 111.328 69.8242 122.07 69.8242 c 0
 132.812 69.8242 141.113 65.918 146.973 58.1055 c 0
 152.832 49.8047 154.785 40.5273 151.855 29.7852 c 0
EndSplineSet
EndChar
StartChar: semicolon
Encoding: 59 59 28
Width: 189
Flags: W
HStem: -4 21G<86.2548 98.5> -3 73<104 116> -1 71<110 113> 238 75<144 160>
Fore
53 -96 m 1
 49 -83 l 1
 101.363 -54.2519 121.154 -22.6697 121.154 -9.1892 c 0
 121.154 -4.20871 117.478 -0.999999 113 -1 c 0
 112 -1 110 -2 106 -3 c 0
 104 -3 101 -4 96 -4 c 0
 76.5095 -4 60.1586 3.06384 60.1586 22.0589 c 0
 60.1586 24.5047 60.4296 27.1482 61 30 c 0
 69 68 102 70 110 70 c 0
 122.176 70 153.261 63.1925 153.261 23.9223 c 0
 153.261 18.0389 152.564 11.4269 151 4 c 0
 141 -44 77 -88 53 -96 c 1
190.019 282.797 m 0
 190.019 254.451 161.263 238 144 238 c 0
 131.385 238 112.275 246.931 112.275 266.988 c 0
 112.275 292.896 139.159 313 160 313 c 0
 177.238 313 190.019 300.371 190.019 282.797 c 0
EndSplineSet
Back
206.055 280.762 m 0
 200.195 256.348 184.57 244.141 159.18 244.141 c 0
 148.926 244.141 140.625 247.559 134.277 254.883 c 0
 127.93 262.207 126.465 270.996 128.906 280.762 c 0
 134.277 304.199 149.902 317.871 174.805 320.801 c 0
 185.547 320.801 193.848 316.895 200.195 309.082 c 0
 206.055 300.781 208.008 291.504 206.055 280.762 c 0
166.016 3.90625 m 0
 161.133 -18.5547 146.484 -40.0391 121.094 -60.0586 c 2
 90.8203 -83.9844 l 2
 86.9141 -86.4258 83.0078 -89.3555 79.1016 -91.3086 c 0
 75.1953 -93.75 70.8008 -95.7031 65.918 -97.168 c 1
 62.9883 -83.0078 l 1
 106.934 -58.1055 131.348 -33.6914 136.23 -8.78906 c 0
 137.207 -2.92969 134.766 0 127.93 0 c 2
 120.117 -0.976562 l 1
 110.84 -1.95312 l 2
 82.5195 -1.95312 70.3125 8.78906 75.1953 30.7617 c 0
 79.5898 57.6172 96.1914 70.8008 124.023 70.8008 c 0
 160.645 70.8008 174.805 48.8281 166.016 3.90625 c 0
EndSplineSet
EndChar
StartChar: less
Encoding: 60 60 29
Width: 385
Flags: W
DStem: 51 152 94 173 365 -5 373 33 441 351 433 313 60 194 94 173
Fore
94 173 m 1
 373 33 l 1
 365 -5 l 1
 51 152 l 1
 60 194 l 1
 441 351 l 1
 433 313 l 1
 94 173 l 1
EndSplineSet
Back
395.996 -3.90625 m 1
 75.1953 154.785 l 1
 83.9844 199.219 l 1
 474.121 359.863 l 1
 464.844 320.801 l 1
 118.164 178.223 l 1
 403.809 34.1797 l 1
 395.996 -3.90625 l 1
EndSplineSet
EndChar
StartChar: equal
Encoding: 61 61 30
Width: 385
Flags: W
HStem: 87 35<45 383> 224 34<74 413>
Fore
420 258 m 1
 413 224 l 1
 68 224 l 1
 75 258 l 1
 420 258 l 1
391 122 m 1
 383 87 l 1
 38 87 l 1
 46 122 l 1
 391 122 l 1
EndSplineSet
Back
444.824 229.98 m 1
 91.7969 229.98 l 1
 99.1211 265.137 l 1
 452.148 265.137 l 1
 444.824 229.98 l 1
415.039 89.8438 m 1
 62.0117 89.8438 l 1
 69.8242 125 l 1
 422.852 125 l 1
 415.039 89.8438 l 1
EndSplineSet
EndChar
StartChar: greater
Encoding: 62 62 31
Width: 385
Flags: W
DStem: 86 313 94 351 365 173 407 194 365 173 398 152 26 33 18 -5
Fore
365 173 m 1
 86 313 l 1
 94 351 l 1
 407 194 l 1
 398 152 l 1
 18 -5 l 1
 26 33 l 1
 365 173 l 1
EndSplineSet
Back
430.176 154.785 m 1
 41.0156 -3.90625 l 1
 48.8281 34.1797 l 1
 396.973 178.223 l 1
 109.863 320.801 l 1
 119.141 359.863 l 1
 438.965 199.219 l 1
 430.176 154.785 l 1
EndSplineSet
EndChar
StartChar: question
Encoding: 63 63 32
Width: 303
Flags: W
HStem: -5 71<161 176> 441 21<239 256>
VStem: 121.015 44.5326<346 394> 121.015 60.6733<346 354> 131.184 74.5805<20.9667 36.5385> 297.631 63.7328<375 382>
Fore
181.689 354.694 m 0
 181.689 337.439 168.057 320 149 320 c 0
 127.928 320 121.015 331.327 121.015 346.735 c 0
 121.015 351.801 121.763 357.309 123 363 c 0
 138 432 209 462 256 462 c 0
 295 462 336 442 348 422 c 0
 356.909 407.364 361.364 395.967 361.364 380.337 c 0
 361.364 322.253 317.852 273.868 282 242 c 0
 236 198 212 171 191 112 c 1
 179 112 l 1
 187 152 213 199 219 209 c 2
 249 253 l 2
 267 280 290 327 295 354 c 0
 296.715 361.811 297.631 369.804 297.631 377.626 c 0
 297.631 410.858 281.093 441 239 441 c 0
 210.612 441 165.548 420.296 165.548 394.98 c 0
 165.548 381.237 181.689 372.905 181.689 354.694 c 0
205.764 36.5385 m 0
 205.764 9.48925 179.304 -5 161 -5 c 0
 147.671 -5 131.184 1.31678 131.184 20.9667 c 0
 131.184 46.8906 155.012 66 176 66 c 0
 194.299 66 205.764 53.0918 205.764 36.5385 c 0
EndSplineSet
Back
368.164 356.934 m 0
 361.816 327.637 336.426 291.504 291.992 248.047 c 2
 258.789 215.82 l 1
 234.863 187.012 l 2
 224.121 174.316 211.426 150.391 196.777 115.234 c 1
 185.059 115.234 l 1
 192.383 148.438 206.543 181.152 227.051 213.867 c 2
 255.859 258.789 l 2
 282.227 300.781 297.852 335.449 304.199 362.793 c 0
 309.57 388.184 307.129 409.668 297.363 426.27 c 0
 287.598 443.359 270.508 452.148 246.094 452.148 c 0
 231.445 452.148 215.82 448.242 200.195 439.941 c 0
 183.105 430.176 173.828 419.434 171.875 409.18 c 0
 170.898 403.809 173.34 395.996 180.176 386.23 c 0
 187.5 374.512 189.941 365.234 187.988 356.934 c 0
 184.57 337.891 173.828 328.125 154.785 328.125 c 0
 131.836 328.125 123.047 342.773 128.906 372.07 c 0
 132.324 387.207 138.184 401.367 146.973 413.574 c 0
 155.762 425.781 166.504 436.523 179.199 444.824 c 0
 191.895 453.613 205.566 460.449 220.215 465.332 c 0
 234.863 470.703 249.512 473.145 265.137 473.145 c 0
 283.691 473.145 302.246 469.238 320.801 460.938 c 1
 341.797 449.219 l 1
 358.887 433.105 l 1
 371.094 410.156 374.023 384.766 368.164 356.934 c 0
211.914 29.7852 m 0
 209.961 20.0195 204.59 12.207 195.312 5.85938 c 0
 186.523 0 176.758 -3.41797 166.992 -3.90625 c 0
 141.602 -5.37109 131.836 5.85938 137.207 29.7852 c 0
 141.602 51.7578 156.738 64.4531 182.129 67.8711 c 0
 191.895 67.8711 200.195 63.9648 206.543 56.6406 c 0
 212.891 48.8281 214.844 40.0391 211.914 29.7852 c 0
EndSplineSet
EndChar
StartChar: at
Encoding: 64 64 33
Width: 628
Flags: W
HStem: -10 27<327 345> 98 22<446 462> 317 30<428 430> 440 22<407 443>
VStem: 120.87 56.2932<162 187> 254.622 50.2108<153 166> 395.44 45.8657<133 146> 583.219 28.3503<287 303>
Fore
449 272 m 1
 450.456 279.037 451.205 285.308 451.205 290.771 c 0
 451.205 307.823 443.905 317 428 317 c 0
 395 317 325 268 307 185 c 0
 305.526 177.446 304.833 170.741 304.833 164.828 c 0
 304.833 138.647 318.422 128 338 128 c 0
 366 128 419 176 449 272 c 1
462 120 m 0
 522.816 120 583.219 216.546 583.219 289.399 c 0
 583.219 361.306 531.26 440 422 440 c 0
 318 440 214 360 181 208 c 0
 178.429 195.529 177.163 183.107 177.163 170.928 c 0
 177.163 88.3827 235.3 17 339 17 c 0
 399 17 438 32 481 50 c 1
 484 29 l 1
 437 10 387 -10 333 -10 c 0
 179.079 -10 120.87 90.1982 120.87 176.147 c 0
 120.87 189.593 122.294 202.69 125 215 c 0
 156 363 291 462 426 462 c 0
 536.462 462 611.569 395.903 611.569 301.442 c 0
 611.569 288.154 610.083 274.305 607 260 c 0
 593 191 528 98 446 98 c 0
 406.377 98 395.44 128.237 395.44 141.606 c 0
 395.44 144.105 395.004 149.013 394 146 c 1
 384.227 134.273 341.118 97.931 303.329 97.931 c 0
 286.227 97.931 254.622 106.163 254.622 153.365 c 0
 254.622 161.906 255.657 171.724 258 183 c 0
 268 231 336 347 428 347 c 0
 459 347 463 328 468 311 c 1
 481 337 l 1
 528 337 l 1
 447 164 l 2
 444.688 159.375 441.306 149.617 441.306 140.463 c 0
 441.306 129.824 445.874 120 462 120 c 0
EndSplineSet
Back
570.801 259.766 m 0
 562.988 219.238 544.434 183.105 516.113 151.855 c 1
 484.863 115.234 449.219 97.168 410.156 97.168 c 0
 390.137 97.168 375.488 104.492 367.188 119.141 c 0
 360.352 127.441 357.91 136.719 359.863 145.996 c 1
 342.773 131.836 l 1
 325.195 119.141 l 2
 316.406 112.793 307.129 108.398 297.852 104.98 c 0
 288.574 101.562 279.297 99.1211 270.02 98.1445 c 1
 226.562 98.1445 210.938 126.465 223.145 183.105 c 0
 226.562 199.219 232.422 215.332 241.211 231.934 c 0
 249.512 248.535 261.23 265.625 275.879 283.203 c 0
 310.547 325.684 349.121 347.168 392.09 347.168 c 1
 409.18 344.238 l 1
 419.434 338.867 427.246 327.637 432.129 311.035 c 1
 444.824 336.914 l 1
 493.164 336.914 l 1
 411.133 164.062 l 1
 405.762 146.973 l 1
 401.855 128.906 408.691 120.117 425.781 120.117 c 0
 440.43 120.117 454.59 125 467.285 134.277 c 0
 480.469 144.043 492.188 156.25 502.93 170.41 c 0
 513.672 185.059 522.461 200.195 529.297 215.82 c 0
 536.621 231.934 541.504 246.094 543.945 258.789 c 0
 549.316 285.156 548.828 309.082 542.48 331.055 c 0
 536.133 353.027 525.391 372.07 510.742 388.184 c 0
 495.605 403.809 477.539 416.504 456.055 425.781 c 0
 434.57 435.547 411.621 439.941 387.207 439.941 c 0
 354.492 439.941 324.707 433.594 297.852 420.898 c 0
 271.484 408.203 247.559 391.602 227.051 370.605 c 0
 206.543 349.609 188.965 325.195 175.293 296.875 c 0
 161.621 269.043 151.855 239.258 145.02 208.008 c 0
 139.16 180.664 138.672 155.273 144.531 131.836 c 0
 150.391 108.887 160.156 88.3789 174.316 70.8008 c 0
 188.965 53.7109 207.031 40.0391 229.004 30.2734 c 0
 250.977 20.9961 275.391 16.1133 301.758 16.1133 c 0
 345.215 16.1133 393.066 27.3438 444.824 49.8047 c 1
 448.242 28.8086 l 1
 416.504 17.0898 388.672 7.8125 363.77 1.46484 c 0
 339.355 -4.88281 317.383 -7.8125 297.852 -7.8125 c 0
 216.797 -7.8125 156.738 17.0898 118.164 67.8711 c 1
 86.4258 111.816 76.6602 160.645 87.8906 213.867 c 0
 104.004 286.133 140.137 345.215 196.777 391.113 c 0
 254.395 437.5 318.848 460.938 391.113 460.938 c 0
 450.195 460.938 498.535 442.871 535.156 407.227 c 0
 572.266 369.141 584.473 319.824 570.801 259.766 c 0
412.109 271.973 m 1
 417.969 301.758 411.133 316.895 392.09 316.895 c 0
 365.234 316.895 339.355 300.781 313.965 269.043 c 0
 290.527 240.234 275.879 212.402 270.02 185.059 c 0
 262.207 146.973 272.461 127.93 300.781 127.93 c 0
 322.266 127.93 346.191 147.461 372.07 186.035 c 0
 381.348 200.684 389.16 215.332 395.508 229.492 c 0
 401.855 243.652 407.227 257.812 412.109 271.973 c 1
EndSplineSet
EndChar
StartChar: A
Encoding: 65 65 34
Width: 492
Flags: W
HStem: 0 13<137 148 311 335> 147 28<184 346> 440 20G<335 349>
DStem: 303 363 349 460 342 175 436 72 335 460 303 363 122 125 184 175
Fore
315.242 12.9952 m 0
 339.901 12.9952 364.798 15.3437 364.798 47.7211 c 0
 364.798 75.569 348.669 135.433 346 147 c 1
 167 147 l 1
 152 124 113 68 108 42 c 0
 107.42 39.4853 107.148 37.1857 107.148 35.0832 c 0
 107.148 15.4477 130.838 13 148 13 c 1
 145 0 l 1
 10 0 l 1
 13 13 l 1
 28 14 39 17 51 28 c 0
 71 45 107 102 122 125 c 1
 335 460 l 1
 349 460 l 1
 436 72 l 2
 444 40 446 16 485 13 c 1
 482 0 l 1
 308 0 l 1
 311 13 l 1
 312.379 13 313.797 12.9952 315.242 12.9952 c 0
342 175 m 1
 303 363 l 1
 184 175 l 1
 342 175 l 1
EndSplineSet
Back
481.934 0 m 1
 311.035 0 l 1
 313.965 12.207 l 1
 335.938 12.207 l 1
 348.145 16.1133 l 2
 357.91 18.5547 363.77 25.8789 366.211 38.0859 c 1
 366.211 53.2227 l 1
 361.816 81.0547 l 1
 349.121 145.02 l 1
 172.852 145.02 l 1
 125 65.918 l 2
 119.141 56.6406 115.234 48.3398 113.77 41.0156 c 0
 109.863 21.4844 123.535 12.207 153.809 12.207 c 1
 150.879 0 l 1
 18.0664 0 l 1
 20.9961 12.207 l 1
 39.5508 12.207 60.5469 26.8555 83.9844 56.1523 c 0
 85.9375 59.5703 90.8203 66.4062 98.1445 77.1484 c 0
 105.469 87.8906 115.234 103.027 126.953 123.047 c 1
 336.914 452.148 l 1
 351.074 452.148 l 1
 437.012 70.8008 l 2
 442.383 47.8516 448.242 32.2266 455.078 23.9258 c 0
 461.426 16.1133 471.68 12.207 484.863 12.207 c 1
 481.934 0 l 1
345.215 172.852 m 1
 307.129 356.934 l 1
 189.941 172.852 l 1
 345.215 172.852 l 1
EndSplineSet
EndChar
StartChar: B
Encoding: 66 66 35
Width: 455
Flags: W
HStem: 0 13<15 35.7153> 0 24.9211<175.545 221> 0 25<204 240> 223 25.9722<194 234.389> 223 26<194 242> 427 25<108 301>
VStem: 354.682 78.9318<142 148> 385.605 71.0291<351 369>
DStem: 157 378 233 406 93 74 200 249 157 378 194 223 93 74 158 53
Fore
431 120 m 0
 412 31 315 0 240 0 c 2
 12 0 l 1
 15 13 l 1
 67 14 82 22 93 74 c 2
 157 378 l 2
 159.785 390.299 161.277 400.067 161.277 407.841 c 0
 161.277 433.569 144.933 437.464 105 439 c 1
 108 452 l 1
 299 452 l 2
 369.112 452 456.634 437.076 456.634 361.18 c 0
 456.634 353.723 455.789 345.678 454 337 c 0
 440 275 398 251 342 238 c 1
 341 237 l 1
 393.411 225.644 433.614 198.265 433.614 144.864 c 0
 433.614 137.132 432.771 128.854 431 120 c 0
284 427 m 0
 259.673 427 238.648 431.414 233 406 c 2
 200 249 l 1
 203.2 249.05 206.488 249.068 209.848 249.068 c 0
 217.69 249.068 225.931 248.972 234.389 248.972 c 0
 294.806 248.972 366.333 253.833 383 333 c 0
 384.768 341.485 385.605 349.276 385.605 356.418 c 0
 385.605 409.88 338.693 427 284 427 c 0
352 123 m 0
 353.823 131.683 354.682 139.612 354.682 146.853 c 0
 354.682 223 259.748 223 194 223 c 1
 158 53 l 2
 157.442 50.1146 157.178 47.5238 157.178 45.1977 c 0
 157.178 26.5851 174.075 24.9211 192.171 24.9211 c 0
 196.111 24.9211 200.108 25 204 25 c 0
 271 25 335 44 352 123 c 0
EndSplineSet
Back
443.848 120.117 m 0
 439.453 101.562 431.152 84.4727 419.434 68.8477 c 0
 407.715 53.7109 393.555 41.0156 376.953 30.2734 c 0
 360.352 20.0195 341.309 12.207 320.312 6.83594 c 0
 299.316 1.46484 276.855 -0.488281 252.93 0 c 2
 23.9258 0 l 1
 26.8555 13.1836 l 1
 40.5273 13.1836 51.2695 13.6719 60.0586 15.625 c 0
 68.8477 17.0898 76.1719 20.0195 82.0312 24.4141 c 0
 87.8906 28.8086 92.7734 35.1562 96.6797 42.9688 c 0
 100.098 50.7812 103.516 61.5234 105.957 74.2188 c 2
 169.922 377.93 l 1
 175.293 401.855 174.805 418.457 168.945 426.758 c 1
 150.879 436.035 l 1
 118.164 439.941 l 1
 120.117 452.148 l 1
 312.012 452.148 l 2
 431.152 452.148 482.91 413.574 466.797 336.914 c 0
 459.473 304.199 442.871 279.785 416.016 263.184 c 0
 405.273 255.859 384.766 247.559 354.98 237.793 c 1
 426.758 222.168 456.543 182.617 443.848 120.117 c 0
395.996 333.008 m 0
 408.691 395.508 375.488 426.758 295.898 426.758 c 2
 266.113 426.758 l 2
 255.371 426.758 248.535 419.922 245.117 405.762 c 1
 211.914 249.023 l 1
 277.832 250 l 2
 344.727 250.488 383.789 278.32 395.996 333.008 c 0
366.211 123.047 m 0
 376.465 172.852 356.934 204.102 307.129 215.82 c 0
 290.527 220.703 256.836 223.145 206.055 223.145 c 1
 169.922 54.1992 l 1
 167.969 40.0391 172.363 30.7617 183.105 26.8555 c 0
 185.547 26.3672 189.453 25.8789 194.824 25.3906 c 0
 200.195 25.3906 207.52 24.9023 216.797 24.9023 c 0
 302.246 24.9023 352.051 57.6172 366.211 123.047 c 0
EndSplineSet
EndChar
StartChar: C
Encoding: 67 67 36
Width: 455
Flags: W
HStem: -10 30<245 270> 308 131<464 488> 434 28<331.415 364>
VStem: 59.9538 78.7757<149 183>
Fore
448 77 m 1
 398 20 311 -10 245 -10 c 0
 126.219 -10 59.9538 58.1279 59.9538 163.296 c 0
 59.9538 182.969 62.2725 203.938 67 226 c 0
 96 361 213 462 349 462 c 0
 373 462 395 458 418 452 c 0
 428 449 454 439 464 439 c 0
 480 439 493 446 501 462 c 1
 515 462 l 1
 488 308 l 1
 473 308 l 1
 472 384 429 434 349 434 c 0
 310 434 272 419 239 393 c 0
 183 350 158 284 146 225 c 0
 141.261 203.159 138.729 181.615 138.729 161.173 c 0
 138.729 82.4054 176.314 20 270 20 c 0
 333 20 386 46 439 89 c 1
 448 77 l 1
EndSplineSet
Back
456.055 75.1953 m 1
 445.312 61.5234 427.246 47.3633 401.855 32.2266 c 0
 356.445 5.37109 307.617 -7.8125 254.883 -7.8125 c 0
 186.523 -7.8125 136.23 12.207 104.004 53.2227 c 1
 73.2422 95.2148 65.4297 150.879 81.0547 221.191 c 0
 88.3789 253.906 100.098 284.18 116.211 312.012 c 0
 131.836 339.844 153.809 365.723 181.152 389.16 c 0
 236.328 436.523 295.41 457.52 357.91 453.125 c 2
 393.066 450.195 l 2
 398.438 449.219 404.297 448.73 411.621 447.266 c 0
 418.457 446.289 425.781 444.824 433.105 442.871 c 2
 473.145 431.152 l 1
 487.793 431.152 499.512 438.477 507.812 453.125 c 1
 520.996 453.125 l 1
 495.117 303.223 l 1
 480.957 303.223 l 1
 480.957 342.285 470.703 372.559 449.707 394.043 c 0
 428.711 415.527 398.438 425.781 358.887 425.781 c 0
 333.008 425.781 308.594 420.898 286.133 410.156 c 0
 263.184 399.414 243.164 382.812 225.098 360.84 c 0
 192.871 324.219 170.898 276.855 159.18 219.238 c 0
 152.832 190.918 150.879 165.527 151.855 142.578 c 0
 153.32 119.629 158.691 98.6328 167.969 80.0781 c 0
 188.477 39.5508 226.074 19.043 279.785 19.043 c 0
 334.473 19.043 389.648 41.5039 444.824 86.9141 c 1
 456.055 75.1953 l 1
EndSplineSet
EndChar
StartChar: D
Encoding: 68 68 37
Width: 492
Flags: W
HStem: 0 13<14 31.5812> 0 25<170 207> 427 25<107 293>
VStem: 447.255 75.2374<271 289>
DStem: 151 378 226 400 87 74 152 53
Fore
516 225 m 0
 483 72 347 0 205 0 c 2
 11 0 l 1
 14 13 l 1
 63 14 77 26 87 74 c 2
 151 378 l 2
 153.764 390.563 155.328 400.475 155.328 408.322 c 0
 155.328 431.705 141.437 436.754 104 439 c 1
 107 452 l 1
 291 452 l 2
 421.27 452 522.492 403.844 522.492 282.136 c 0
 522.492 264.636 520.4 245.616 516 225 c 0
441 224 m 0
 445.049 243 447.255 261.126 447.255 278.349 c 0
 447.255 316.423 436.476 350.082 411 379 c 0
 374 420 322 427 264 427 c 0
 241 427 231 423 226 400 c 2
 152 53 l 2
 151.178 49.1651 150.788 45.8555 150.788 42.9991 c 0
 150.788 25 166.287 25 187 25 c 0
 316 25 411 84 441 224 c 0
EndSplineSet
Back
528.809 225.098 m 0
 516.113 166.992 488.281 118.164 444.824 78.125 c 0
 388.184 25.8789 312.5 0 217.773 0 c 2
 22.9492 0 l 1
 25.8789 13.1836 l 1
 45.4102 13.1836 62.9883 17.0898 79.1016 25.8789 c 1
 88.3789 36.1328 95.2148 51.7578 100.098 74.2188 c 2
 165.039 378.906 l 2
 170.41 402.832 169.922 418.945 164.062 426.758 c 0
 162.598 428.223 160.645 430.176 158.203 432.129 c 0
 155.273 434.082 151.855 435.547 146.973 437.012 c 2
 117.188 439.941 l 1
 119.141 453.125 l 1
 304.199 453.125 l 2
 386.23 453.125 446.777 435.547 485.84 400.879 c 0
 530.762 362.793 544.922 304.199 528.809 225.098 c 0
455.078 225.098 m 0
 469.238 292.48 458.984 343.262 424.805 377.93 c 0
 393.555 411.133 344.238 428.223 275.879 428.223 c 0
 263.184 428.223 253.906 425.781 247.07 420.898 c 0
 244.141 418.457 241.211 411.621 237.793 400.879 c 1
 164.062 54.1992 l 1
 162.109 41.5039 164.551 32.7148 170.898 27.832 c 0
 176.27 25.8789 185.547 24.9023 199.219 24.9023 c 0
 341.797 24.9023 426.758 91.7969 455.078 225.098 c 0
EndSplineSet
EndChar
StartChar: E
Encoding: 69 69 38
Width: 417
Flags: W
HStem: 0 25.7008<183 377> 223 28<190 313> 354 98<104 448> 426 26<104 379>
DStem: 148 378 223 403 84 74 190 251 148 378 184 223 84 74 149 55
Fore
432 115 m 1
 377 0 l 1
 8 0 l 1
 11 13 l 1
 58 16 73 25 84 74 c 2
 148 378 l 2
 150.56 389.405 151.929 398.644 151.929 406.143 c 0
 151.929 430.865 137.06 436.698 101 439 c 1
 104 452 l 1
 467 452 l 1
 448 354 l 1
 431 354 l 1
 431.149 357.43 431.224 360.697 431.224 363.809 c 0
 431.224 423.291 403.818 426 343 426 c 2
 251 426 l 2
 232 426 227 423 223 403 c 2
 190 251 l 1
 295 251 l 2
 351 251 365 263 385 316 c 1
 400 316 l 1
 367 158 l 1
 352 158 l 1
 352.161 162.339 352.25 166.4 352.25 170.2 c 0
 352.25 213.697 340.501 223 289 223 c 2
 184 223 l 1
 149 55 l 2
 147.903 51.1599 147.107 47.0189 147.107 43.4024 c 0
 147.107 40.4264 147.646 37.8057 149 36 c 0
 153.105 27.1053 189.981 25.7008 217.345 25.7008 c 0
 229.975 25.7008 240.579 26 245 26 c 0
 324 26 365 41 413 115 c 1
 432 115 l 1
EndSplineSet
Back
454.102 115.234 m 1
 398.926 0 l 1
 28.8086 0 l 1
 32.2266 13.1836 l 1
 55.1758 13.1836 71.7773 17.0898 81.543 25.8789 c 0
 91.3086 34.668 98.6328 50.7812 104.004 74.2188 c 1
 168.945 378.906 l 1
 174.316 406.25 173.34 422.852 166.016 429.199 c 1
 149.902 436.035 l 1
 123.047 439.941 l 1
 125 453.125 l 1
 488.77 453.125 l 1
 470.215 354.98 l 1
 453.125 354.98 l 1
 455.078 387.695 449.219 408.203 435.059 416.992 c 0
 422.363 424.316 398.438 428.223 363.77 428.223 c 2
 271.973 428.223 l 2
 264.648 428.223 258.789 426.758 254.883 424.805 c 0
 250.488 420.898 247.07 414.062 245.117 403.809 c 2
 212.891 251.953 l 1
 317.871 251.953 l 2
 345.215 251.953 363.77 255.859 374.023 264.16 c 0
 385.254 271.973 395.996 289.551 405.762 316.895 c 1
 422.852 316.895 l 1
 390.137 159.18 l 1
 373.047 159.18 l 1
 375 187.5 372.07 205.078 363.77 210.938 c 1
 357.91 219.238 340.332 223.145 311.035 223.145 c 2
 206.055 223.145 l 1
 170.898 55.1758 l 1
 166.992 37.5977 178.223 27.3438 205.078 23.9258 c 0
 198.242 24.9023 200.195 25.3906 209.961 25.3906 c 0
 220.215 25.8789 238.77 25.8789 267.09 25.8789 c 0
 309.57 25.8789 341.309 31.25 361.816 41.9922 c 0
 374.512 48.8281 387.207 58.1055 398.926 69.8242 c 0
 411.133 82.0312 422.852 97.168 434.082 115.234 c 1
 454.102 115.234 l 1
EndSplineSet
EndChar
StartChar: F
Encoding: 70 70 39
Width: 379
Flags: W
HStem: 0 21G<8 199> 223 28<190 297> 354 98<104 448> 426 26<104 379>
DStem: 148 378 223 403 85 82 190 251 148 378 185 224 85 82 153 74
Fore
448 354 m 1
 431 354 l 1
 431.149 357.43 431.224 360.697 431.224 363.809 c 0
 431.224 423.291 403.818 426 343 426 c 2
 250 426 l 2
 232 426 226 421 223 403 c 2
 190 251 l 1
 289 251 l 2
 343 251 361 263 378 316 c 1
 394 316 l 1
 361 158 l 1
 345 158 l 1
 345.642 165.06 345.987 171.362 345.987 176.986 c 0
 345.987 215.179 330.068 222.128 283 223 c 2
 185 224 l 1
 153 74 l 2
 150.527 62.7578 149.216 53.5884 149.216 46.1052 c 0
 149.216 20.3067 164.792 14.5503 202 13 c 1
 199 0 l 1
 8 0 l 1
 11 13 l 1
 65 16 74 30 85 82 c 2
 148 378 l 2
 150.56 389.405 151.929 398.644 151.929 406.143 c 0
 151.929 430.865 137.06 436.698 101 439 c 1
 104 452 l 1
 467 452 l 1
 448 354 l 1
EndSplineSet
Back
459.961 354.98 m 1
 442.871 354.98 l 1
 445.801 387.207 439.453 407.227 423.828 416.016 c 0
 412.598 423.34 389.648 426.758 354.98 426.758 c 2
 262.207 426.758 l 2
 248.047 426.758 239.258 418.945 235.84 402.832 c 2
 204.102 251.953 l 1
 301.758 251.953 l 2
 315.43 251.953 326.66 252.93 336.426 254.883 c 0
 346.191 256.836 354.492 260.742 360.84 265.625 c 0
 367.676 270.508 373.535 276.855 377.93 285.156 c 0
 382.812 292.969 386.719 303.223 390.137 315.918 c 1
 405.762 315.918 l 1
 373.047 158.203 l 1
 356.934 158.203 l 1
 360.352 183.105 357.91 200.684 349.121 209.473 c 0
 340.332 218.262 322.266 223.145 294.922 223.145 c 2
 198.242 225.098 l 1
 166.016 74.2188 l 1
 160.645 50.7812 161.621 34.668 168.457 25.8789 c 0
 175.293 17.0898 190.43 13.1836 213.867 13.1836 c 1
 210.938 0 l 1
 20.0195 0 l 1
 22.9492 13.1836 l 1
 48.3398 13.1836 65.4297 18.5547 75.1953 28.8086 c 0
 83.4961 37.5977 90.8203 55.1758 96.1914 82.0312 c 1
 159.18 377.93 l 1
 165.039 403.32 164.551 419.922 157.227 428.223 c 1
 141.113 436.035 l 1
 113.77 439.941 l 1
 116.211 452.148 l 1
 479.004 452.148 l 1
 459.961 354.98 l 1
EndSplineSet
EndChar
StartChar: G
Encoding: 71 71 40
Width: 492
Flags: W
HStem: -10 28<266 286> 434 28<348 366>
VStem: 61.9655 77.8252<149 179>
DStem: 406 169 474 177 382 58 445 40
Fore
533 229 m 1
 494 227 482 217 474 177 c 2
 445 40 l 2
 442 26 344 0 331 -3 c 0
 310 -7 289 -10 268 -10 c 0
 199 -10 131 12 93 64 c 0
 70.4228 93.1127 61.9655 123.284 61.9655 157.242 c 0
 61.9655 180.438 65.9121 205.401 72 233 c 0
 99 363 224 462 353 462 c 0
 380 462 406 457 430 451 c 0
 442 447 458 439 471 439 c 0
 485 439 501 447 508 462 c 1
 523 462 l 1
 498 318 l 1
 482 318 l 1
 471 388 437 434 357 434 c 0
 237 434 169 323 146 218 c 0
 141.889 198.518 139.791 179.61 139.791 161.695 c 0
 139.791 79.3771 184.091 18 281 18 c 0
 303 18 375 25 382 58 c 2
 406 169 l 2
 408.695 181.739 410.189 191.718 410.189 199.553 c 0
 410.189 223.7 395.996 227.49 359 229 c 1
 361 242 l 1
 535 242 l 1
 533 229 l 1
EndSplineSet
Back
538.086 226.074 m 1
 518.555 224.121 506.836 221.191 501.953 216.797 c 0
 492.188 208.984 484.863 194.336 479.98 172.852 c 2
 451.172 39.0625 l 2
 449.707 33.6914 442.383 28.8086 429.688 23.9258 c 0
 416.504 19.5312 396.973 13.1836 371.094 5.85938 c 1
 348.145 1.95312 329.102 -1.46484 313.477 -3.90625 c 0
 297.852 -6.83594 285.645 -7.8125 276.855 -7.8125 c 0
 195.801 -7.8125 137.695 15.1367 103.027 62.0117 c 0
 91.7969 77.1484 83.9844 94.2383 79.5898 112.305 c 0
 75.1953 130.859 73.2422 150.879 74.2188 171.875 c 0
 74.2188 179.199 74.707 187.988 76.6602 197.266 c 0
 78.125 207.031 80.5664 217.773 83.0078 229.004 c 0
 96.1914 294.434 129.883 348.145 184.082 390.137 c 0
 237.793 432.617 297.363 454.102 361.816 454.102 c 0
 386.23 454.102 411.133 451.172 437.012 444.824 c 1
 477.051 431.152 l 1
 494.141 431.152 506.836 438.477 514.16 454.102 c 1
 527.832 454.102 l 1
 502.93 312.012 l 1
 487.793 312.012 l 1
 475.098 388.672 434.57 426.758 366.211 426.758 c 0
 309.57 426.758 262.207 404.785 224.121 359.863 c 0
 191.895 321.289 169.922 272.949 158.203 214.844 c 0
 151.855 187.012 149.902 161.133 151.367 137.695 c 0
 153.32 113.77 159.18 93.2617 169.922 76.1719 c 0
 194.824 36.6211 234.375 17.0898 289.062 17.0898 c 0
 297.852 17.0898 306.641 18.0664 315.918 19.5312 c 0
 325.195 20.9961 334.473 22.9492 344.238 24.9023 c 0
 371.094 30.7617 386.719 41.5039 390.137 56.1523 c 1
 413.086 166.016 l 2
 418.457 190.43 418.457 207.52 413.086 215.82 c 1
 395.02 223.145 l 2
 390.137 225.098 381.348 226.074 368.164 226.074 c 1
 371.094 237.793 l 1
 541.016 237.793 l 1
 538.086 226.074 l 1
EndSplineSet
EndChar
StartChar: H
Encoding: 72 72 41
Width: 492
Flags: W
HStem: 215 30<195 396>
DStem: 153 378 223 378 90 82 195 245 153 378 189 215 90 82 159 74 396 215 499 378 367 82 435 74 430 378 499 378 402 245 435 74
Fore
479 0 m 1
 290 0 l 1
 293 13 l 1
 348 16 356 30 367 82 c 2
 396 215 l 1
 189 215 l 1
 159 74 l 2
 156.305 61.9955 154.811 52.3918 154.811 44.6889 c 0
 154.811 20.9503 169.005 15.265 206 13 c 1
 203 0 l 1
 13 0 l 1
 16 13 l 1
 72 16 79 30 90 82 c 2
 153 378 l 2
 155.695 390.494 157.189 400.288 157.189 408.013 c 0
 157.189 431.82 142.995 435.98 106 439 c 1
 109 452 l 1
 299 452 l 1
 296 439 l 1
 246 436 234 428 223 378 c 2
 195 245 l 1
 402 245 l 1
 430 378 l 2
 432.627 390.18 434.056 399.793 434.056 407.425 c 0
 434.056 431.752 419.537 435.955 383 439 c 1
 386 452 l 1
 575 452 l 1
 572 439 l 1
 522 436 510 428 499 378 c 2
 435 74 l 2
 432.305 61.9955 430.811 52.3918 430.811 44.6889 c 0
 430.811 20.9503 445.004 15.265 482 13 c 1
 479 0 l 1
EndSplineSet
Back
493.164 0 m 1
 303.223 0 l 1
 306.152 13.1836 l 1
 330.566 13.1836 349.121 18.5547 360.84 28.8086 c 0
 367.676 35.6445 374.023 53.2227 379.883 82.0312 c 2
 409.18 214.844 l 1
 201.172 214.844 l 1
 170.898 74.2188 l 2
 166.504 52.7344 166.504 37.1094 171.875 26.8555 c 0
 173.34 24.9023 179.199 21.4844 188.965 17.0898 c 1
 219.238 13.1836 l 1
 215.82 0 l 1
 24.9023 0 l 1
 27.832 13.1836 l 1
 52.7344 13.1836 70.8008 18.5547 83.0078 28.8086 c 0
 91.7969 37.5977 98.1445 55.1758 103.027 82.0312 c 1
 166.992 378.906 l 2
 172.363 402.832 171.875 418.945 166.016 426.758 c 0
 164.551 428.223 162.598 430.176 160.156 432.129 c 0
 157.227 434.082 153.809 435.547 148.926 437.012 c 2
 119.141 440.918 l 1
 121.094 453.125 l 1
 312.012 453.125 l 1
 310.059 440.918 l 1
 297.363 440.918 286.621 439.941 278.32 438.477 c 0
 270.02 437.012 263.184 433.594 257.812 429.199 c 0
 252.441 424.316 248.535 417.969 245.117 410.156 c 0
 241.699 401.855 238.77 391.602 235.84 378.906 c 2
 207.031 246.094 l 1
 415.039 246.094 l 1
 443.848 378.906 l 1
 450.684 413.086 444.824 432.129 425.781 437.012 c 1
 396.973 440.918 l 1
 398.926 453.125 l 1
 588.867 453.125 l 1
 586.914 440.918 l 1
 562.988 440.918 546.387 436.523 536.621 428.223 c 0
 526.855 419.434 519.531 402.832 514.16 378.906 c 2
 449.219 74.2188 l 1
 443.848 50.7812 444.336 34.668 451.172 25.8789 c 0
 457.52 17.0898 472.656 13.1836 496.094 13.1836 c 1
 493.164 0 l 1
EndSplineSet
EndChar
StartChar: I
Encoding: 73 73 42
Width: 227
Flags: W
HStem: 0 13<15 36.3875 203 218> 432 20G<108 311>
DStem: 159 378 228 378 95 74 164 74
Fore
215 0 m 1
 12 0 l 1
 15 13 l 1
 67 14 83 21 95 74 c 2
 159 378 l 2
 161.636 389.86 163.017 399.357 163.017 406.977 c 0
 163.017 434.052 145.579 437.439 105 439 c 1
 108 452 l 1
 311 452 l 1
 308 439 l 1
 258 437 240 432 228 378 c 2
 164 74 l 2
 161.485 62.8923 160.2 53.805 160.2 46.3701 c 0
 160.2 18.3294 178.479 13.7904 218 13 c 1
 215 0 l 1
EndSplineSet
Back
227.051 0 m 1
 24.9023 0 l 1
 27.832 13.1836 l 1
 41.5039 13.1836 52.2461 13.6719 61.0352 15.625 c 0
 69.8242 17.0898 76.6602 20.0195 82.5195 24.4141 c 0
 88.3789 28.8086 92.7734 35.1562 96.6797 42.9688 c 0
 100.098 50.7812 103.516 61.5234 105.957 74.2188 c 2
 169.922 377.93 l 2
 174.805 400.879 174.805 416.992 170.898 426.758 c 1
 162.109 435.547 145.02 439.941 119.141 439.941 c 1
 121.094 452.148 l 1
 323.242 452.148 l 1
 320.801 439.941 l 1
 297.852 439.941 279.297 436.523 266.113 429.199 c 1
 255.371 420.898 247.07 403.809 241.211 377.93 c 1
 176.758 74.2188 l 2
 171.875 48.8281 172.852 32.2266 180.176 24.4141 c 0
 187.5 16.6016 204.102 13.1836 229.98 13.1836 c 1
 227.051 0 l 1
EndSplineSet
EndChar
StartChar: J
Encoding: 74 74 43
Width: 265
Flags: W
HStem: -10 26<73 97> -10 84<54 73> 432 20G<153 349>
DStem: 200 378 270 378 133 61 217 125
Fore
14.8417 29.7613 m 0
 14.8417 53.982 34.6413 74 54 74 c 0
 100 74 71 16 97 16 c 0
 121 16 129 42 133 61 c 2
 200 378 l 2
 202.526 389.711 203.892 399.102 203.892 406.657 c 0
 203.892 432.004 188.519 436.689 150 439 c 1
 153 452 l 1
 349 452 l 1
 346 439 l 1
 295 436 281 430 270 378 c 2
 217 125 l 2
 200 49 154 -10 73 -10 c 0
 45.9529 -10 14.8417 0.56675 14.8417 29.7613 c 0
EndSplineSet
Back
351.074 439.941 m 1
 315.43 439.941 293.457 430.176 284.18 410.156 c 0
 279.785 402.832 276.855 392.09 274.902 378.906 c 1
 221.191 125 l 1
 211.426 84.9609 195.801 53.2227 172.852 28.8086 c 1
 146.973 4.39453 115.234 -7.8125 77.1484 -7.8125 c 0
 59.5703 -7.8125 45.4102 -4.88281 34.1797 1.95312 c 0
 20.0195 10.7422 15.1367 23.4375 19.043 40.0391 c 0
 20.5078 47.8516 25.3906 55.6641 33.6914 62.9883 c 0
 41.9922 70.3125 49.8047 74.2188 58.1055 74.2188 c 0
 71.2891 74.2188 80.0781 68.8477 83.9844 59.082 c 1
 88.8672 30.7617 l 1
 90.332 20.9961 94.2383 16.1133 100.098 16.1133 c 0
 118.652 16.1133 130.859 31.25 137.207 62.0117 c 1
 205.078 378.906 l 2
 210.449 404.297 209.473 420.898 202.637 428.711 c 0
 195.312 436.035 179.199 439.941 153.809 439.941 c 1
 155.762 453.125 l 1
 353.027 453.125 l 1
 351.074 439.941 l 1
EndSplineSet
EndChar
StartChar: K
Encoding: 75 75 44
Width: 492
Flags: W
HStem: 0 12.8658<288.011 313.365 486 494> 432 20G<119 313 378 557>
DStem: 165 378 234 378 102 82 205 238 165 378 197 202 102 82 170 74
Fore
494 0 m 1
 285 0 l 1
 288 13 l 1
 301.668 14.0514 339.395 10.6731 339.395 33.721 c 0
 339.395 72.8526 230.567 199.566 218 216 c 1
 197 202 l 1
 170 74 l 2
 167.398 62.1708 165.971 52.6364 165.971 44.9467 c 0
 165.971 20.1333 180.829 14.5268 219 13 c 1
 216 0 l 1
 23 0 l 1
 26 13 l 1
 82 16 91 29 102 82 c 2
 165 378 l 2
 167.537 389.763 168.904 399.186 168.904 406.758 c 0
 168.904 432.016 153.698 436.692 116 439 c 1
 119 452 l 1
 313 452 l 1
 310 439 l 1
 260 436 245 430 234 378 c 2
 205 238 l 1
 249 271 370 356 405 396 c 0
 410.721 402.865 417.539 411.458 417.539 422.647 c 0
 417.539 440.582 389.828 438.073 375 439 c 1
 378 452 l 1
 557 452 l 1
 554 439 l 1
 500 435 485 423 439 386 c 2
 282 257 l 1
 404 87 l 2
 424.369 58.8709 450.384 12.8658 492.994 12.8658 c 0
 494.313 12.8658 495.649 12.9099 497 13 c 1
 494 0 l 1
EndSplineSet
Back
506.836 0 m 1
 298.828 0 l 1
 301.758 13.1836 l 1
 332.031 13.1836 349.121 18.5547 353.027 29.7852 c 0
 356.934 47.3633 335.449 85.4492 289.062 145.02 c 1
 229.98 216.797 l 1
 209.961 202.148 l 1
 183.105 74.2188 l 1
 177.734 50.7812 178.223 34.668 184.082 25.8789 c 1
 199.219 16.1133 l 1
 207.031 14.1602 217.773 13.1836 230.957 13.1836 c 1
 228.027 0 l 1
 36.1328 0 l 1
 39.0625 13.1836 l 1
 62.9883 13.1836 81.543 18.5547 95.2148 29.7852 c 0
 102.539 36.6211 108.887 54.1992 113.77 82.0312 c 1
 176.758 377.93 l 2
 182.129 401.855 181.641 418.457 175.293 426.758 c 0
 168.945 435.547 153.809 439.941 129.883 439.941 c 1
 131.836 453.125 l 1
 326.172 453.125 l 1
 324.219 439.941 l 1
 303.223 439.941 285.156 435.547 270.02 426.758 c 1
 260.742 419.434 252.93 403.32 247.07 377.93 c 1
 217.773 238.77 l 1
 308.105 307.129 l 1
 391.113 371.094 l 2
 414.551 389.648 427.734 405.273 431.152 417.969 c 0
 433.594 432.617 419.434 439.941 389.16 439.941 c 1
 391.113 453.125 l 1
 569.824 453.125 l 1
 567.871 439.941 l 1
 556.641 439.941 546.875 438.477 539.062 436.035 c 2
 516.113 430.176 l 1
 500 422.852 478.516 408.203 452.148 386.23 c 2
 294.922 257.812 l 1
 444.824 50.7812 l 1
 462.891 30.7617 l 2
 475.098 19.043 490.723 13.1836 509.766 13.1836 c 1
 506.836 0 l 1
EndSplineSet
EndChar
StartChar: L
Encoding: 76 76 45
Width: 417
Flags: W
HStem: 0 26.036<168.213 265> 432 20G<104 297>
DStem: 148 378 217 378 84 74 149 55
Fore
212 27 m 0
 309.332 27 355.236 25.3639 416 119 c 1
 433 119 l 1
 376 0 l 1
 8 0 l 1
 11 13 l 1
 58 16 73 25 84 74 c 2
 148 378 l 2
 150.56 389.405 151.929 398.644 151.929 406.143 c 0
 151.929 430.865 137.06 436.698 101 439 c 1
 104 452 l 1
 297 452 l 1
 294 439 l 1
 245 436 228 429 217 378 c 2
 149 55 l 2
 148.362 52.0475 148.061 49.3879 148.061 46.9933 c 0
 148.061 29.2001 164.674 26.036 182.891 26.036 c 0
 192.947 26.036 203.491 27 212 27 c 0
EndSplineSet
Back
456.055 119.141 m 1
 397.949 0 l 1
 28.8086 0 l 1
 32.2266 13.1836 l 1
 55.1758 13.1836 71.7773 17.0898 81.543 25.8789 c 0
 91.3086 34.668 98.6328 50.7812 104.004 74.2188 c 1
 168.945 378.906 l 1
 174.316 406.25 173.34 422.852 166.016 429.199 c 1
 149.902 436.035 l 1
 123.047 439.941 l 1
 125 453.125 l 1
 318.848 453.125 l 1
 316.895 439.941 l 1
 284.18 437.012 l 1
 264.16 429.199 l 1
 253.418 420.898 245.117 404.297 240.234 378.906 c 2
 170.898 55.1758 l 1
 167.48 43.457 169.434 36.1328 175.781 32.2266 c 0
 178.711 29.7852 186.523 28.3203 199.219 26.8555 c 0
 201.172 26.3672 205.566 25.8789 211.914 25.8789 c 2
 232.91 25.8789 l 2
 292.969 25.8789 332.52 30.2734 352.051 39.0625 c 0
 381.836 51.7578 410.645 78.125 437.988 119.141 c 1
 456.055 119.141 l 1
EndSplineSet
EndChar
StartChar: M
Encoding: 77 77 46
Width: 607
Flags: W
HStem: 0 21G<8 169 276 285 398 589> 373 79<106 185>
DStem: 154 378 183 373 95 100 125 100 185 373 241 452 276 0 325 107 543 389 610 378 477 82 546 74 549 452 542 389 325 107 285 0
Fore
589 0 m 1
 398 0 l 1
 401 13 l 1
 456 16 466 28 477 82 c 2
 543 389 l 1
 542 389 l 1
 285 0 l 1
 276 0 l 1
 185 373 l 1
 183 373 l 1
 125 100 l 2
 121.449 82.5688 118.732 67.5342 118.732 55.098 c 0
 118.732 29.0082 130.691 14.3544 172 13 c 1
 169 0 l 1
 8 0 l 1
 11 13 l 1
 75 17 83 42 95 100 c 2
 154 378 l 2
 156.667 389.778 158.049 399.185 158.049 406.727 c 0
 158.049 433.123 141.111 436.667 103 439 c 1
 106 452 l 1
 241 452 l 1
 325 107 l 1
 549 452 l 1
 685 452 l 1
 682 439 l 1
 635 436 621 427 610 378 c 2
 546 74 l 2
 543.36 62.2416 541.93 52.7865 541.93 45.1651 c 0
 541.93 21.0261 556.279 15.2801 592 13 c 1
 589 0 l 1
EndSplineSet
Back
601.074 0 m 1
 410.156 0 l 1
 413.086 13.1836 l 1
 438.965 13.1836 457.52 18.0664 467.773 27.832 c 0
 477.539 38.0859 484.375 56.1523 488.77 82.0312 c 1
 554.199 388.184 l 1
 297.852 0 l 1
 288.086 0 l 1
 195.801 373.047 l 1
 137.207 100.098 l 2
 130.371 68.8477 128.906 47.3633 132.812 36.1328 c 0
 137.695 20.5078 154.785 13.1836 184.082 13.1836 c 1
 181.152 0 l 1
 20.0195 0 l 1
 22.9492 13.1836 l 1
 52.2461 13.1836 72.7539 20.5078 83.9844 36.1328 c 0
 91.7969 45.8984 99.6094 67.3828 106.934 100.098 c 1
 166.016 376.953 l 1
 171.875 402.344 170.898 418.945 163.086 426.758 c 0
 160.156 429.688 154.785 432.129 145.996 435.059 c 1
 115.234 438.965 l 1
 118.164 452.148 l 1
 251.953 452.148 l 1
 336.914 106.934 l 1
 561.035 452.148 l 1
 696.777 452.148 l 1
 693.848 438.965 l 1
 670.898 438.965 654.297 434.57 644.531 425.293 c 0
 634.766 416.504 627.441 400.391 622.07 376.953 c 1
 558.105 74.2188 l 1
 550.781 41.5039 556.152 21.9727 575.195 16.1133 c 1
 604.004 13.1836 l 1
 601.074 0 l 1
EndSplineSet
EndChar
StartChar: N
Encoding: 78 78 47
Width: 492
Flags: W
HStem: -8 21G<404 416> 0 21G<8 169> 439 13<104 116.194>
DStem: 159 401 182 367 95 100 125 100 184 367 221 452 404 -8 412 124 463 352 493 352 414 124 416 -8
Fore
576 439 m 1
 515 433 505 411 493 352 c 2
 416 -8 l 1
 404 -8 l 1
 184 367 l 1
 182 367 l 1
 125 100 l 2
 121.449 82.5688 118.732 67.5342 118.732 55.098 c 0
 118.732 29.0082 130.691 14.3544 172 13 c 1
 169 0 l 1
 8 0 l 1
 11 13 l 1
 75 17 83 42 95 100 c 2
 159 401 l 1
 144 427 135 439 101 439 c 1
 104 452 l 1
 221 452 l 1
 412 124 l 1
 414 124 l 1
 463 352 l 2
 466.782 370.595 469.472 385.714 469.472 397.826 c 0
 469.472 424.142 456.774 436.261 415 439 c 1
 418 452 l 1
 579 452 l 1
 576 439 l 1
EndSplineSet
Back
590.82 439.941 m 1
 564.453 439.941 543.945 431.641 529.785 415.039 c 0
 520.02 402.344 512.207 381.348 505.859 352.051 c 2
 430.176 -5.85938 l 1
 418.945 -5.85938 l 1
 195.801 368.164 l 1
 138.184 101.074 l 1
 131.348 68.8477 129.883 47.3633 133.789 36.1328 c 0
 138.672 20.5078 155.762 13.1836 185.059 13.1836 c 1
 182.129 0 l 1
 20.0195 0 l 1
 22.9492 13.1836 l 1
 51.7578 13.1836 72.2656 20.5078 84.9609 36.1328 c 0
 92.7734 45.8984 100.586 67.8711 107.91 101.074 c 2
 172.852 402.832 l 1
 159.18 427.734 139.16 439.941 113.77 439.941 c 1
 116.211 453.125 l 1
 233.887 453.125 l 1
 425.781 124.023 l 1
 477.051 352.051 l 1
 483.887 383.789 484.863 405.762 480.957 416.992 c 0
 474.121 432.129 457.031 439.941 429.199 439.941 c 1
 431.152 453.125 l 1
 592.773 453.125 l 1
 590.82 439.941 l 1
EndSplineSet
EndChar
StartChar: O
Encoding: 79 79 48
Width: 492
Flags: W
HStem: -10 25<239 257> 437 25<335 353>
VStem: 64.6595 75.5985<147 169> 448.418 75.9187<277 302>
Fore
518 225 m 0
 490 93 380 -10 244 -10 c 0
 129.521 -10 64.6595 64.0662 64.6595 167.075 c 0
 64.6595 185.54 66.7438 204.935 71 225 c 0
 99 358 209 462 344 462 c 0
 459.344 462 524.337 387.192 524.337 283.331 c 0
 524.337 264.731 522.253 245.2 518 225 c 0
249 15 m 0
 381.156 15 448.418 181.635 448.418 300.423 c 0
 448.418 371.685 421.976 437 339 437 c 0
 209.267 437 140.258 269.368 140.258 149.032 c 0
 140.258 78.4898 166.112 15 249 15 c 0
EndSplineSet
Back
530.762 225.098 m 0
 517.09 157.715 484.863 101.562 434.082 57.1289 c 0
 384.766 13.6719 326.172 -7.8125 257.812 -7.8125 c 0
 190.43 -7.8125 141.113 13.6719 109.863 57.1289 c 0
 78.6133 100.098 69.8242 156.25 83.9844 225.098 c 0
 98.1445 292.48 130.859 348.633 182.129 394.043 c 0
 231.445 438.477 290.039 460.938 357.91 460.938 c 0
 425.781 460.938 475.098 438.477 505.859 394.043 c 0
 536.621 350.586 544.922 294.434 530.762 225.098 c 0
453.125 226.074 m 0
 464.844 281.25 464.844 328.125 453.125 366.211 c 1
 435.547 413.574 402.344 437.012 353.027 437.012 c 0
 301.758 437.012 258.301 413.574 223.145 367.188 c 0
 194.336 330.566 173.828 283.203 162.109 226.074 c 0
 149.902 169.922 150.391 123.535 163.086 85.9375 c 0
 178.223 38.0859 211.426 14.1602 263.184 14.1602 c 0
 313.477 14.1602 356.934 38.0859 393.066 85.9375 c 0
 420.898 124.023 440.918 170.898 453.125 226.074 c 0
EndSplineSet
EndChar
StartChar: P
Encoding: 80 80 49
Width: 379
Flags: W
HStem: 0 13<186 205> 197 27<200 236> 427 25<107 268>
VStem: 368.649 74.0767<337.67 356>
DStem: 148 378 224 404 85 82 186 226 148 378 180 199 85 82 154 74
Fore
442.726 353.919 m 0
 442.726 305.01 415.236 264.38 378 237 c 0
 333 201 276 197 226 197 c 0
 211 197 195 197 180 199 c 1
 154 74 l 2
 151.548 62.6308 150.239 53.3488 150.239 45.7774 c 0
 150.239 19.3849 166.146 13.7771 205 13 c 1
 202 0 l 1
 11 0 l 1
 14 13 l 1
 70 16 75 31 85 82 c 2
 148 378 l 2
 150.807 390.505 152.377 400.339 152.377 408.118 c 0
 152.377 430.823 139.006 436.021 104 439 c 1
 107 452 l 1
 287 452 l 2
 358.687 452 442.726 429.767 442.726 353.919 c 0
366 328 m 0
 367.798 336.767 368.649 344.813 368.649 352.191 c 0
 368.649 410.455 315.582 427 257 427 c 0
 237 427 229 426 224 404 c 2
 186 226 l 1
 200 225 213 224 227 224 c 0
 296 224 349 251 366 328 c 0
EndSplineSet
Back
453.125 330.078 m 0
 442.871 283.203 415.039 248.535 369.141 225.098 c 0
 351.074 215.82 331.055 208.984 309.57 204.59 c 0
 287.598 200.195 264.16 198.242 237.793 198.242 c 2
 221.191 198.242 l 1
 192.871 200.195 l 1
 166.016 74.2188 l 2
 160.645 49.8047 162.109 33.6914 169.922 25.3906 c 0
 178.223 17.0898 193.848 13.1836 217.773 13.1836 c 1
 214.844 0 l 1
 22.9492 0 l 1
 25.8789 13.1836 l 1
 49.8047 13.1836 67.3828 18.5547 78.125 28.8086 c 0
 86.4258 38.5742 93.2617 56.1523 98.1445 82.0312 c 1
 162.109 378.906 l 2
 167.48 402.832 166.992 418.945 161.133 427.734 c 0
 154.785 436.035 140.137 439.941 117.188 439.941 c 1
 119.141 453.125 l 1
 299.805 453.125 l 2
 324.219 453.125 345.215 450.684 363.77 446.289 c 0
 382.812 442.383 399.414 436.035 414.062 428.223 c 0
 450.195 407.227 462.891 374.512 453.125 330.078 c 0
378.906 329.102 m 0
 393.066 395.02 356.445 428.223 269.043 428.223 c 0
 257.812 428.223 250 426.758 245.605 423.828 c 0
 241.211 421.387 237.793 415.039 235.84 404.785 c 2
 198.242 227.051 l 1
 201.172 227.051 204.59 227.051 208.496 226.562 c 0
 212.402 226.074 215.82 225.586 219.238 225.098 c 2
 238.77 225.098 l 2
 317.871 225.098 364.258 259.766 378.906 329.102 c 0
EndSplineSet
EndChar
StartChar: Q
Encoding: 81 81 50
Width: 492
Flags: W
HStem: -122 137<249 421> 437 25<330 353>
VStem: 64.5772 75.8355<147 168> 448.418 75.9187<277 302>
Fore
453 -121 m 1
 442 -122 431 -122 421 -122 c 0
 337 -122 248 -104 205 -38 c 0
 196 -26 189 -13 181 -1 c 1
 101.987 21.5751 64.5772 87.7031 64.5772 166.462 c 0
 64.5772 185.388 66.7376 205.044 71 225 c 0
 99 357 209 462 344 462 c 0
 459.344 462 524.337 387.192 524.337 283.331 c 0
 524.337 264.731 522.253 245.2 518 225 c 0
 495 118 406 9 290 -5 c 1
 297 -22 319 -48 332 -61 c 0
 364 -94 405 -107 456 -109 c 1
 453 -121 l 1
249 15 m 0
 380.388 15 448.418 179.889 448.418 300.016 c 0
 448.418 371.685 421.976 437 339 437 c 0
 209.604 437 140.413 269.428 140.413 149.162 c 0
 140.413 78.5235 166.474 15 249 15 c 0
EndSplineSet
Back
435.059 -108.887 m 1
 405.762 -109.863 l 2
 310.059 -113.281 244.141 -87.4023 208.984 -32.2266 c 1
 192.871 0 l 1
 171.875 5.37109 152.344 15.1367 134.277 29.2969 c 0
 116.699 43.9453 103.516 62.0117 94.2383 83.9844 c 0
 76.6602 125.488 73.2422 172.363 83.9844 225.098 c 0
 98.1445 293.457 130.371 349.609 181.152 393.066 c 1
 231.445 438.477 290.527 460.938 356.934 460.938 c 0
 424.316 460.938 473.633 438.477 504.883 393.066 c 0
 535.645 350.098 543.945 294.434 529.785 225.098 c 0
 516.113 157.715 483.887 101.562 433.105 57.1289 c 0
 413.086 39.5508 389.648 25.8789 362.305 16.1133 c 0
 335.449 5.85938 311.523 -0.488281 290.039 -2.92969 c 1
 301.758 -27.832 l 1
 325.195 -54.1992 l 1
 353.516 -82.5195 391.113 -97.168 437.012 -97.168 c 1
 435.059 -108.887 l 1
452.148 225.098 m 0
 463.867 280.273 463.867 327.148 452.148 365.234 c 0
 436.035 412.109 402.832 436.035 352.051 436.035 c 0
 299.805 436.035 256.836 412.109 222.168 365.234 c 0
 207.52 345.703 195.312 324.707 185.547 301.27 c 0
 175.781 278.32 167.969 252.93 162.109 225.098 c 0
 149.414 167.48 149.414 121.094 162.109 84.9609 c 0
 176.758 38.5742 209.961 15.1367 262.207 15.1367 c 0
 313.477 15.1367 356.445 38.5742 391.113 85.9375 c 0
 420.41 125.488 440.43 171.875 452.148 225.098 c 0
EndSplineSet
EndChar
StartChar: R
Encoding: 82 82 51
Width: 455
Flags: W
HStem: 0 21G<12 201 340 450> 209 25<189.062 222.989> 427 25<108 285>
VStem: 372.958 73.8935<351 369>
DStem: 150 378 224 402 87 82 189 234 150 378 183 209 87 82 155 74 223 210 296 218 340 0 401 45
Fore
450 0 m 1
 340 0 l 1
 223 210 l 1
 183 209 l 1
 155 74 l 2
 152.463 62.698 151.096 53.4708 151.096 45.938 c 0
 151.096 20.8125 166.302 14.5387 204 13 c 1
 201 0 l 1
 12 0 l 1
 15 13 l 1
 69 16 77 32 87 82 c 2
 150 378 l 2
 152.653 389.816 154.084 399.247 154.084 406.814 c 0
 154.084 430.626 139.908 435.965 105 439 c 1
 108 452 l 1
 296 452 l 2
 367.348 452 446.852 433.24 446.852 358.888 c 0
 446.852 350.913 445.937 342.299 444 333 c 0
 428 257 364 230 296 218 c 1
 401 45 l 2
 412 26 428 14 453 13 c 1
 450 0 l 1
370 334 m 0
 372.011 343.226 372.958 351.571 372.958 359.114 c 0
 372.958 415.339 320.311 427 263 427 c 0
 245 427 229 425 224 402 c 2
 189 234 l 1
 260 235 350 242 370 334 c 0
EndSplineSet
Back
464.844 0 m 1
 354.98 0 l 1
 236.816 210.938 l 1
 198.242 208.984 l 1
 169.922 74.2188 l 1
 164.551 50.7812 165.527 34.668 172.363 25.8789 c 0
 179.688 17.0898 194.824 13.1836 217.773 13.1836 c 1
 214.844 0 l 1
 25.8789 0 l 1
 28.8086 13.1836 l 1
 53.2227 13.1836 70.3125 18.5547 81.0547 28.8086 c 0
 87.8906 35.6445 94.2383 53.2227 100.098 82.0312 c 2
 164.062 378.906 l 1
 168.457 402.832 168.945 418.457 165.039 425.781 c 0
 157.715 435.547 142.578 439.941 120.117 439.941 c 1
 122.07 453.125 l 1
 310.059 453.125 l 2
 427.246 453.125 477.539 413.574 459.961 333.984 c 0
 447.266 273.438 397.461 234.863 310.059 217.773 c 1
 415.039 44.9219 l 2
 427.734 23.4375 445.312 13.1836 467.773 13.1836 c 1
 464.844 0 l 1
384.766 334.961 m 0
 398.438 396.973 365.723 428.223 287.109 428.223 c 0
 270.996 428.223 261.23 427.246 256.836 425.781 c 0
 247.559 422.852 242.188 415.039 240.234 402.832 c 1
 204.102 234.863 l 1
 226.074 234.863 245.605 236.328 263.184 238.281 c 0
 280.273 240.723 295.898 244.141 309.082 249.023 c 0
 350.098 263.184 375.488 291.504 384.766 334.961 c 0
EndSplineSet
EndChar
StartChar: S
Encoding: 83 83 52
Width: 379
Flags: W
HStem: -10 25<174 191> -9 21G<47 62> 434 28<255.401 273>
VStem: 118.182 66.3007<319.636 356.12> 287.141 74.6185<109.866 138.887>
Fore
268 434 m 0
 227.596 434 184.483 402.25 184.483 356.12 c 0
 184.483 271.466 361.759 250.143 361.759 138.887 c 0
 361.759 131.055 360.881 122.777 359 114 c 0
 342 35 262 -10 189 -10 c 0
 145 -10 112 14 88 14 c 0
 75 14 65 3 62 -9 c 1
 47 -9 l 1
 58 136 l 1
 73 136 l 1
 86 73 112 15 187 15 c 0
 236.881 15 287.141 53.7943 287.141 109.866 c 0
 287.141 203.007 118.182 211.16 118.182 319.636 c 0
 118.182 327.535 119.078 335.966 121 345 c 0
 137 417 201 462 270 462 c 0
 307 462 337 438 360 438 c 0
 374 438 385 449 389 462 c 1
 403 462 l 1
 387 316 l 1
 370 316 l 1
 370 378 335 434 268 434 c 0
EndSplineSet
Back
374.023 113.77 m 0
 366.211 77.1484 344.238 46.875 309.082 22.9492 c 1
 275.879 2.44141 240.723 -7.8125 204.102 -7.8125 c 0
 189.453 -7.8125 170.898 -4.88281 147.949 1.95312 c 0
 136.719 5.85938 127.441 8.78906 120.117 10.7422 c 0
 112.793 12.207 106.445 13.1836 102.051 13.1836 c 0
 87.8906 13.1836 80.0781 6.34766 78.125 -6.83594 c 1
 62.0117 -6.83594 l 1
 71.7773 134.766 l 1
 86.9141 134.766 l 1
 103.027 54.1992 141.113 14.1602 202.148 14.1602 c 0
 224.121 14.1602 244.629 21.4844 264.16 36.1328 c 0
 283.203 50.7812 295.41 68.8477 299.805 90.8203 c 0
 306.152 117.188 298.828 141.602 277.832 165.039 c 0
 273.438 169.434 265.625 175.781 255.371 183.594 c 0
 245.117 191.406 231.445 200.195 214.844 210.938 c 0
 199.219 221.68 186.035 230.957 175.781 239.258 c 0
 166.016 248.047 158.203 255.859 151.855 263.184 c 0
 135.254 285.645 129.883 312.988 136.23 345.215 c 0
 140.137 362.305 146.484 377.93 155.273 392.578 c 0
 164.551 406.738 175.781 418.945 188.965 429.199 c 0
 202.148 438.965 216.797 446.777 232.91 452.637 c 0
 249.023 458.008 266.113 460.938 284.18 460.938 c 0
 295.41 460.938 313.477 457.031 337.891 449.219 c 2
 375 437.988 l 1
 386.23 437.988 395.508 445.801 402.832 460.938 c 1
 417.969 460.938 l 1
 400.879 315.918 l 1
 384.766 315.918 l 1
 384.766 348.145 376.465 375.488 359.863 397.949 c 1
 339.844 421.387 314.453 433.105 283.203 433.105 c 0
 263.672 433.105 246.094 427.246 230.469 415.527 c 0
 214.844 403.809 204.59 388.184 200.195 369.141 c 0
 193.848 341.797 208.008 314.941 242.188 289.062 c 2
 337.891 219.238 l 2
 372.07 193.848 383.789 158.691 374.023 113.77 c 0
EndSplineSet
EndChar
StartChar: T
Encoding: 84 84 53
Width: 417
Flags: W
HStem: 0 13<306 312> 336 116<112 476> 423 29<112 263 333 404>
DStem: 263 423 333 423 190 82 259 74
Fore
476 336 m 1
 460 336 l 1
 460.046 338.277 460.07 340.494 460.07 342.655 c 0
 460.07 416.445 432.941 423.37 376.686 423.37 c 0
 363.687 423.37 349.133 423 333 423 c 1
 259 74 l 2
 256.568 62.7255 255.261 53.5036 255.261 45.9669 c 0
 255.261 19.4117 271.496 13.7789 312 13 c 1
 309 0 l 1
 109 0 l 1
 112 13 l 1
 170 15 179 27 190 82 c 2
 263 423 l 1
 227 423 l 2
 151 423 130 410 99 336 c 1
 83 336 l 1
 112 452 l 1
 497 452 l 1
 476 336 l 1
EndSplineSet
Back
490.234 336.914 m 1
 473.145 336.914 l 1
 473.633 372.559 467.773 395.508 456.055 407.227 c 0
 443.848 418.945 419.434 424.805 382.812 424.805 c 2
 346.191 424.805 l 1
 271.973 74.2188 l 1
 266.602 49.8047 267.578 33.6914 274.902 25.3906 c 0
 282.227 17.0898 298.828 13.1836 324.219 13.1836 c 1
 320.801 0 l 1
 121.094 0 l 1
 124.023 13.1836 l 1
 151.367 13.1836 170.898 18.5547 183.105 28.8086 c 0
 190.43 35.1562 196.777 52.7344 203.125 82.0312 c 1
 275.879 424.805 l 1
 238.77 424.805 l 2
 203.125 424.805 176.758 419.434 160.156 408.203 c 0
 142.578 396.484 126.465 373.047 111.816 336.914 c 1
 96.1914 336.914 l 1
 124.023 453.125 l 1
 509.766 453.125 l 1
 490.234 336.914 l 1
EndSplineSet
EndChar
StartChar: U
Encoding: 85 85 54
Width: 492
Flags: W
HStem: -10 30<238 265> 432 20G<106 299 419 577>
VStem: 99.1576 68.1977<101 119>
DStem: 151 378 221 378 106 165 173 152 462 352 492 352 422 167 454 173
Fore
574 439 m 1
 511 433 504 410 492 352 c 2
 454 173 l 2
 428 53 367 -10 238 -10 c 0
 142.231 -10 99.1576 31.4981 99.1576 107.01 c 0
 99.1576 124.538 101.478 143.9 106 165 c 2
 151 378 l 2
 153.682 390.434 155.175 400.252 155.175 408.035 c 0
 155.175 432.175 140.81 436.731 103 439 c 1
 106 452 l 1
 299 452 l 1
 296 439 l 1
 245 436 232 429 221 378 c 2
 173 152 l 2
 169.346 134.805 167.355 118.904 167.355 104.534 c 0
 167.355 52.0488 193.914 20 263 20 c 0
 307 20 356 36 387 74 c 0
 407 98 417 140 422 167 c 2
 462 352 l 2
 465.902 369.883 468.746 385.017 468.746 397.402 c 0
 468.746 423.109 456.492 436.975 416 439 c 1
 419 452 l 1
 577 452 l 1
 574 439 l 1
EndSplineSet
Back
596.191 439.941 m 1
 563.965 436.523 543.457 428.711 534.18 416.016 c 0
 530.762 411.133 527.344 403.809 523.438 393.555 c 0
 520.02 383.301 516.113 369.141 513.184 352.051 c 1
 475.098 173.828 l 1
 464.844 124.512 449.707 87.4023 429.199 62.0117 c 0
 392.09 15.1367 335.449 -7.8125 257.812 -7.8125 c 0
 145.996 -7.8125 102.051 49.8047 125.977 165.039 c 1
 171.875 378.906 l 2
 177.246 402.832 176.27 418.945 169.434 427.734 c 0
 162.598 436.035 146.973 439.941 123.047 439.941 c 1
 125 453.125 l 1
 318.848 453.125 l 1
 316.895 439.941 l 1
 304.199 439.941 293.945 438.965 285.645 437.5 c 0
 277.344 436.035 270.02 432.617 264.16 428.711 c 0
 257.812 424.316 253.418 417.969 250 410.156 c 0
 246.582 401.855 243.652 391.602 241.211 378.906 c 2
 193.848 159.18 l 2
 173.828 66.4062 204.102 20.0195 284.18 20.0195 c 0
 336.426 20.0195 377.93 38.0859 408.203 74.2188 c 0
 415.527 82.5195 421.875 94.7266 427.734 109.375 c 0
 433.105 124.512 438.477 143.555 442.871 166.992 c 1
 482.91 352.051 l 2
 486.328 367.188 488.281 380.371 488.77 391.113 c 0
 489.746 401.855 488.77 409.668 485.84 415.039 c 0
 481.445 431.641 464.844 439.941 437.012 439.941 c 1
 438.965 453.125 l 1
 598.145 453.125 l 1
 596.191 439.941 l 1
EndSplineSet
EndChar
StartChar: V
Encoding: 86 86 55
Width: 492
Flags: W
HStem: -8 21G<249 260> 432 20G<107 289 432 572>
DStem: 161 367 241 341 249 -8 295 110 450 361 493 376 295 110 260 -8
Fore
569 439 m 1
 527 436 514 410 493 376 c 2
 260 -8 l 1
 249 -8 l 1
 161 367 l 2
 153 404 148 437 104 439 c 1
 107 452 l 1
 289 452 l 1
 286 439 l 1
 264.182 437.909 228.523 439.849 228.523 408.589 c 0
 228.523 391.105 238.329 352.575 241 341 c 1
 295 110 l 1
 450 361 l 2
 457 373 470 395 473 408 c 0
 473.56 410.708 473.824 413.171 473.824 415.413 c 0
 473.824 437.187 448.946 438.093 429 439 c 1
 432 452 l 1
 572 452 l 1
 569 439 l 1
EndSplineSet
Back
569.824 440.918 m 1
 560.547 440.918 553.223 439.453 547.852 437.012 c 2
 530.762 428.223 l 1
 525.879 423.34 520.02 416.504 514.16 408.203 c 2
 492.188 376.953 l 1
 259.766 -5.85938 l 1
 250 -5.85938 l 1
 159.18 369.141 l 1
 155.762 384.277 152.344 396.973 148.438 406.738 c 0
 145.02 416.016 141.113 423.34 138.184 428.223 c 1
 127.93 435.059 l 2
 121.094 438.965 112.793 440.918 103.027 440.918 c 1
 104.98 453.125 l 1
 287.109 453.125 l 1
 285.156 440.918 l 1
 264.16 440.918 249.512 438.477 240.234 434.082 c 1
 235.352 433.105 231.445 426.758 228.027 415.039 c 0
 227.539 410.156 231.934 386.23 242.188 341.797 c 2
 294.922 110.84 l 1
 449.219 361.816 l 1
 459.473 377.441 467.285 393.066 472.168 409.18 c 0
 476.074 430.176 461.426 440.918 429.199 440.918 c 1
 431.152 453.125 l 1
 571.777 453.125 l 1
 569.824 440.918 l 1
EndSplineSet
EndChar
StartChar: W
Encoding: 87 87 56
Width: 644
Flags: W
HStem: -8 21G<204 214 428 438> 439 13<310 322.576 310 489>
DStem: 373 322 381 281 259 129 214 -8
Fore
729 439 m 1
 698 434 685 426 666 397 c 0
 587 265 509 128 438 -8 c 1
 428 -8 l 1
 416 90 398 186 381 281 c 1
 214 -8 l 1
 204 -8 l 1
 189 115 171 238 150 359 c 0
 143 397 143 436 96 439 c 1
 99 452 l 1
 267 452 l 1
 264 439 l 1
 242.728 437.749 213.172 438.601 213.172 407.031 c 0
 213.172 399.728 214.586 392.364 216 386 c 2
 259 129 l 1
 373 322 l 1
 363 378 l 2
 355 418 353 439 307 439 c 1
 310 452 l 1
 492 452 l 1
 489 439 l 1
 468.455 439 430.338 438.201 430.338 406.065 c 0
 430.338 391.781 436.461 370.158 439 360 c 2
 479 127 l 1
 613 358 l 2
 622 373 631 392 635 408 c 0
 635.438 410.368 635.646 412.551 635.646 414.564 c 0
 635.646 435.511 613.159 438.088 594 439 c 1
 597 452 l 1
 732 452 l 1
 729 439 l 1
EndSplineSet
Back
744.141 439.941 m 1
 726.562 436.523 713.867 432.617 706.055 427.734 c 0
 698.242 422.363 689.453 412.598 681.152 397.949 c 2
 563.965 198.242 l 1
 503.906 90.8203 l 1
 452.148 -5.85938 l 1
 442.871 -5.85938 l 1
 438.965 21.9727 433.105 60.0586 425.293 107.422 c 0
 417.969 155.273 407.227 213.379 394.043 282.227 c 1
 227.051 -5.85938 l 1
 216.797 -5.85938 l 1
 192.871 169.922 l 1
 163.086 359.863 l 1
 159.18 390.137 154.785 408.203 150.879 414.062 c 0
 143.066 429.199 128.906 437.988 108.887 439.941 c 1
 110.84 453.125 l 1
 278.809 453.125 l 1
 276.855 439.941 l 1
 270.508 439.941 263.672 439.453 256.836 437.988 c 2
 237.793 432.129 l 2
 232.91 430.176 229.004 424.805 227.051 416.992 c 0
 225.586 412.109 226.074 401.855 228.027 386.23 c 1
 271.973 128.906 l 1
 387.207 323.242 l 1
 376.953 378.906 l 1
 374.512 390.137 372.07 399.902 370.117 408.203 c 0
 368.164 416.016 365.234 421.875 361.816 424.805 c 0
 354.004 435.059 339.844 439.941 319.824 439.941 c 1
 321.777 453.125 l 1
 504.883 453.125 l 1
 502.93 439.941 l 1
 467.773 439.941 448.242 431.152 443.848 414.062 c 1
 444.824 397.949 l 1
 452.148 360.84 l 1
 492.188 126.953 l 1
 626.953 358.887 l 2
 639.16 379.883 646.484 396.484 648.926 409.18 c 0
 650.879 420.898 647.461 429.199 639.16 434.082 c 1
 626.953 437.988 l 1
 608.887 439.941 l 1
 610.84 453.125 l 1
 746.094 453.125 l 1
 744.141 439.941 l 1
EndSplineSet
EndChar
StartChar: X
Encoding: 88 88 57
Width: 492
Flags: W
HStem: 0 21G<7 166 278 481> 439.112 12.8876<111 314>
DStem: 412 370 453 375 315 276 327 251
Fore
302.552 439.112 m 0
 283.327 439.112 257.528 435.535 257.528 412.276 c 0
 257.528 381.085 305.533 294.934 315 276 c 1
 412 370 l 2
 424.571 382.571 450.51 402.2 450.51 421.429 c 0
 450.51 439.737 420.892 438.069 406 439 c 1
 409 452 l 1
 571 452 l 1
 568 439 l 1
 515 435 494 416 453 375 c 2
 327 251 l 1
 419 64 l 2
 434 31 443 16 484 13 c 1
 481 0 l 1
 278 0 l 1
 281 13 l 1
 298 14 332 11 338 36 c 0
 338.116 36.6374 338.172 37.3688 338.172 38.1884 c 0
 338.172 65.6565 274.942 192.145 273 197 c 1
 268 192 127 61 122 38 c 0
 121.672 36.4251 121.516 34.9535 121.516 33.5782 c 0
 121.516 13.9957 153.116 13.9344 169 13 c 1
 166 0 l 1
 7 0 l 1
 10 13 l 1
 58 16 90 56 125 91 c 2
 260 223 l 1
 210 332 l 2
 195 359 171 418 143 432 c 0
 132 437 120 438 108 439 c 1
 111 452 l 1
 317 452 l 1
 314 439 l 1
 310.71 439 306.783 439.112 302.552 439.112 c 0
EndSplineSet
Back
495.117 0 m 1
 291.016 0 l 1
 293.945 13.1836 l 1
 334.961 18.0664 l 1
 343.75 21.4844 349.121 27.3438 352.051 36.1328 c 0
 354.004 45.4102 347.168 67.3828 331.055 102.051 c 2
 286.133 198.242 l 1
 182.129 96.1914 l 2
 152.832 66.8945 137.207 47.3633 134.766 38.0859 c 0
 131.836 21.4844 147.461 13.1836 182.129 13.1836 c 1
 179.199 0 l 1
 19.043 0 l 1
 21.9727 13.1836 l 1
 41.5039 15.1367 57.1289 20.0195 68.8477 27.832 c 1
 101.074 56.1523 l 1
 137.207 90.8203 l 1
 272.949 223.145 l 1
 222.168 333.008 l 2
 209.961 358.398 199.707 378.418 190.918 393.555 c 0
 182.129 408.691 174.805 418.457 167.969 423.828 c 0
 163.574 428.711 157.227 432.129 149.414 434.57 c 0
 141.602 437.012 132.324 438.477 121.094 439.941 c 1
 123.047 453.125 l 1
 331.055 453.125 l 1
 329.102 439.941 l 1
 308.105 439.941 296.875 439.453 294.922 438.965 c 0
 282.227 435.547 274.902 429.199 271.973 418.945 c 0
 269.531 404.785 281.25 371.094 308.105 316.895 c 2
 328.125 276.855 l 1
 425.781 371.094 l 1
 452.148 397.949 l 2
 455.566 401.367 458.008 404.785 459.473 408.203 c 0
 460.938 411.133 462.891 414.551 463.867 417.969 c 0
 466.797 432.617 452.148 439.941 420.898 439.941 c 1
 422.852 453.125 l 1
 584.961 453.125 l 1
 583.008 439.941 l 1
 571.777 439.941 560.547 438.477 549.805 436.035 c 0
 539.551 433.105 529.297 428.711 520.02 421.875 c 0
 514.16 417.48 506.836 411.133 498.047 403.809 c 0
 489.258 396.484 479.004 387.207 466.797 375.977 c 2
 341.797 251.953 l 1
 433.105 63.9648 l 2
 447.754 33.2031 469.238 16.1133 498.047 13.1836 c 1
 495.117 0 l 1
EndSplineSet
EndChar
StartChar: Y
Encoding: 89 89 58
Width: 492
Flags: W
HStem: 0 13<149 171.279 347 358> 439 13<426 443.892>
DStem: 197 332 252 389 258 201 320 237 258 201 329 207 232 82 301 74 451 391 463 361 320 237 329 207
Fore
573 439 m 1
 525 434 495 398 463 361 c 2
 329 207 l 1
 301 74 l 2
 298.512 62.387 297.227 53.0103 297.227 45.4328 c 0
 297.227 16.47 315.991 13.7926 358 13 c 1
 355 0 l 1
 146 0 l 1
 149 13 l 1
 210 14 220 24 232 82 c 2
 258 201 l 1
 197 332 l 2
 185 356 157 421 132 434 c 0
 125 438 117 438 108 439 c 1
 111 452 l 1
 302 452 l 1
 299 439 l 1
 281.555 437.837 246.462 440.621 246.462 412.594 c 0
 246.462 404.346 249.561 394.69 252 389 c 2
 320 237 l 1
 451 391 l 2
 458.68 399.778 467.343 409.108 467.343 420.609 c 0
 467.343 439 438.072 439 423 439 c 1
 426 452 l 1
 576 452 l 1
 573 439 l 1
EndSplineSet
Back
578.125 440.918 m 1
 561.523 438.965 547.363 434.57 536.133 428.223 c 0
 527.344 422.852 517.09 414.551 505.859 403.809 c 0
 494.629 393.555 481.445 379.395 465.82 361.816 c 2
 332.031 208.008 l 1
 304.199 74.2188 l 1
 298.828 49.8047 298.828 33.6914 305.176 24.9023 c 1
 314.941 17.0898 333.984 13.1836 361.816 13.1836 c 1
 358.887 0 l 1
 148.926 0 l 1
 151.855 13.1836 l 1
 181.152 13.1836 202.148 18.0664 214.844 27.832 c 0
 222.168 35.1562 229.004 53.2227 234.863 82.0312 c 2
 261.23 202.148 l 1
 200.195 333.008 l 2
 178.223 378.906 160.645 409.18 147.949 423.828 c 0
 136.719 435.547 124.512 440.918 110.84 440.918 c 1
 112.793 453.125 l 1
 305.176 453.125 l 1
 303.223 440.918 l 1
 270.508 440.918 252.441 433.594 250 418.945 c 0
 248.047 411.133 250 401.367 255.859 390.137 c 1
 324.219 237.793 l 1
 455.078 393.066 l 1
 462.891 400.879 467.773 409.18 470.215 417.969 c 0
 474.121 433.105 459.961 440.918 428.223 440.918 c 1
 430.176 453.125 l 1
 580.078 453.125 l 1
 578.125 440.918 l 1
EndSplineSet
EndChar
StartChar: Z
Encoding: 90 90 59
Width: 417
Flags: W
HStem: 0 26<105 391> 426 26<131 396>
DStem: 396 426 488 442 8 10 105 26
Fore
434 120 m 1
 391 0 l 1
 6 0 l 1
 8 10 l 1
 396 426 l 1
 245 426 l 2
 170 426 138 406 110 335 c 1
 92 335 l 1
 131 452 l 1
 490 452 l 1
 488 442 l 1
 105 26 l 1
 280 26 l 2
 356 26 383 53 418 120 c 1
 434 120 l 1
EndSplineSet
Back
446.777 120.117 m 1
 403.809 0 l 1
 18.0664 0 l 1
 20.0195 9.76562 l 1
 408.203 428.223 l 1
 256.836 428.223 l 2
 213.867 428.223 181.152 418.457 160.156 398.926 c 0
 147.949 389.16 135.742 368.164 123.047 336.914 c 1
 104.98 336.914 l 1
 143.066 453.125 l 1
 502.93 453.125 l 1
 500.977 442.871 l 1
 117.188 25.8789 l 1
 292.969 25.8789 l 2
 333.496 25.8789 364.746 35.6445 386.23 55.1758 c 0
 392.09 60.5469 398.926 68.3594 406.738 79.5898 c 0
 414.062 90.332 422.363 104.004 431.152 120.117 c 1
 446.777 120.117 l 1
EndSplineSet
EndChar
StartChar: bracketleft
Encoding: 91 91 60
Width: 227
Flags: W
HStem: -107 18<116 181> 435 17<156 296>
DStem: 156 452 198 405 37 -107 101 -54
Fore
296 435 m 1
 235 435 l 2
 204 435 200 414 198 405 c 2
 101 -54 l 2
 100.344 -56.6232 99.2584 -61.2891 99.2584 -66.3762 c 0
 99.2584 -76.8034 103.821 -89 126 -89 c 2
 185 -89 l 1
 181 -107 l 1
 37 -107 l 1
 156 452 l 1
 300 452 l 1
 296 435 l 1
EndSplineSet
Back
212.891 -86.9141 m 1
 65.918 -86.9141 l 1
 187.012 482.91 l 1
 333.984 482.91 l 1
 330.078 465.82 l 1
 267.09 465.82 l 2
 246.094 465.82 233.887 455.566 229.004 435.059 c 1
 129.883 -33.2031 l 1
 125.488 -57.6172 133.789 -69.8242 155.762 -69.8242 c 2
 215.82 -69.8242 l 1
 212.891 -86.9141 l 1
EndSplineSet
EndChar
StartChar: backslash
Encoding: 92 92 61
Width: 220
Flags: W
HStem: 442 20G<94 130>
DStem: 94 462 130 462 162 -120 199 -120
Fore
130 462 m 1
 199 -120 l 1
 162 -120 l 1
 94 462 l 1
 130 462 l 1
EndSplineSet
Back
227.051 -121.094 m 1
 188.965 -121.094 l 1
 119.141 473.145 l 1
 155.762 473.145 l 1
 227.051 -121.094 l 1
EndSplineSet
EndChar
StartChar: bracketright
Encoding: 93 93 62
Width: 227
Flags: W
HStem: -107 18<3 144> 435 17<118 176>
DStem: 200 399 263 452 102 -59 144 -107
Fore
4 -89 m 1
 66 -89 l 2
 96 -89 100 -69 102 -59 c 2
 200 399 l 2
 200.612 401.753 201.504 406.189 201.504 411.021 c 0
 201.504 421.99 196.907 435 174 435 c 2
 115 435 l 1
 119 452 l 1
 263 452 l 1
 144 -107 l 1
 0 -107 l 1
 4 -89 l 1
EndSplineSet
Back
174.805 -86.9141 m 1
 27.832 -86.9141 l 1
 30.7617 -69.8242 l 1
 94.2383 -69.8242 l 2
 114.746 -69.8242 127.441 -59.5703 131.836 -39.0625 c 1
 230.957 429.199 l 1
 236.816 453.613 228.516 465.82 205.078 465.82 c 2
 145.02 465.82 l 1
 148.926 482.91 l 1
 295.898 482.91 l 1
 174.805 -86.9141 l 1
EndSplineSet
EndChar
StartChar: asciicircum
Encoding: 94 94 63
Width: 320
Flags: W
HStem: 432 20G<236 277>
DStem: 236 452 248 415 59 203 98 203
Fore
248 415 m 1
 98 203 l 1
 59 203 l 1
 236 452 l 1
 277 452 l 1
 348 203 l 1
 309 203 l 1
 288 273 270 346 248 415 c 1
EndSplineSet
Back
377.93 208.008 m 1
 337.891 208.008 l 1
 276.855 425.781 l 1
 266.113 410.156 l 1
 123.047 208.008 l 1
 83.0078 208.008 l 1
 263.184 462.891 l 1
 305.176 462.891 l 1
 377.93 208.008 l 1
EndSplineSet
EndChar
StartChar: underscore
Encoding: 95 95 64
Width: 341
Flags: W
HStem: -85 34<-12 323>
Fore
323 -85 m 1
 -18 -85 l 1
 -11 -51 l 1
 330 -51 l 1
 323 -85 l 1
EndSplineSet
Back
354.004 -84.9609 m 1
 3.90625 -84.9609 l 1
 11.2305 -49.8047 l 1
 360.84 -49.8047 l 1
 354.004 -84.9609 l 1
EndSplineSet
EndChar
StartChar: grave
Encoding: 96 96 65
Width: 150
Flags: W
HStem: 434.692 20G<138.964 153.082>
Fore
111.944 421.262 m 0
 111.944 437.612 129.322 454.692 148.606 454.692 c 0
 157.557 454.692 166.279 450.923 170 441 c 0
 175 424 187 345 193 309 c 1
 178 302 l 1
 159 331 120 395 114 412 c 0
 112.582 415.039 111.944 418.159 111.944 421.262 c 0
EndSplineSet
Back
199.219 248.047 m 1
 180.176 248.047 l 1
 113.77 295.898 l 1
 105.957 300.781 102.539 307.617 104.004 316.895 c 0
 107.422 327.148 113.77 332.031 124.023 332.031 c 0
 130.859 332.031 136.719 328.125 142.09 320.801 c 2
 199.219 248.047 l 1
EndSplineSet
EndChar
StartChar: a
Encoding: 97 97 66
Width: 303
Flags: W
HStem: -27 20G<78.9292 115.5 226.622 253> 298 16<194 213>
VStem: 35.5955 64.8217<49.9197 72.0071> 204.366 57.4849<31 49> 244.822 50.839<244 259>
DStem: 232 183 291 205 212 84 265 72
Fore
35.5955 49.9197 m 0
 35.5955 141.765 175.662 177.423 235 199 c 1
 238.57 217.742 244.822 237.596 244.822 257.93 c 0
 244.822 282.945 230.781 298 201 298 c 0
 182 298 151 287 146 264 c 0
 145 255 146 246 144 238 c 0
 141 221 123 208 108 208 c 0
 93.0168 208 83.4712 218.875 83.4712 232.41 c 0
 83.4712 234.232 83.6441 236.102 84 238 c 0
 95 291 168 314 211 314 c 0
 273.11 314 295.661 291.13 295.661 246.361 c 0
 295.661 234.187 293.993 220.393 291 205 c 2
 265 72 l 2
 263.705 65.5251 261.851 57.1868 261.851 49.8004 c 0
 261.851 40.0752 265.065 32 277 32 c 0
 289 32 300 38 311 45 c 1
 307 27 l 1
 287 8 266 -7 240 -7 c 0
 213.243 -7 204.366 7.89939 204.366 31.2682 c 0
 204.366 34.9743 204.589 38.8935 205 43 c 1
 174 19 134 -7 97 -7 c 0
 60.8584 -7 35.5955 16.3114 35.5955 49.9197 c 0
212 84 m 2
 232 183 l 1
 181.788 167.309 100.417 136.791 100.417 72.0071 c 0
 100.417 50.6721 112.091 33 136 33 c 0
 149 33 170 40 182 45 c 0
 204 55 208 62 212 84 c 2
EndSplineSet
Back
336.914 30.7617 m 1
 311.035 6.83594 286.133 -4.88281 263.184 -4.88281 c 0
 231.445 -4.88281 219.238 12.6953 226.074 47.8516 c 1
 176.758 12.6953 136.23 -4.88281 104.98 -4.88281 c 0
 81.543 -4.88281 63.9648 1.95312 51.2695 15.625 c 0
 39.0625 29.2969 35.6445 47.8516 41.0156 70.8008 c 0
 48.8281 106.445 71.2891 134.766 107.91 157.227 c 0
 117.188 162.109 134.766 170.41 160.156 181.152 c 0
 185.547 191.895 219.238 205.078 262.207 221.191 c 1
 271.973 267.09 l 2
 280.762 308.105 265.625 329.102 227.051 329.102 c 0
 192.871 329.102 171.875 316.895 164.062 291.992 c 1
 164.062 290.039 l 1
 162.598 286.133 162.109 280.762 163.086 274.902 c 0
 163.574 269.043 163.574 265.137 163.086 263.184 c 0
 161.621 255.859 157.227 248.047 148.926 240.234 c 1
 138.184 233.398 128.906 229.98 121.094 229.98 c 0
 111.816 229.98 104.492 232.91 99.6094 238.281 c 0
 94.7266 244.141 93.2617 252.441 96.1914 263.184 c 0
 100.586 288.574 119.629 309.57 152.832 327.148 c 0
 166.504 334.473 180.176 339.355 193.848 342.285 c 0
 208.008 345.703 222.168 347.168 236.816 347.168 c 0
 278.809 347.168 306.152 337.402 318.848 317.871 c 0
 331.543 298.828 333.496 268.066 324.219 226.074 c 1
 292.969 79.1016 l 2
 287.109 51.7578 291.504 37.5977 306.152 37.1094 c 0
 317.383 37.1094 329.102 41.5039 340.82 50.7812 c 1
 336.914 30.7617 l 1
234.863 92.7734 m 1
 257.812 203.125 l 1
 170.898 176.27 122.559 141.113 112.793 98.1445 c 0
 108.887 82.0312 110.84 67.3828 118.164 54.1992 c 0
 123.535 43.457 134.277 38.0859 150.879 38.0859 c 0
 179.688 38.0859 203.613 47.3633 223.145 65.918 c 0
 225.098 68.8477 227.051 72.2656 228.516 77.1484 c 0
 229.98 81.543 232.422 86.9141 234.863 92.7734 c 1
EndSplineSet
EndChar
StartChar: b
Encoding: 98 98 67
Width: 341
Flags: W
HStem: -7 22<152 173> 271 43<226 259>
VStem: 53.7783 58.9765<34.4431 45.1005> 290.268 65.4778<180 201>
DStem: 123 391 194 465 54 37 154 259 123 391 147 220 54 37 113 48
Fore
355.746 201.487 m 0
 355.746 81.3094 253.811 -7 152 -7 c 0
 130.656 -7 53.7783 7.11876 53.7783 34.4431 c 0
 53.7783 35.2829 53.8509 36.1352 54 37 c 2
 123 391 l 2
 124.23 396.976 124.843 402.026 124.843 406.268 c 0
 124.843 421.41 117.038 426.264 101.675 426.264 c 0
 96.8574 426.264 91.2965 425.787 85 425 c 1
 87 436 l 1
 122 445 156 455 192 466 c 1
 194 465 l 1
 154 259 l 1
 156 259 l 1
 172 292 228 314 259 314 c 0
 327.418 314 355.746 260.999 355.746 201.487 c 0
173 15 m 0
 255.575 15 290.268 107.011 290.268 181.811 c 0
 290.268 226.721 275.846 271 226 271 c 0
 196 271 153 254 147 220 c 2
 113 48 l 2
 112.835 47.008 112.755 46.0417 112.755 45.1005 c 0
 112.755 23.2714 155.744 15 173 15 c 0
EndSplineSet
Back
402.832 180.176 m 0
 398.438 158.691 390.625 138.184 379.395 118.164 c 0
 368.652 98.1445 354.492 79.1016 336.914 61.0352 c 0
 294.922 17.0898 243.164 -4.88281 181.152 -4.88281 c 0
 157.715 -4.88281 134.277 -0.976562 110.84 6.83594 c 0
 83.0078 17.0898 70.3125 28.8086 73.2422 41.9922 c 2
 155.762 433.105 l 2
 159.18 449.707 160.156 459.473 159.18 461.914 c 0
 156.25 468.75 148.438 472.168 134.766 472.168 c 2
 130.859 472.168 l 1
 113.77 471.191 l 1
 117.188 482.91 l 1
 129.883 486.328 145.508 490.723 164.551 496.094 c 0
 183.594 501.465 207.031 507.812 234.863 516.113 c 1
 236.816 515.137 l 1
 188.965 286.133 l 1
 192.871 295.41 199.219 303.711 208.008 311.035 c 0
 216.797 318.359 226.562 324.707 237.305 330.078 c 0
 248.535 335.449 259.766 339.355 271.484 342.285 c 0
 283.203 345.703 293.945 347.168 304.199 347.168 c 0
 348.145 347.168 378.418 329.102 395.02 293.945 c 0
 410.156 262.207 413.086 224.121 402.832 180.176 c 0
330.078 152.832 m 0
 333.984 172.363 336.426 189.941 336.914 206.055 c 0
 337.891 222.168 335.938 236.816 332.031 250 c 0
 321.289 284.18 299.316 300.781 266.113 300.781 c 0
 248.047 300.781 230.957 295.898 214.844 286.133 c 0
 194.336 273.926 182.129 259.277 179.199 242.188 c 1
 139.16 54.1992 l 2
 137.695 47.8516 139.16 42.4805 143.555 38.0859 c 0
 147.949 33.2031 153.32 29.2969 160.156 26.3672 c 0
 166.504 23.4375 173.828 20.9961 182.129 19.5312 c 0
 189.941 18.0664 196.777 17.0898 203.125 17.0898 c 0
 267.578 17.0898 310.059 62.5 330.078 152.832 c 0
EndSplineSet
EndChar
StartChar: c
Encoding: 99 99 68
Width: 303
Flags: W
HStem: -7 49<144 182> 294 20<213 231>
VStem: 41.6945 59.0407<109.925 139.556>
Fore
215 294 m 0
 144.564 294 100.735 207.962 100.735 139.556 c 0
 100.735 88.5615 124.497 42 182 42 c 0
 229 42 261 70 293 107 c 1
 300 100 l 1
 262 42 213 -7 144 -7 c 0
 73.9964 -7 41.6945 47.7741 41.6945 109.925 c 0
 41.6945 221.493 134.789 314 231 314 c 0
 266.405 314 320.907 294.902 320.907 254.28 c 0
 320.907 229.826 300.796 215 282 215 c 0
 256 215 255 242 254 262 c 0
 251 289 244 294 215 294 c 0
EndSplineSet
Back
342.773 111.816 m 1
 289.062 34.1797 230.469 -4.88281 167.969 -4.88281 c 0
 124.512 -4.88281 93.2617 12.207 74.2188 45.8984 c 0
 56.6406 76.1719 52.7344 114.746 62.0117 162.109 c 0
 72.7539 213.379 97.168 256.836 136.23 291.992 c 0
 175.781 328.613 221.191 347.168 270.996 347.168 c 0
 298.34 347.168 321.289 340.82 339.844 329.102 c 0
 363.281 314.941 372.07 295.41 366.211 270.02 c 0
 361.816 248.535 348.145 237.793 325.195 237.793 c 0
 307.129 237.793 296.875 249.512 294.922 272.949 c 1
 293.945 289.062 l 1
 292.48 304.199 289.551 314.453 284.18 318.848 c 0
 278.809 323.73 268.555 326.172 252.93 326.172 c 0
 221.191 326.172 192.871 311.035 168.945 280.762 c 0
 147.461 253.906 133.789 224.121 126.953 191.895 c 0
 119.141 151.855 121.582 119.141 134.766 92.7734 c 0
 149.902 62.5 174.805 46.875 210.938 46.875 c 0
 224.121 46.875 236.816 48.8281 248.047 52.7344 c 0
 259.277 56.1523 270.508 61.5234 280.762 68.8477 c 0
 288.574 74.2188 296.387 81.0547 305.664 88.3789 c 0
 314.453 96.1914 324.219 105.957 333.984 118.164 c 1
 342.773 111.816 l 1
EndSplineSet
EndChar
StartChar: d
Encoding: 100 100 69
Width: 341
Flags: W
HStem: -7 36<142 177> 295 19<216 231>
VStem: 41.9104 63.3674<104 125>
DStem: 276 227 380 465 246 70 305 78 308 391 380 465 287 285 305 78
Fore
341 29 m 1
 234 -7 l 1
 231 -5 l 1
 239 37 l 1
 238 37 l 1
 212 7 177 -7 142 -7 c 0
 71.401 -7 41.9104 43.543 41.9104 104.797 c 0
 41.9104 118.159 43.3138 132.032 46 146 c 0
 62 224 135 314 221 314 c 0
 250 314 269 304 287 285 c 1
 308 391 l 2
 309.225 397.3 309.837 402.559 309.837 406.926 c 0
 309.837 422.021 302.522 426.471 287.89 426.471 c 0
 282.563 426.471 276.266 425.881 269 425 c 1
 271 436 l 1
 306 445 341 455 377 466 c 1
 380 465 l 1
 305 78 l 2
 303.457 69.8421 302.594 63.2884 302.594 58.0603 c 0
 302.594 43.4701 309.313 39.2035 326.713 39.2035 c 0
 331.356 39.2035 336.76 39.5074 343 40 c 1
 341 29 l 1
219 295 m 0
 142.782 295 105.278 194.234 105.278 123.413 c 0
 105.278 75.316 122.555 29 177 29 c 0
 198 29 241 44 246 70 c 2
 276 227 l 2
 276.729 230.855 277.079 234.645 277.079 238.341 c 0
 277.079 270.123 251.249 295 219 295 c 0
EndSplineSet
Back
387.207 32.2266 m 1
 269.043 -4.88281 l 1
 265.137 -2.92969 l 1
 274.902 41.0156 l 1
 245.117 10.2539 208.496 -4.88281 166.016 -4.88281 c 0
 136.23 -4.88281 110.84 3.41797 89.8438 20.0195 c 0
 58.5938 47.3633 49.8047 94.7266 63.9648 162.109 c 0
 69.3359 187.5 77.6367 210.449 88.8672 230.957 c 0
 100.098 251.465 114.746 270.996 131.836 289.062 c 0
 170.898 327.637 213.379 347.168 259.766 347.168 c 0
 288.574 347.168 312.988 336.426 333.008 315.918 c 1
 357.91 433.105 l 2
 361.328 448.242 362.305 457.52 360.84 460.938 c 0
 359.863 464.355 356.934 466.797 352.539 468.262 c 0
 348.145 470.215 343.262 471.191 337.891 471.191 c 2
 333.984 471.191 l 1
 315.918 470.215 l 1
 318.848 482.91 l 1
 366.211 494.141 l 1
 435.059 516.113 l 1
 438.965 515.137 l 1
 348.145 85.9375 l 1
 344.727 68.8477 344.727 57.1289 347.656 51.2695 c 0
 350.586 45.8984 359.863 42.9688 375.977 42.9688 c 2
 389.16 43.9453 l 1
 387.207 32.2266 l 1
282.227 77.1484 m 1
 319.824 251.953 l 1
 321.777 276.855 317.383 295.898 306.152 309.082 c 0
 294.434 320.801 278.32 327.148 256.836 327.148 c 0
 223.145 327.148 194.824 311.523 172.852 279.785 c 0
 154.785 255.859 141.602 225.586 132.812 188.965 c 0
 123.535 146.484 123.535 111.816 132.812 84.9609 c 0
 145.02 49.8047 169.434 32.2266 206.055 32.2266 c 0
 242.676 32.2266 268.066 46.875 282.227 77.1484 c 1
EndSplineSet
EndChar
StartChar: e
Encoding: 101 101 70
Width: 303
Flags: W
HStem: -7 47<144 181> -7 47<144 181> 189 22<107 314> 290 24<197 217>
VStem: 40.9274 57.1605<104.319 148.306> 248 67.0919<211 228> 248.434 66.6577<211.105 226.705>
Fore
40.9274 104.319 m 0
 40.9274 212.321 120.469 314 217 314 c 0
 286.966 314 315.092 272.966 315.092 211.105 c 0
 315.092 204.001 314.721 196.622 314 189 c 1
 101 189 l 1
 99.2064 175.847 98.088 162.018 98.088 148.306 c 0
 98.088 93.2143 116.143 40 181 40 c 0
 232 40 268 72 301 112 c 1
 311 107 l 1
 278 44 212 -7 144 -7 c 0
 70.8416 -7 40.9274 42.3255 40.9274 104.319 c 0
248 211 m 1
 248.259 216.311 248.434 221.571 248.434 226.705 c 0
 248.434 261.207 240.523 290 197 290 c 0
 148 290 124 255 107 211 c 1
 248 211 l 1
EndSplineSet
Back
354.004 119.141 m 1
 348.145 106.934 340.332 94.7266 331.543 82.5195 c 0
 322.266 70.3125 311.523 58.1055 297.852 46.875 c 0
 257.324 12.207 213.867 -4.88281 167.969 -4.88281 c 0
 128.906 -4.88281 99.6094 6.34766 80.5664 29.2969 c 0
 61.5234 52.7344 53.2227 83.9844 56.1523 124.023 c 0
 57.1289 134.766 59.5703 147.461 62.0117 162.109 c 0
 72.7539 213.379 94.2383 255.859 126.953 289.062 c 0
 165.039 327.637 208.008 347.168 255.859 347.168 c 0
 297.852 347.168 327.637 334.473 345.703 310.059 c 0
 363.281 285.156 367.188 251.465 357.91 208.984 c 1
 124.023 208.984 l 1
 101.562 99.6094 130.371 44.9219 210.938 44.9219 c 0
 252.93 44.9219 297.852 71.7773 345.215 125 c 1
 354.004 119.141 l 1
288.086 233.887 m 1
 293.945 291.992 275.879 320.801 233.887 320.801 c 0
 189.941 320.801 155.762 291.992 131.836 233.887 c 1
 288.086 233.887 l 1
EndSplineSet
EndChar
StartChar: f
Encoding: 102 102 71
Width: 227
Flags: W
HStem: 0 10<173 193> 285 22<73 125 187 266> 396 70<284 309>
DStem: 125 285 183 285 84 71 142 71
Fore
345.409 429.805 m 0
 345.409 409.821 325.447 396 309 396 c 0
 280 396 287 447 255 447 c 0
 219 447 208 415 202 386 c 2
 187 307 l 1
 271 307 l 1
 266 285 l 1
 183 285 l 1
 142 71 l 2
 139.64 58.9638 138.282 49.2669 138.282 41.4624 c 0
 138.282 16.1975 152.508 10.764 193 10 c 1
 191 0 l 1
 14 0 l 1
 16 10 l 1
 64 12 74 22 84 71 c 2
 125 285 l 1
 69 285 l 1
 74 307 l 1
 130 307 l 1
 146 391 185 466 284 466 c 0
 306.673 466 345.409 456.183 345.409 429.805 c 0
EndSplineSet
Back
399.902 470.215 m 0
 395.996 449.219 382.324 438.965 358.887 438.965 c 0
 351.074 438.965 341.309 448.242 330.078 466.797 c 1
 321.289 485.84 311.523 495.117 300.781 495.117 c 0
 270.996 495.117 250.977 472.168 241.211 426.758 c 2
 222.168 339.844 l 1
 314.941 339.844 l 1
 310.059 316.895 l 1
 217.773 316.895 l 1
 167.969 78.125 l 1
 165.527 66.8945 163.574 56.6406 163.086 48.3398 c 0
 162.109 40.0391 163.574 33.2031 166.016 27.832 c 0
 171.875 16.6016 190.918 11.2305 223.145 11.2305 c 1
 221.191 0 l 1
 24.9023 0 l 1
 26.8555 11.2305 l 1
 33.2031 11.7188 39.0625 12.207 44.9219 12.207 c 0
 51.7578 12.207 56.6406 12.6953 60.0586 14.1602 c 0
 63.4766 15.1367 67.3828 16.6016 72.2656 18.5547 c 0
 77.6367 20.0195 80.5664 21.4844 82.0312 22.9492 c 0
 91.3086 32.2266 99.1211 50.7812 104.98 78.125 c 1
 154.785 316.895 l 1
 92.7734 316.895 l 1
 98.1445 339.844 l 1
 160.156 339.844 l 1
 185.547 458.008 243.164 517.09 333.008 517.09 c 0
 350.098 517.09 365.723 513.672 378.906 506.836 c 0
 396.484 497.559 403.32 485.352 399.902 470.215 c 0
EndSplineSet
EndChar
StartChar: g
Encoding: 103 103 72
Width: 341
Flags: W
HStem: -149 39<111 148> 102 17<187 200> 265 26.2099<316 373> 295 19<208 226>
VStem: 2.14252 52.2488<-91.5182 -67.3464> 84.3002 60.7677<180 193> 263.804 55.9461<214 234.25> 287.718 22.704<-37.6944 -18.7078>
Fore
310.422 -18.7078 m 0
 310.422 -107.626 168.247 -149 111 -149 c 0
 75.2049 -149 2.14252 -135.69 2.14252 -91.5182 c 0
 2.14252 -88.7973 2.41975 -85.9593 3 -83 c 0
 10 -48 58 -17 86 1 c 1
 74.1489 7.38136 56.4804 15.4248 56.4804 31.9489 c 0
 56.4804 33.5508 56.6465 35.2324 57 37 c 0
 62 62 113 97 133 111 c 1
 103.883 125.558 84.3002 149.651 84.3002 182.649 c 0
 84.3002 188.183 84.851 193.968 86 200 c 0
 99 268 159 314 226 314 c 0
 252 314 267 307 289 298 c 0
 303.444 292.444 320.049 291.21 337.1 291.21 c 0
 350.741 291.21 364.667 292 378 292 c 1
 373 265 l 1
 316 265 l 1
 318.5 253.5 319.75 244 319.75 234.25 c 0
 319.75 224.5 318.5 214.5 316 202 c 0
 305 143 245 102 189 102 c 0
 176 102 164 105 152 105 c 0
 139.614 105 102.844 74.5578 102.844 60.2677 c 0
 102.844 44.931 141.421 44 153 44 c 2
 240 40 l 2
 278.401 38.2139 310.422 18.8821 310.422 -18.7078 c 0
198 119 m 0
 243.743 119 263.804 167.092 263.804 214.372 c 0
 263.804 252.527 250.947 295 212 295 c 0
 162.718 295 145.068 243.746 145.068 191.958 c 0
 145.068 154.762 156.244 119 198 119 c 0
287 -44 m 0
 287.486 -41.75 287.718 -39.6516 287.718 -37.6944 c 0
 287.718 -7.468 232.541 -10.9392 210 -10 c 0
 172 -9 135 -9 100 -1 c 1
 81.3951 -19.6048 54.3913 -40.8035 54.3913 -67.3464 c 0
 54.3913 -104.601 121.44 -110 148 -110 c 0
 187 -110 277 -98 287 -44 c 0
EndSplineSet
Back
401.855 295.898 m 1
 341.797 295.898 l 1
 344.238 284.668 345.215 273.438 345.703 262.695 c 0
 345.703 251.465 344.727 240.234 341.797 229.004 c 0
 334.473 196.777 318.359 171.387 292.969 151.855 c 0
 267.578 132.812 238.281 123.047 205.078 123.047 c 0
 198.242 123.047 191.895 123.047 185.547 123.535 c 0
 179.199 124.023 172.852 124.512 166.992 125.977 c 2
 164.062 125.977 l 2
 158.691 125.977 148.926 120.605 134.766 109.863 c 1
 121.582 96.6797 113.77 87.4023 111.816 82.0312 c 0
 109.863 70.8008 127.93 63.9648 166.016 62.0117 c 2
 256.836 57.1289 l 2
 281.738 55.6641 301.27 48.3398 315.43 35.1562 c 0
 329.59 21.4844 334.473 3.90625 329.102 -18.0664 c 0
 325.195 -38.0859 314.941 -55.6641 298.34 -70.3125 c 0
 282.227 -85.4492 263.184 -98.1445 242.188 -108.398 c 0
 220.703 -118.652 198.73 -126.465 176.27 -131.836 c 0
 154.297 -137.207 134.277 -140.137 117.188 -140.137 c 0
 104.98 -140.137 91.7969 -138.672 78.125 -136.719 c 0
 63.9648 -134.277 51.2695 -130.371 39.5508 -125 c 0
 27.832 -119.629 18.5547 -112.305 12.207 -103.516 c 0
 5.37109 -94.7266 3.41797 -83.4961 5.85938 -69.8242 c 0
 11.2305 -46.875 40.5273 -18.0664 94.2383 16.1133 c 1
 71.2891 29.7852 61.0352 42.4805 62.9883 54.1992 c 0
 66.8945 69.8242 94.2383 96.1914 144.043 132.812 c 1
 104.492 152.832 89.3555 184.57 98.1445 227.051 c 0
 102.051 245.117 108.887 261.23 118.164 275.879 c 0
 127.441 290.527 138.672 303.223 151.855 313.477 c 0
 165.527 323.73 180.176 332.031 196.289 337.891 c 0
 212.891 344.238 229.98 347.168 248.047 347.168 c 0
 257.324 347.168 267.09 345.703 277.832 342.773 c 0
 288.574 340.332 300.781 336.426 313.965 331.055 c 0
 319.824 328.125 326.66 326.66 333.984 325.684 c 0
 341.309 324.707 347.656 324.219 353.027 324.219 c 2
 408.203 324.219 l 1
 401.855 295.898 l 1
282.227 210.938 m 0
 284.18 221.68 285.156 232.422 285.645 243.164 c 0
 285.645 253.906 285.156 264.648 283.203 275.879 c 0
 276.855 310.059 260.742 327.148 233.887 327.148 c 0
 198.242 327.148 175.293 305.176 166.016 262.207 c 0
 147.949 181.152 164.062 141.113 213.867 141.113 c 0
 249.512 141.113 271.973 164.551 282.227 210.938 c 0
307.129 -28.8086 m 0
 308.105 -20.5078 306.641 -13.1836 301.27 -7.32422 c 0
 296.387 -1.95312 289.062 1.95312 278.809 3.90625 c 0
 276.367 4.88281 270.508 5.37109 261.719 5.37109 c 0
 252.441 5.85938 240.723 6.83594 226.074 7.8125 c 0
 204.102 9.27734 186.523 10.2539 172.852 11.2305 c 0
 159.668 11.7188 148.926 12.207 140.625 12.6953 c 0
 132.324 12.6953 125.977 13.1836 121.582 13.6719 c 0
 117.188 13.6719 112.793 14.1602 108.887 15.1367 c 1
 80.5664 -11.7188 64.4531 -32.7148 61.0352 -47.8516 c 0
 54.1992 -82.0312 86.9141 -99.1211 159.18 -99.1211 c 0
 172.363 -99.1211 186.035 -97.6562 199.707 -95.2148 c 0
 213.379 -92.2852 227.539 -88.3789 243.164 -83.0078 c 0
 280.762 -69.8242 302.246 -51.7578 307.129 -28.8086 c 0
EndSplineSet
EndChar
StartChar: h
Encoding: 104 104 73
Width: 341
Flags: W
HStem: 0 21G<6 154 188 333> 277 37<236 268>
VStem: 277.073 59.0151<230 246>
DStem: 126 391 197 464 64 70 157 258 126 391 152 234 64 70 121 70 274 205 332 206 248 70 306 70
Fore
333 0 m 1
 188 0 l 1
 190 10 l 1
 233 14 239 27 248 70 c 2
 274 205 l 2
 275.852 214.522 277.073 224.045 277.073 232.901 c 0
 277.073 257.526 267.626 277 236 277 c 0
 206 277 176 255 152 234 c 1
 121 70 l 2
 118.348 57.3301 116.651 47.2647 116.651 39.2667 c 0
 116.651 20.1205 126.375 12.8214 156 10 c 1
 154 0 l 1
 6 0 l 1
 8 10 l 1
 52 16 55 28 64 70 c 2
 126 391 l 2
 127.136 396.678 127.734 401.675 127.734 405.998 c 0
 127.734 420.101 121.368 427.034 106.519 427.034 c 0
 101.867 427.034 96.3824 426.354 90 425 c 1
 92 436 l 1
 127 446 160 455 195 466 c 1
 197 464 l 1
 157 258 l 1
 159 258 l 1
 189 292 226 314 268 314 c 0
 319.419 314 336.089 283.962 336.089 244.226 c 0
 336.089 232.186 334.558 219.255 332 206 c 2
 306 70 l 2
 303.234 55.8244 301.066 45.1155 301.066 36.8813 c 0
 301.066 21.2998 308.83 14.5798 335 10 c 1
 333 0 l 1
EndSplineSet
Back
377.93 0 m 1
 219.238 0 l 1
 221.191 9.76562 l 1
 239.746 12.207 253.906 16.1133 263.184 22.9492 c 0
 269.043 26.8555 273.438 33.6914 276.855 42.9688 c 0
 280.273 52.2461 283.203 63.4766 286.133 77.1484 c 2
 317.871 227.051 l 1
 330.078 280.273 316.406 307.129 276.855 307.129 c 0
 252.441 307.129 221.191 291.016 184.082 258.789 c 1
 145.02 77.1484 l 2
 142.09 63.4766 141.113 52.2461 141.113 42.9688 c 0
 141.113 34.1797 142.578 27.832 145.996 22.9492 c 0
 148.438 19.043 160.645 14.6484 182.129 9.76562 c 1
 180.176 0 l 1
 18.0664 0 l 1
 20.0195 9.76562 l 1
 31.25 11.2305 41.0156 13.6719 48.3398 17.5781 c 0
 56.1523 20.9961 61.5234 25.3906 64.9414 29.7852 c 0
 70.8008 37.1094 76.6602 53.2227 82.0312 77.1484 c 2
 164.062 459.961 l 1
 158.203 466.797 149.414 470.215 138.184 470.215 c 2
 119.141 469.238 l 1
 121.094 481.934 l 1
 235.84 516.113 l 1
 237.793 514.16 l 1
 189.941 286.133 l 1
 227.539 326.66 268.555 347.168 313.965 347.168 c 0
 375.977 347.168 398.438 307.129 381.836 228.027 c 2
 350.098 77.1484 l 1
 345.215 53.2227 344.238 37.5977 346.191 30.7617 c 0
 348.145 26.8555 352.051 23.4375 357.91 20.0195 c 0
 363.77 16.6016 371.094 13.1836 379.883 9.76562 c 1
 377.93 0 l 1
EndSplineSet
EndChar
StartChar: i
Encoding: 105 105 74
Width: 189
Flags: W
HStem: 0 21G<11 173> 397 69<164 178>
VStem: 136.231 71.4916<424 438.757>
DStem: 109 228 183 312 79 70 136 70
Fore
207.723 438.757 m 0
 207.723 415 184.428 397 164 397 c 0
 147.465 397 136.231 408.36 136.231 424.49 c 0
 136.231 448.2 157.985 466 178 466 c 0
 195.559 466 207.723 454.437 207.723 438.757 c 0
173 0 m 1
 11 0 l 1
 13 10 l 1
 60 12 69 22 79 70 c 2
 109 228 l 2
 110.512 235.181 112.024 242.791 112.024 249.48 c 0
 112.024 260.488 107.929 269 93 269 c 0
 84 269 75 268 66 266 c 1
 68 277 l 1
 105 288 144 301 180 314 c 1
 183 312 l 1
 136 70 l 2
 133.424 57.1204 131.749 46.9441 131.749 38.9084 c 0
 131.749 18.8681 142.166 12.1414 175 10 c 1
 173 0 l 1
EndSplineSet
Back
195.801 0 m 1
 198.242 9.76562 l 1
 171.875 14.1602 157.227 19.043 153.809 24.9023 c 0
 149.414 36.1328 149.902 53.2227 154.785 76.1719 c 1
 212.891 347.168 l 1
 209.961 348.145 l 1
 83.9844 306.152 l 1
 82.0312 294.922 l 1
 112.793 298.828 l 1
 129.883 298.828 134.766 283.691 128.906 252.93 c 1
 90.8203 76.1719 l 2
 88.3789 63.4766 85.4492 52.7344 82.0312 43.9453 c 0
 78.6133 35.1562 74.2188 28.3203 68.8477 23.4375 c 0
 63.4766 18.5547 57.1289 15.1367 48.8281 13.1836 c 0
 41.0156 11.2305 30.7617 9.76562 18.0664 9.76562 c 1
 16.1133 0 l 1
 195.801 0 l 1
166.016 479.004 m 0
 163.574 467.773 165.039 458.496 170.898 451.172 c 0
 176.758 443.848 185.547 439.941 196.777 439.941 c 0
 208.496 439.941 218.262 443.848 227.051 451.172 c 0
 235.84 458.496 241.211 467.773 244.141 479.004 c 0
 246.094 490.234 244.141 499.512 238.281 506.836 c 0
 232.91 514.16 224.121 518.066 212.891 518.066 c 0
 201.66 518.066 191.406 514.16 182.617 506.836 c 0
 173.34 499.512 167.969 490.234 166.016 479.004 c 0
EndSplineSet
EndChar
StartChar: j
Encoding: 106 106 75
Width: 189
Flags: W
HStem: -149 64<-37 -13> 397 69<174 188>
VStem: 146.231 70.535<424.49 439.139>
DStem: 118 228 193 312 66 -40 132 0
Fore
216.766 439.139 m 0
 216.766 415.431 194.704 397 174 397 c 0
 157.465 397 146.231 408.36 146.231 424.49 c 0
 146.231 448.2 167.985 466 188 466 c 0
 205.417 466 216.766 454.625 216.766 439.139 c 0
-70.448 -116.052 m 0
 -70.448 -97.2091 -52.222 -85 -37 -85 c 0
 -8 -85 -8 -126 16 -126 c 0
 55 -126 61 -66 66 -40 c 2
 118 228 l 2
 119.54 235.313 121.079 243.071 121.079 249.847 c 0
 121.079 260.676 117.147 269 103 269 c 0
 93 269 83 268 74 266 c 1
 76 277 l 1
 114 288 152 300 189 314 c 1
 193 312 l 1
 132 0 l 2
 117 -78 76 -149 -13 -149 c 0
 -35.5463 -149 -70.448 -141.057 -70.448 -116.052 c 0
EndSplineSet
Back
221.191 347.168 m 1
 217.773 348.145 l 1
 91.7969 306.152 l 1
 89.8438 294.922 l 1
 121.094 298.828 l 1
 137.695 298.828 143.066 283.691 137.207 252.93 c 1
 83.0078 0 l 1
 82.0312 0 l 1
 75.1953 -32.2266 l 2
 70.3125 -52.7344 66.4062 -69.3359 63.4766 -82.0312 c 0
 60.5469 -94.7266 57.6172 -103.516 55.1758 -107.91 c 0
 43.457 -127.93 30.2734 -138.184 15.1367 -138.184 c 0
 10.2539 -137.207 1.46484 -129.395 -12.207 -113.77 c 1
 -22.4609 -99.1211 -33.2031 -91.7969 -43.9453 -91.7969 c 0
 -45.8984 -91.7969 -52.7344 -94.2383 -63.9648 -99.1211 c 1
 -71.2891 -105.469 -76.1719 -112.793 -78.125 -120.117 c 0
 -83.9844 -148.438 -64.4531 -163.086 -19.043 -163.086 c 0
 23.4375 -163.086 59.082 -149.902 86.9141 -124.023 c 0
 115.234 -98.1445 134.766 -59.082 145.996 -6.83594 c 1
 221.191 347.168 l 1
173.828 479.004 m 0
 171.387 467.773 172.852 458.496 179.199 451.172 c 0
 185.059 443.848 193.848 439.941 205.078 439.941 c 0
 216.309 439.941 226.562 443.848 234.863 451.172 c 0
 243.652 458.496 249.512 467.773 251.953 479.004 c 0
 253.906 490.234 251.953 499.512 246.582 506.836 c 0
 240.723 514.16 232.422 518.066 221.191 518.066 c 0
 209.473 518.066 199.707 514.16 190.43 506.836 c 0
 181.641 499.512 175.781 490.234 173.828 479.004 c 0
EndSplineSet
EndChar
StartChar: k
Encoding: 107 107 76
Width: 341
Flags: W
HStem: 0 10<198 214> 298 9<248 263.192 248 386>
DStem: 131 385 203 465 67 56 148 181 131 385 146 169 67 56 122 46
Fore
205.522 9.88927 m 0
 214.539 9.88927 227.04 13.1186 227.04 21.3832 c 0
 227.04 32.3906 154.907 157.16 148 169 c 1
 146 169 l 1
 122 46 l 2
 121.166 41.8323 120.772 38.175 120.772 34.9623 c 0
 120.772 11.1956 142.334 11.7618 167 10 c 1
 165 0 l 1
 5 0 l 1
 7 10 l 1
 45 16 59 14 67 56 c 2
 131 385 l 2
 132.6 393.2 133.44 399.96 133.44 405.48 c 0
 133.44 421.53 126.339 427.097 110.169 427.097 c 0
 104.094 427.097 96.7393 426.311 88 425 c 1
 90 436 l 1
 127 446 164 455 202 466 c 1
 203 465 l 1
 148 181 l 1
 150 180 l 1
 258 262 l 2
 265.671 267.479 278.24 277.039 278.24 286.996 c 0
 278.24 298 254.514 298 246 298 c 1
 248 307 l 1
 388 307 l 1
 386 297 l 1
 314.615 297 252.36 234.817 198 193 c 1
 277 60 l 2
 292 33 312 13 347 10 c 1
 345 0 l 1
 196 0 l 1
 198 10 l 1
 200.118 10 202.734 9.88927 205.522 9.88927 c 0
EndSplineSet
Back
392.09 0 m 1
 229.004 0 l 1
 231.934 12.207 l 1
 244.141 12.207 l 2
 255.371 12.207 262.207 15.625 265.137 22.9492 c 1
 176.758 187.012 l 1
 147.949 49.8047 l 2
 142.578 25.3906 153.809 13.1836 181.152 13.1836 c 2
 195.801 12.207 l 1
 192.871 0 l 1
 17.0898 0 l 1
 20.0195 12.207 l 1
 45.4102 15.1367 59.5703 18.5547 62.0117 20.9961 c 0
 67.3828 25.8789 71.7773 30.7617 76.1719 37.1094 c 0
 80.0781 42.9688 83.0078 51.2695 84.9609 62.0117 c 1
 163.086 425.781 l 1
 166.504 443.848 167.48 455.078 166.016 458.984 c 0
 164.551 462.402 162.109 465.332 158.691 467.285 c 0
 154.785 469.727 149.414 471.191 142.09 471.191 c 2
 138.184 471.191 l 1
 117.188 469.238 l 1
 119.141 479.98 l 1
 242.188 514.16 l 1
 246.094 513.184 l 1
 179.199 198.242 l 1
 299.805 289.062 l 1
 314.453 298.34 323.242 307.129 325.195 314.941 c 0
 327.148 323.73 314.941 328.125 289.062 328.125 c 1
 291.016 339.844 l 1
 443.848 339.844 l 1
 441.895 327.148 l 1
 430.176 327.148 418.945 325.684 409.668 323.73 c 0
 399.902 321.289 391.113 318.359 382.812 314.941 c 0
 376.953 311.523 367.676 306.641 355.469 299.316 c 0
 343.262 292.48 329.59 283.691 314.941 272.949 c 2
 231.934 211.914 l 1
 317.871 65.918 l 2
 328.125 49.3164 339.355 36.1328 352.051 26.8555 c 0
 364.746 17.5781 378.906 12.6953 395.02 12.207 c 1
 392.09 0 l 1
EndSplineSet
EndChar
StartChar: l
Encoding: 108 108 77
Width: 189
Flags: W
HStem: 0 21G<14 175>
DStem: 142 385 214 465 78 59 135 57
Fore
175 0 m 1
 14 0 l 1
 16 10 l 1
 55 13 71 20 78 59 c 2
 142 385 l 2
 143.681 393.405 144.525 400.205 144.525 405.681 c 0
 144.525 422.395 136.663 426.768 120.755 426.768 c 0
 113.971 426.768 105.724 425.972 96 425 c 1
 98 436 l 1
 135 445 174 455 213 466 c 1
 214 465 l 1
 135 57 l 2
 133.496 49.2939 132.735 42.8949 132.735 37.5706 c 0
 132.735 14.567 146.954 11.6241 177 10 c 1
 175 0 l 1
EndSplineSet
Back
193.848 0 m 1
 16.1133 0 l 1
 18.0664 9.76562 l 1
 40.0391 12.6953 56.1523 17.5781 66.4062 24.9023 c 0
 76.6602 32.2266 83.9844 45.8984 87.8906 65.918 c 1
 165.039 425.781 l 1
 166.504 435.547 167.48 442.383 168.457 447.266 c 0
 169.434 452.637 169.434 456.543 167.969 459.961 c 0
 163.574 467.773 155.273 472.168 144.043 472.168 c 2
 113.77 470.215 l 1
 117.188 482.91 l 1
 126.465 484.863 136.719 487.305 147.949 490.234 c 0
 159.18 492.676 166.992 494.629 170.898 496.094 c 2
 247.07 517.09 l 1
 150.879 63.9648 l 1
 143.066 27.832 158.203 9.76562 195.801 9.76562 c 1
 193.848 0 l 1
EndSplineSet
EndChar
StartChar: m
Encoding: 109 109 78
Width: 531
Flags: W
HStem: 0 21G<11 163 195 348 380 529> 279 35<249 279 429 462>
VStem: 469.423 55.5222<223 247>
DStem: 104 231 162 238 70 58 125 46 282 207 345 237 253 59 312 65 466 209 520 193 436 59 492 52
Fore
529 0 m 1
 380 0 l 1
 382 10 l 1
 420 14 429 19 436 59 c 2
 466 209 l 2
 467.996 219.265 469.423 229.367 469.423 238.565 c 0
 469.423 261.625 460.454 279 429 279 c 0
 396 279 368 264 345 237 c 1
 312 65 l 2
 310.118 55.5882 309.066 47.6159 309.066 40.9137 c 0
 309.066 19.1315 320.176 10.7647 350 10 c 1
 348 0 l 1
 195 0 l 1
 197 10 l 1
 234 12 246 20 253 59 c 2
 282 207 l 2
 284.133 217.056 285.709 227.67 285.709 237.567 c 0
 285.709 260.148 277.506 279 249 279 c 0
 221 279 191 266 169 245 c 0
 167 244 163 240 162 238 c 2
 125 46 l 2
 124.248 41.9891 123.889 38.4337 123.889 35.2809 c 0
 123.889 13.2794 141.384 10.8747 165 10 c 1
 163 0 l 1
 11 0 l 1
 13 10 l 1
 49 11 63 20 70 58 c 2
 104 231 l 2
 105.512 238.181 107.024 246.077 107.024 253.121 c 0
 107.024 264.714 102.929 274 88 274 c 0
 80 274 73 274 66 272 c 1
 68 283 l 1
 102 292 136 302 170 314 c 1
 174 313 l 1
 164 262 l 1
 199 285 239 314 279 314 c 0
 317 314 339 293 342 257 c 1
 375 288 419 314 462 314 c 0
 511.446 314 524.945 279.594 524.945 240.221 c 0
 524.945 224.65 522.834 208.303 520 193 c 2
 492 52 l 2
 490.68 44.8362 490 38.9518 490 34.1057 c 0
 490 13.2459 502.598 11.623 531 10 c 1
 529 0 l 1
EndSplineSet
Back
595.215 0 m 1
 430.176 0 l 1
 432.129 9.76562 l 1
 439.941 11.2305 446.289 12.6953 451.66 13.6719 c 0
 456.543 14.6484 460.449 15.1367 463.867 16.1133 c 0
 474.609 19.5312 481.934 26.8555 485.84 39.0625 c 1
 494.141 65.918 l 1
 527.832 225.098 l 2
 534.18 252.93 535.156 271.973 532.227 282.227 c 0
 527.832 299.805 514.16 309.082 491.211 309.082 c 0
 454.102 309.082 423.34 293.457 397.949 262.207 c 1
 356.934 69.8242 l 1
 349.121 29.7852 362.305 9.76562 396.973 9.76562 c 1
 395.02 0 l 1
 226.074 0 l 1
 228.027 9.76562 l 1
 238.77 11.2305 247.559 13.1836 254.883 15.1367 c 0
 262.207 17.0898 268.555 20.0195 272.949 23.9258 c 0
 277.832 27.832 281.738 33.2031 284.668 39.5508 c 0
 287.598 45.8984 290.039 54.1992 291.992 64.9414 c 1
 327.148 229.004 l 2
 338.379 282.227 326.172 309.082 291.016 309.082 c 0
 267.578 309.082 245.117 301.758 224.121 287.109 c 0
 215.82 281.738 209.473 277.344 204.59 273.438 c 0
 199.707 270.02 196.289 266.113 194.824 263.184 c 1
 149.902 50.7812 l 2
 144.043 23.4375 158.203 9.76562 191.895 9.76562 c 1
 189.941 0 l 1
 21.9727 0 l 1
 23.9258 9.76562 l 1
 59.5703 9.76562 81.0547 27.832 88.8672 63.9648 c 1
 131.836 268.066 l 1
 135.254 279.785 134.277 290.039 128.906 297.852 c 0
 127.441 301.27 122.559 303.223 112.793 303.223 c 0
 107.91 303.223 103.027 302.734 99.1211 302.734 c 0
 95.2148 302.246 91.3086 301.758 87.8906 300.781 c 1
 90.8203 312.988 l 1
 97.6562 314.453 104.98 316.406 113.281 318.848 c 0
 122.07 321.777 128.906 323.73 133.789 325.195 c 2
 204.102 347.168 l 1
 208.984 347.168 l 1
 195.801 289.062 l 1
 227.539 307.617 250 320.312 264.648 327.637 c 0
 278.809 334.473 287.598 338.867 291.016 339.844 c 0
 304.199 344.727 315.918 347.168 326.172 347.168 c 0
 366.211 347.168 388.672 326.172 394.043 285.156 c 1
 439.453 326.172 484.375 347.168 528.809 347.168 c 0
 587.891 347.168 607.422 301.758 587.891 211.914 c 2
 555.176 57.1289 l 1
 549.805 29.7852 557.617 15.1367 579.102 13.1836 c 2
 597.168 9.76562 l 1
 595.215 0 l 1
EndSplineSet
EndChar
StartChar: n
Encoding: 110 110 79
Width: 341
Flags: W
HStem: 0 21G<12 157 189 331> 277 37<234 271>
VStem: 275.907 58.2627<229 244>
DStem: 100 231 158 238 67 61 121 46 273 210 331 212 245 68 301 55
Fore
331 0 m 1
 189 0 l 1
 191 10 l 1
 230 13 238 31 245 68 c 2
 273 210 l 2
 274.775 219.635 275.907 228.692 275.907 236.844 c 0
 275.907 260.842 266.097 277 234 277 c 0
 208 277 179 255 158 238 c 1
 121 46 l 2
 120.244 42.2189 119.885 38.8508 119.885 35.8477 c 0
 119.885 15.0235 137.151 11.7479 159 10 c 1
 157 0 l 1
 12 0 l 1
 14 10 l 1
 50 12 60 27 67 61 c 2
 100 231 l 2
 101.512 238.181 103.024 246.077 103.024 253.121 c 0
 103.024 264.714 98.9288 274 84 274 c 0
 78 274 70 274 64 272 c 1
 66 283 l 1
 99 292 133 302 166 314 c 1
 171 313 l 1
 160 259 l 1
 195 286 228 314 271 314 c 0
 317.141 314 334.17 281.724 334.17 242.848 c 0
 334.17 232.856 333.045 222.428 331 212 c 2
 301 55 l 2
 299.395 47.6612 298.526 41.4795 298.526 36.274 c 0
 298.526 18.7814 308.339 12.312 333 10 c 1
 331 0 l 1
EndSplineSet
Back
374.023 0 m 1
 219.238 0 l 1
 221.191 9.76562 l 1
 240.234 12.207 252.441 16.1133 256.836 22.9492 c 1
 267.578 30.2734 275.879 47.3633 282.227 74.2188 c 1
 314.941 231.934 l 1
 326.172 279.785 312.5 304.199 273.926 304.199 c 0
 254.883 304.199 226.562 290.527 189.941 263.184 c 1
 145.02 50.7812 l 2
 140.137 28.3203 153.809 14.6484 185.059 9.76562 c 1
 183.105 0 l 1
 23.9258 0 l 1
 25.8789 9.76562 l 1
 48.8281 14.1602 l 1
 58.1055 17.0898 65.918 23.4375 71.7773 33.2031 c 0
 78.125 42.4805 82.5195 54.1992 84.9609 67.8711 c 1
 125 254.883 l 1
 128.906 275.879 129.395 289.551 125.977 296.875 c 0
 125.488 298.34 123.047 299.316 119.141 299.805 c 0
 115.234 300.781 111.328 300.781 107.91 300.781 c 0
 97.168 300.781 89.8438 300.293 85.9375 298.828 c 1
 87.8906 312.012 l 1
 96.6797 313.477 104.98 315.43 113.281 317.871 c 0
 122.07 320.801 127.93 322.754 131.836 324.219 c 0
 142.09 327.148 152.832 331.055 164.551 334.473 c 0
 176.27 338.379 187.5 341.797 199.219 346.191 c 1
 206.055 346.191 l 1
 191.895 284.18 l 1
 205.566 295.41 216.797 304.688 227.051 312.5 c 0
 236.816 320.312 245.605 326.172 252.93 330.078 c 0
 275.879 340.82 296.875 346.191 315.918 346.191 c 0
 373.535 346.191 394.531 308.105 378.906 232.91 c 1
 341.797 61.0352 l 1
 337.891 44.9219 338.379 32.2266 342.773 22.9492 c 1
 346.191 19.5312 350.586 17.0898 355.469 15.625 c 0
 360.352 13.6719 367.188 12.207 375.977 9.76562 c 1
 374.023 0 l 1
EndSplineSet
EndChar
StartChar: o
Encoding: 111 111 80
Width: 341
Flags: W
HStem: -7 19<168 183> 295 19<217 230>
VStem: 46.3556 65.0245<104 138> 290.477 64.3623<184 202>
Fore
354.84 194.077 m 0
 354.84 83.7208 262.535 -7 168 -7 c 0
 89.2071 -7 46.3556 48.0123 46.3556 119.088 c 0
 46.3556 227.228 134.075 314 228 314 c 0
 309.413 314 354.84 266.263 354.84 194.077 c 0
181 12 m 0
 259.25 12 290.477 118.56 290.477 190.213 c 0
 290.477 241.869 274.397 295 219 295 c 0
 141.064 295 111.38 201.55 111.38 121.81 c 0
 111.38 67.6588 126.278 12 181 12 c 0
EndSplineSet
Back
66.8945 170.898 m 0
 62.5 146.973 61.5234 124.512 64.9414 103.027 c 0
 68.3594 81.543 75.6836 62.9883 86.4258 46.875 c 0
 97.6562 30.7617 112.305 18.5547 130.371 8.78906 c 0
 148.926 -0.488281 170.41 -4.88281 194.824 -4.88281 c 0
 219.727 -4.88281 243.164 -0.488281 265.625 8.78906 c 0
 287.598 18.5547 308.105 30.7617 326.172 46.875 c 0
 344.238 62.9883 359.375 81.543 372.559 103.027 c 0
 385.742 124.512 394.531 146.973 398.926 170.898 c 0
 404.297 194.824 405.273 217.773 401.367 238.77 c 0
 397.949 260.254 390.137 278.809 378.906 294.922 c 0
 367.676 311.035 353.027 323.73 334.473 333.008 c 0
 316.406 342.285 294.434 347.168 270.02 347.168 c 0
 245.117 347.168 222.168 342.285 200.195 333.008 c 0
 178.223 323.73 158.203 311.035 140.137 294.922 c 0
 122.07 278.809 106.445 260.254 94.2383 238.77 c 0
 81.543 217.773 72.2656 194.824 66.8945 170.898 c 0
133.789 169.922 m 0
 138.672 191.406 145.02 211.426 152.832 230.469 c 0
 161.133 249.512 170.41 266.113 181.641 279.785 c 0
 192.383 293.945 205.078 305.176 219.238 313.477 c 0
 232.91 321.777 248.535 326.172 265.137 326.172 c 0
 282.227 326.172 296.387 321.777 307.129 313.477 c 0
 317.871 305.176 325.684 293.945 330.566 279.785 c 0
 335.449 266.113 337.891 249.512 337.402 230.469 c 0
 337.402 211.426 334.473 191.406 330.078 169.922 c 0
 325.195 148.438 319.336 128.418 311.523 109.375 c 0
 303.711 90.332 294.434 73.7305 284.18 59.5703 c 0
 273.438 45.4102 260.742 33.6914 246.582 25.3906 c 0
 231.934 17.0898 216.309 13.1836 199.219 13.1836 c 0
 182.129 13.1836 168.945 17.0898 158.691 25.3906 c 0
 147.949 33.6914 140.137 45.4102 134.766 59.5703 c 0
 129.883 73.7305 126.953 90.332 126.953 108.887 c 0
 126.953 128.418 129.395 148.438 133.789 169.922 c 0
EndSplineSet
EndChar
StartChar: p
Encoding: 112 112 81
Width: 341
Flags: W
HStem: -148 12<117 143> -7 22<171 183> 273 41<228 269>
VStem: 294.815 61.9444<185 205>
DStem: 96 230 153 228 34 -89 121 60 96 230 113 23 34 -89 92 -85
Fore
356.76 205.587 m 0
 356.76 96.6343 270.805 -7 177 -7 c 0
 148 -7 130 3 113 23 c 1
 92 -85 l 2
 90.3503 -93.6151 89.507 -100.785 89.507 -106.751 c 0
 89.507 -133.332 106.249 -136 143 -136 c 1
 140 -148 l 1
 -26 -148 l 1
 -24 -137 l 1
 14 -134 27 -126 34 -89 c 2
 96 230 l 2
 97.5434 238.378 98.4062 245.104 98.4062 250.455 c 0
 98.4062 264.743 92.2555 269.235 76.4857 269.235 c 0
 71.3739 269.235 65.2514 268.763 58 268 c 1
 60 279 l 1
 96 290 131 301 165 314 c 1
 170 313 l 1
 160 263 l 1
 161 262 l 1
 191 294 228 314 269 314 c 0
 332.322 314 356.76 261.276 356.76 205.587 c 0
181 15 m 0
 257.428 15 294.815 118.486 294.815 186.868 c 0
 294.815 230.853 279.261 273 228 273 c 0
 207 273 158 253 153 228 c 2
 121 60 l 2
 120.735 58.6196 120.607 57.259 120.607 55.9199 c 0
 120.607 32.0361 161.115 15 181 15 c 0
EndSplineSet
Back
111.816 -85.9375 m 1
 136.23 25.8789 l 1
 154.785 5.37109 178.223 -4.88281 206.055 -4.88281 c 0
 231.445 -4.88281 254.883 0.488281 276.855 11.2305 c 0
 298.828 21.4844 318.359 35.6445 335.449 53.7109 c 0
 352.539 71.2891 367.188 91.3086 378.906 114.258 c 0
 391.113 137.695 399.414 161.133 403.809 185.059 c 0
 408.203 204.102 409.668 223.633 409.18 243.164 c 0
 408.203 262.207 404.297 279.785 397.461 294.922 c 0
 390.625 310.547 380.371 322.754 367.188 332.52 c 0
 353.516 342.285 336.426 347.168 314.941 347.168 c 0
 270.996 347.168 229.98 328.125 191.895 290.039 c 1
 201.172 347.168 l 1
 83.9844 309.082 l 1
 81.0547 296.875 l 1
 104.98 297.852 l 2
 117.676 297.852 124.512 293.945 125 286.133 c 0
 126.465 280.762 125 270.02 121.094 253.906 c 1
 46.875 -91.7969 l 1
 43.457 -109.375 37.5977 -121.582 28.8086 -128.418 c 0
 20.5078 -135.742 5.85938 -139.16 -14.1602 -139.16 c 1
 -16.1133 -150.879 l 1
 163.086 -150.879 l 1
 166.016 -137.207 l 1
 139.16 -137.207 123.047 -133.789 117.188 -127.93 c 0
 108.398 -121.094 106.445 -107.422 111.816 -85.9375 c 1
334.961 161.133 m 0
 327.148 122.559 313.965 90.8203 295.898 65.918 c 0
 273.438 33.2031 245.117 17.0898 211.914 17.0898 c 0
 195.801 17.0898 181.152 21.4844 166.992 30.7617 c 1
 148.438 41.0156 140.625 53.2227 144.043 66.8945 c 1
 184.082 252.93 l 1
 187.5 259.766 191.895 266.113 198.242 271.973 c 0
 204.102 277.832 210.938 283.203 219.238 287.598 c 0
 227.051 291.992 235.352 295.41 244.141 297.852 c 0
 252.441 300.781 261.23 301.758 269.043 301.758 c 0
 286.133 301.758 300.293 297.852 310.547 289.062 c 0
 320.801 280.273 328.613 269.043 333.496 255.371 c 0
 338.379 241.699 340.82 226.562 340.332 209.961 c 0
 340.332 193.359 338.379 176.758 334.961 161.133 c 0
EndSplineSet
EndChar
StartChar: q
Encoding: 113 113 82
Width: 341
Flags: W
HStem: -7 42<127 170> 295 19<214 239>
VStem: 39.2603 63.6385<98 123.096>
DStem: 241 42 350 311 216 -85 271 -96 277 227 350 311 250 87 271 -96
Fore
39.2603 98.5351 m 0
 39.2603 216.875 130.795 314 230 314 c 0
 262 314 277 306 302 290 c 1
 315 297 335 311 348 314 c 1
 350 311 l 1
 271 -96 l 2
 270.036 -101.3 269.563 -105.826 269.563 -109.72 c 0
 269.563 -130.067 282.497 -133.124 306 -139 c 1
 304 -148 l 1
 143 -148 l 1
 145 -137 l 1
 186 -135 208 -128 216 -85 c 2
 241 42 l 1
 237 42 l 1
 216 14 158 -7 127 -7 c 0
 61.918 -7 39.2603 42.8025 39.2603 98.5351 c 0
224 295 m 0
 144.489 295 102.899 195.779 102.899 123.096 c 0
 102.899 78.4754 119.412 35 170 35 c 0
 181 35 193 37 205 41 c 0
 234 51 244 57 250 87 c 2
 277 227 l 2
 278.638 235.007 279.481 242.352 279.481 249.01 c 0
 279.481 278.94 262.447 295 224 295 c 0
EndSplineSet
Back
342.773 -160.156 m 1
 346.191 -147.949 l 1
 315.43 -142.09 302.246 -127.441 307.129 -104.98 c 2
 401.855 345.215 l 1
 400.879 347.168 l 1
 396.973 346.191 l 1
 349.121 319.824 l 1
 320.801 337.891 294.434 347.168 270.02 347.168 c 0
 244.141 347.168 219.727 341.797 196.777 332.031 c 0
 174.316 321.777 153.809 308.105 135.742 291.016 c 0
 117.188 273.438 101.562 253.906 88.8672 231.445 c 0
 76.1719 208.984 67.3828 185.547 62.0117 160.156 c 0
 57.1289 139.16 55.1758 119.141 55.6641 99.1211 c 0
 55.6641 79.1016 59.082 61.5234 65.4297 45.8984 c 0
 71.7773 30.7617 82.0312 18.5547 96.1914 8.78906 c 0
 109.863 -0.488281 128.418 -4.88281 150.879 -4.88281 c 0
 160.156 -4.88281 171.387 -3.90625 184.57 -0.976562 c 0
 197.266 1.46484 209.473 5.85938 221.191 11.2305 c 2
 252.93 28.8086 l 1
 276.855 46.875 l 1
 248.047 -88.8672 l 1
 244.141 -108.887 235.352 -123.535 222.168 -132.324 c 0
 208.496 -141.602 190.43 -145.996 166.992 -145.996 c 1
 164.062 -160.156 l 1
 342.773 -160.156 l 1
288.086 97.168 m 1
 275.879 67.8711 l 1
 258.789 48.8281 232.422 39.0625 196.777 39.0625 c 0
 179.688 39.0625 166.016 43.457 155.273 51.7578 c 0
 145.02 60.5469 137.695 71.7773 132.812 85.9375 c 0
 128.418 100.098 125.977 115.234 125.977 131.836 c 0
 125.977 148.438 127.441 165.039 130.859 181.152 c 0
 134.766 198.242 140.625 215.332 147.461 232.422 c 0
 154.297 249.512 163.574 265.137 173.828 278.809 c 0
 184.57 292.969 197.266 304.199 211.914 312.988 c 0
 226.562 321.777 243.164 326.172 262.207 326.172 c 0
 311.523 326.172 331.055 301.27 320.801 251.953 c 1
 288.086 97.168 l 1
EndSplineSet
EndChar
StartChar: r
Encoding: 114 114 83
Width: 227
Flags: W
HStem: 0 21G<3 167> 247 67<249 255>
DStem: 96 228 151 215 63 57 121 61
Fore
283.762 285.384 m 0
 283.762 264.591 269.337 247 251 247 c 0
 228 247 225 271 209 271 c 0
 190 271 154 234 151 215 c 2
 121 61 l 2
 119.471 53.5256 118.721 47.1766 118.721 41.7765 c 0
 118.721 15.3878 136.625 11.6603 169 10 c 1
 167 0 l 1
 3 0 l 1
 5 10 l 1
 41 16 55 18 63 57 c 2
 96 228 l 2
 97.5119 235.181 99.0237 242.791 99.0237 249.48 c 0
 99.0237 260.488 94.9288 269 80 269 c 0
 72 269 64 268 57 266 c 1
 59 277 l 1
 95 288 130 300 167 314 c 1
 170 313 l 1
 158 252 l 1
 160 252 l 1
 183 280 215 314 253 314 c 0
 272.182 314 283.762 303.356 283.762 285.384 c 0
EndSplineSet
Back
330.078 307.129 m 0
 327.148 295.898 322.754 287.109 315.918 281.738 c 0
 309.57 275.879 301.758 272.949 293.945 272.949 c 0
 288.574 272.949 284.18 274.414 279.785 277.344 c 0
 275.879 280.273 272.461 283.691 269.043 287.109 c 0
 265.625 290.527 262.695 293.457 259.277 296.387 c 0
 256.348 299.316 252.93 300.781 249.023 300.781 c 0
 237.793 300.781 224.121 293.457 208.984 277.832 c 0
 201.66 270.02 195.801 262.695 191.406 256.348 c 0
 187.012 250 184.57 244.141 183.105 237.793 c 2
 146.973 68.8477 l 1
 137.695 29.7852 154.785 9.76562 198.242 9.76562 c 1
 195.801 0 l 1
 15.1367 0 l 1
 17.0898 9.76562 l 1
 28.3203 12.6953 38.0859 15.1367 45.8984 17.0898 c 0
 54.1992 19.043 59.5703 20.9961 62.9883 22.9492 c 0
 66.4062 24.9023 69.8242 29.7852 73.7305 38.0859 c 0
 77.1484 45.8984 80.0781 54.6875 82.0312 63.9648 c 2
 122.07 252.93 l 2
 125.488 268.555 125.488 279.785 123.047 288.086 c 0
 120.117 295.898 114.746 299.316 105.957 297.852 c 2
 80.0781 294.922 l 1
 82.0312 307.129 l 1
 133.301 323.73 173.34 336.914 202.148 347.168 c 1
 206.055 347.168 l 1
 190.918 278.809 l 1
 230.957 324.219 266.602 347.168 297.852 347.168 c 0
 325.195 347.168 335.938 333.496 330.078 307.129 c 0
EndSplineSet
EndChar
StartChar: s
Encoding: 115 115 84
Width: 265
Flags: W
HStem: -7 15<123 149> -7 111<56 66> -3 21G<35 43> 5 99<55 60> 298 16<178 196>
VStem: 78.2154 46.7702<213.344 243.283> 201.896 53.8158<66.9572 97.6498>
Fore
255.712 97.6498 m 0
 255.712 34.4115 189.554 -7 138 -7 c 0
 110 -7 87 5 60 5 c 0
 54 5 49 3 43 -3 c 1
 35 -3 l 1
 56 104 l 1
 66 104 l 1
 67 54 76 8 137 8 c 0
 169.237 8 201.896 31.6063 201.896 66.9572 c 0
 201.896 126.017 78.2154 131.909 78.2154 213.344 c 0
 78.2154 276.05 138.316 314 191 314 c 0
 221.547 314 244.496 287.496 265 308 c 1
 272 308 l 1
 257 214 l 1
 247 214 l 1
 246 256 236 298 187 298 c 0
 158.59 298 124.986 278.876 124.986 243.283 c 0
 124.986 226.725 132.895 214.297 147 206 c 2
 211 162 l 2
 236.644 145.759 255.712 128.056 255.712 97.6498 c 0
EndSplineSet
Back
278.809 89.8438 m 0
 272.461 60.0586 256.836 36.6211 231.934 20.0195 c 0
 207.52 3.41797 179.688 -4.88281 148.926 -4.88281 c 0
 139.16 -4.88281 123.535 -2.92969 102.051 0.976562 c 2
 64.9414 7.8125 l 2
 59.082 7.8125 52.7344 5.37109 45.8984 0 c 1
 36.1328 0 l 1
 61.0352 116.211 l 1
 75.1953 116.211 l 1
 73.2422 99.1211 73.2422 86.4258 76.1719 77.1484 c 1
 83.0078 45.8984 l 1
 87.8906 33.2031 95.7031 23.9258 106.445 18.0664 c 0
 117.676 12.207 130.859 8.78906 146.973 8.78906 c 0
 188.477 8.78906 212.891 27.3438 221.191 63.9648 c 0
 225.098 85.4492 215.82 104.004 193.848 120.117 c 2
 122.07 168.945 l 1
 102.051 189.941 l 2
 87.8906 204.102 83.9844 225.586 89.8438 254.883 c 0
 93.2617 269.043 99.1211 281.738 107.422 292.969 c 0
 115.723 304.199 125.488 313.965 137.207 321.777 c 0
 148.438 330.078 160.645 335.938 174.316 340.332 c 0
 187.988 344.727 202.148 347.168 215.82 347.168 c 0
 229.492 347.168 238.281 346.191 243.652 344.727 c 0
 248.535 342.773 252.441 341.309 255.859 339.844 c 2
 280.762 331.055 l 1
 286.133 331.055 291.504 334.473 295.898 340.82 c 1
 305.176 340.82 l 1
 288.086 237.793 l 1
 274.902 237.793 l 1
 273.438 299.316 251.953 330.078 209.961 330.078 c 0
 175.293 330.078 152.832 313.477 142.09 279.785 c 1
 137.207 257.324 144.531 239.746 163.086 227.051 c 2
 234.863 179.199 l 2
 254.395 165.527 267.09 153.809 272.949 144.043 c 0
 281.738 129.395 283.691 111.328 278.809 89.8438 c 0
EndSplineSet
EndChar
StartChar: t
Encoding: 116 116 85
Width: 189
Flags: W
HStem: -7 36<110 146> 285 22<165 229>
VStem: 60.0616 58.8273<45 61>
DStem: 103 285 160 285 64 80 122 87
Fore
200 45 m 1
 178 17 142 -7 110 -7 c 0
 71.8297 -7 60.0616 16.1694 60.0616 45.8962 c 0
 60.0616 56.6667 61.6064 68.298 64 80 c 2
 103 285 l 1
 67 285 l 1
 66 287 65 288 65 290 c 0
 67 296 94 312 101 318 c 0
 129 341 153 368 177 395 c 1
 177.45 395.075 177.856 395.111 178.22 395.111 c 0
 180.462 395.111 181.139 393.758 181.139 391.943 c 0
 181.139 390.128 180.462 387.85 180 386 c 2
 165 307 l 1
 234 307 l 1
 229 285 l 1
 160 285 l 1
 122 87 l 2
 120.333 79 118.889 69.8889 118.889 61.2963 c 0
 118.889 44.1111 124.667 29 146 29 c 0
 164 29 179 39 192 53 c 1
 200 45 l 1
EndSplineSet
Back
226.074 49.8047 m 1
 214.844 34.668 199.219 21.4844 180.176 11.2305 c 0
 160.645 0.488281 142.578 -4.88281 125.977 -4.88281 c 0
 81.543 -4.88281 65.4297 26.3672 78.125 88.8672 c 1
 125.977 314.941 l 1
 84.9609 314.941 l 1
 83.0078 320.801 l 1
 97.168 330.566 110.84 340.332 125 351.074 c 0
 140.137 363.77 154.297 376.465 166.992 390.137 c 0
 179.688 403.32 193.848 418.945 209.961 437.012 c 1
 211.914 425.781 l 1
 192.871 339.844 l 1
 270.02 339.844 l 1
 265.137 314.941 l 1
 187.988 314.941 l 1
 142.09 100.098 l 1
 132.812 54.6875 140.625 32.2266 166.016 32.2266 c 0
 182.129 32.2266 199.219 40.5273 217.773 58.1055 c 1
 226.074 49.8047 l 1
EndSplineSet
EndChar
StartChar: u
Encoding: 117 117 86
Width: 341
Flags: W
HStem: -7 40<129 163>
VStem: 61.7132 60.0385<59 74>
DStem: 97 254 166 307 64 82 123 85 276 253 345 307 245 92 299 73
Fore
332 25 m 1
 298 16 265 5 231 -6 c 1
 230 -5 l 1
 241 52 l 1
 203 20 177 -7 129 -7 c 0
 84.9525 -7 61.7132 20.9834 61.7132 59.9321 c 0
 61.7132 66.964 62.4707 74.3534 64 82 c 2
 97 254 l 2
 98.4731 260.945 99.2376 266.827 99.2376 271.804 c 0
 99.2376 290.478 88.4762 296.421 64 298 c 1
 66 307 l 1
 166 307 l 1
 123 85 l 2
 122.16 80.8023 121.752 76.7612 121.752 72.9151 c 0
 121.752 49.2741 137.198 33 163 33 c 0
 185 33 209 44 227 57 c 0
 240 66 242 79 245 92 c 2
 276 253 l 2
 277.214 259.419 277.827 264.875 277.827 269.515 c 0
 277.827 291.615 263.928 295.173 235 296 c 1
 237 307 l 1
 345 307 l 1
 299 73 l 2
 297.755 66.3578 297.069 60.7065 297.069 55.9389 c 0
 297.069 39.7314 304.989 33.7357 325.748 33.7357 c 0
 328.301 33.7357 331.049 33.8264 334 34 c 1
 332 25 l 1
EndSplineSet
Back
377.93 26.8555 m 1
 374.023 26.3672 368.164 25.3906 359.863 23.4375 c 0
 352.051 21.9727 341.797 19.043 330.078 15.1367 c 2
 266.113 -3.90625 l 1
 277.832 58.1055 l 1
 237.793 24.9023 l 2
 211.914 4.88281 184.082 -4.88281 153.809 -4.88281 c 0
 133.301 -4.88281 115.234 0.488281 99.1211 11.2305 c 1
 81.543 31.7383 76.1719 58.1055 83.0078 90.8203 c 1
 124.023 280.762 l 1
 127.93 301.758 125.488 314.941 117.188 320.801 c 1
 112.793 327.148 103.516 330.078 87.8906 330.078 c 1
 89.8438 339.844 l 1
 199.219 339.844 l 1
 146.973 95.2148 l 1
 144.531 78.125 146.484 64.4531 153.809 54.1992 c 0
 155.273 50.7812 157.227 48.3398 160.156 46.3867 c 0
 162.598 44.9219 165.527 42.9688 168.945 41.0156 c 1
 192.871 38.0859 l 1
 215.82 38.0859 239.258 46.875 264.16 63.9648 c 1
 272.461 68.8477 278.809 81.0547 283.203 101.074 c 1
 321.777 279.785 l 1
 326.172 299.805 324.707 312.988 317.871 318.359 c 0
 311.523 324.219 297.363 327.148 275.879 327.148 c 1
 277.832 339.844 l 1
 397.949 339.844 l 1
 342.773 82.0312 l 1
 339.844 63.4766 340.332 51.2695 344.727 46.3867 c 0
 348.633 41.5039 360.84 39.0625 379.883 39.0625 c 1
 377.93 26.8555 l 1
EndSplineSet
EndChar
StartChar: v
Encoding: 118 118 87
Width: 341
Flags: W
Fore
384 297 m 1
 354 295 342 267 328 244 c 1
 199 25 l 2
 196 20 180 -10 173 -10 c 0
 164 -10 163 16 161 23 c 0
 152 75 140 127 127 179 c 0
 120 210 113 242 104 272 c 0
 98 288 90 296 71 297 c 1
 73 307 l 1
 207 307 l 1
 205 297 l 1
 189.842 295.917 168.682 294.308 168.682 272.521 c 0
 168.682 240.11 200.323 103.547 206 78 c 1
 225 113 311 249 316 274 c 0
 316.387 275.74 316.568 277.348 316.568 278.836 c 0
 316.568 292.745 300.744 296.097 289 297 c 1
 291 307 l 1
 386 307 l 1
 384 297 l 1
EndSplineSet
Back
421.875 328.125 m 1
 408.691 328.125 396.484 320.801 384.766 307.129 c 0
 379.883 300.293 375.488 293.945 372.559 288.574 c 0
 369.629 282.715 365.234 276.367 359.863 269.043 c 1
 212.891 27.832 l 1
 189.941 -1.95312 l 1
 185.059 -6.83594 l 1
 179.199 0.976562 l 1
 170.898 24.9023 l 1
 112.793 299.805 l 1
 104.004 315.918 l 2
 98.6328 324.219 89.8438 328.125 77.1484 328.125 c 1
 79.1016 339.844 l 1
 226.074 339.844 l 1
 224.121 328.125 l 1
 201.172 326.172 188.477 318.359 185.059 305.176 c 0
 184.57 301.758 184.082 297.852 184.57 293.945 c 0
 185.059 290.039 185.547 285.156 186.035 278.809 c 1
 221.191 86.9141 l 1
 296.875 211.914 l 2
 311.523 235.84 322.754 254.883 330.078 268.555 c 0
 337.402 282.227 342.773 293.457 346.191 303.223 c 2
 347.168 307.129 l 2
 348.145 313.477 346.191 318.848 340.82 322.266 c 0
 335.449 326.172 327.637 328.125 316.895 328.125 c 1
 318.848 339.844 l 1
 423.828 339.844 l 1
 421.875 328.125 l 1
EndSplineSet
EndChar
StartChar: w
Encoding: 119 119 88
Width: 492
Flags: W
DStem: 281 212 289 181 193 76 181 17 289 181 336 225 320 20 362 79 453 231 497 260 362 79 357 24
Fore
532 297 m 1
 513 292 506 276 497 260 c 2
 357 24 l 2
 353 18 339 -10 331 -10 c 0
 323 -10 321 14 320 20 c 2
 289 181 l 1
 181 17 l 2
 178 13 165 -10 158 -10 c 0
 151 -10 148 16 147 20 c 2
 100 254 l 2
 97 272 95 296 72 297 c 1
 74 307 l 1
 197 307 l 1
 195 297 l 1
 177.9 295.86 158.486 292.563 158.486 267.138 c 0
 158.486 229.93 187.42 106.691 193 76 c 1
 281 212 l 1
 276 247 278 292 237 297 c 1
 239 307 l 1
 378 307 l 1
 376 297 l 1
 353.104 293.184 330.075 293.506 330.075 261.887 c 0
 330.075 249.38 333.651 235.963 336 225 c 1
 362 79 l 1
 453 231 l 1
 460 242 471 262 473 274 c 0
 473.426 275.917 473.625 277.653 473.625 279.228 c 0
 473.625 292.437 459.615 294.32 448 297 c 1
 450 307 l 1
 534 307 l 1
 532 297 l 1
EndSplineSet
Back
583.008 328.125 m 1
 571.777 326.172 558.105 312.5 542.969 288.086 c 2
 383.789 26.8555 l 1
 363.77 0.976562 l 1
 355.957 -6.83594 l 1
 352.051 -6.83594 348.145 2.92969 344.238 22.9492 c 1
 313.965 200.195 l 1
 189.941 20.0195 l 1
 184.57 9.76562 179.199 3.41797 172.852 0 c 1
 166.992 -6.83594 l 1
 159.18 3.90625 154.297 14.1602 152.832 23.9258 c 1
 98.1445 312.012 l 1
 96.6797 321.777 89.8438 327.148 77.1484 328.125 c 1
 79.1016 339.844 l 1
 213.867 339.844 l 1
 211.914 328.125 l 1
 187.988 326.172 173.828 317.871 169.922 303.223 c 0
 169.434 296.875 172.852 269.531 181.152 221.191 c 1
 204.102 84.9609 l 1
 305.176 234.863 l 1
 296.875 284.18 l 1
 289.062 312.012 l 1
 283.691 319.336 272.949 324.707 256.836 328.125 c 1
 258.789 339.844 l 1
 412.109 339.844 l 1
 410.156 328.125 l 1
 377.93 320.801 l 1
 368.652 316.895 362.793 310.059 360.84 299.805 c 0
 360.352 297.363 361.816 280.762 366.211 250 c 1
 392.09 87.8906 l 1
 496.094 254.883 l 2
 500 261.23 504.395 269.043 508.301 278.32 c 0
 512.695 288.086 515.625 296.387 517.09 303.223 c 0
 519.531 313.477 511.23 321.777 491.211 328.125 c 1
 493.164 339.844 l 1
 584.961 339.844 l 1
 583.008 328.125 l 1
EndSplineSet
EndChar
StartChar: x
Encoding: 120 120 89
Width: 341
Flags: W
HStem: 0 10<107 113> 297.047 9.953<76 88 76 216>
Fore
327 0 m 1
 190 0 l 1
 192 10 l 1
 206 11 219 10 222 28 c 0
 222.099 28.4279 222.147 28.9328 222.147 29.5094 c 0
 222.147 46.45 180.868 125.329 177 135 c 1
 172 130 90 36 87 23 c 0
 86.9012 22.3575 86.8536 21.7468 86.8536 21.1662 c 0
 86.8536 10 104.445 10 113 10 c 1
 111 0 l 1
 12 0 l 1
 14 10 l 1
 41 13 50 23 70 45 c 2
 170 158 l 1
 125 256 l 2
 112.408 282.153 108.26 297.047 77.1127 297.047 c 0
 76.1038 297.047 75.0667 297.031 74 297 c 1
 76 307 l 1
 218 307 l 1
 216 297 l 1
 204.265 297 182.731 294.813 182.731 278.27 c 0
 182.731 262.416 203.364 220.21 209 208 c 1
 218 217 267 270 270 281 c 0
 270.25 282.25 270.368 283.396 270.368 284.447 c 0
 270.368 296.007 256.083 296.083 246 297 c 1
 248 307 l 1
 356 307 l 1
 354 297 l 1
 332 296 308 284 292 267 c 2
 220 185 l 1
 281 51 l 2
 291 29 302 12 329 10 c 1
 327 0 l 1
EndSplineSet
Back
362.793 0 m 1
 210.938 0 l 1
 212.891 9.76562 l 1
 233.887 14.1602 l 2
 240.723 16.1133 245.117 21.4844 247.07 30.7617 c 0
 247.559 33.6914 247.559 37.1094 246.094 41.0156 c 0
 244.629 44.9219 243.164 49.8047 241.211 55.1758 c 2
 199.219 147.949 l 1
 120.117 56.1523 l 2
 107.91 41.9922 100.586 31.25 98.1445 23.9258 c 0
 96.6797 14.6484 105.469 9.76562 125 9.76562 c 1
 123.047 0 l 1
 14.1602 0 l 1
 16.1133 9.76562 l 1
 30.7617 12.6953 40.0391 15.625 43.9453 19.043 c 0
 49.3164 21.4844 55.1758 25.8789 61.0352 30.7617 c 0
 66.8945 36.1328 73.7305 42.4805 81.0547 49.8047 c 2
 192.871 174.805 l 1
 145.02 283.203 l 2
 141.602 291.016 137.695 298.34 133.301 305.176 c 0
 129.395 311.523 124.512 317.871 119.141 324.219 c 1
 89.8438 328.125 l 1
 91.7969 339.844 l 1
 248.047 339.844 l 1
 246.094 328.125 l 1
 224.609 328.125 212.891 322.266 209.961 311.035 c 0
 208.008 303.711 217.285 276.855 237.793 229.98 c 1
 279.785 277.344 302.246 304.199 305.176 311.035 c 0
 307.617 322.266 298.828 328.125 278.809 328.125 c 1
 280.762 339.844 l 1
 399.902 339.844 l 1
 397.949 328.125 l 1
 372.07 328.125 349.121 317.383 330.078 295.898 c 2
 248.047 205.078 l 1
 313.965 56.1523 l 2
 326.66 27.832 343.75 12.6953 365.234 9.76562 c 1
 362.793 0 l 1
EndSplineSet
EndChar
StartChar: y
Encoding: 121 121 90
Width: 341
Flags: W
HStem: -149 70<36 47> 297.172 9.82849<291 303>
DStem: 98 276 166 253 143 108 212 80 294 231 344 266 212 80 184 -12
Fore
84 -91 m 0
 112.305 -91 168.123 -7.91948 168.123 15.6569 c 0
 168.123 30.5549 146.834 93.6228 143 108 c 2
 98 276 l 2
 94 290 82 296 68 298 c 1
 70 307 l 1
 210 307 l 1
 208 297 l 1
 191.051 295.696 164.144 295.931 164.144 269.359 c 0
 164.144 263.61 165.31 257.829 166 253 c 2
 212 80 l 1
 294 231 l 2
 299 240 318 271 319 278 c 0
 319.214 279.214 319.316 280.357 319.316 281.432 c 0
 319.316 293.754 305.912 297.172 294.466 297.172 c 0
 292.93 297.172 291.429 297.11 290 297 c 1
 292 307 l 1
 384 307 l 1
 382 297 l 1
 363 294 353 283 344 266 c 1
 184 -12 l 2
 155 -63 108 -149 41 -149 c 0
 20.0801 -149 -1.66719 -138.245 -1.66719 -115.983 c 0
 -1.66719 -92.9181 18.6648 -79 38 -79 c 0
 55 -79 69 -91 84 -91 c 0
EndSplineSet
Back
203.125 -13.1836 m 2
 386.23 294.922 l 1
 398.438 317.871 413.086 329.102 429.199 329.102 c 1
 431.152 339.844 l 1
 329.102 339.844 l 1
 327.148 329.102 l 1
 351.562 329.102 362.305 321.777 358.887 308.105 c 1
 236.816 87.8906 l 1
 190.918 279.785 l 1
 187.012 289.551 185.547 298.34 187.012 307.129 c 0
 189.453 321.777 206.543 329.102 236.816 329.102 c 1
 238.77 339.844 l 1
 83.0078 339.844 l 1
 81.0547 330.078 l 1
 102.539 326.172 113.281 317.871 113.77 305.176 c 1
 186.035 15.1367 l 1
 186.523 13.6719 187.012 12.6953 186.523 12.207 c 0
 186.035 11.2305 186.035 10.2539 186.035 8.78906 c 1
 149.902 -47.8516 l 1
 125.488 -85.4492 104.492 -104.004 86.9141 -104.004 c 0
 80.5664 -104.004 72.7539 -101.562 64.4531 -96.6797 c 0
 56.1523 -91.3086 46.3867 -88.8672 35.1562 -88.8672 c 0
 9.76562 -88.8672 -4.88281 -100.586 -8.78906 -124.023 c 0
 -16.1133 -153.809 -0.976562 -168.945 37.1094 -168.945 c 0
 86.4258 -168.945 141.602 -117.188 203.125 -13.1836 c 2
EndSplineSet
EndChar
StartChar: z
Encoding: 122 122 91
Width: 303
Flags: W
HStem: 0 20<95 276> 287 20<98 256>
DStem: 256 287 333 297 20 10 95 20
Fore
303 92 m 1
 276 0 l 1
 18 0 l 1
 20 10 l 1
 256 287 l 1
 162 287 l 2
 115 287 105 268 92 227 c 1
 80 227 l 1
 98 307 l 1
 335 307 l 1
 333 297 l 1
 95 20 l 1
 190 20 l 2
 256 20 268 34 291 95 c 1
 303 92 l 1
EndSplineSet
Back
327.148 100.098 m 1
 296.875 0 l 1
 12.207 0 l 1
 14.1602 9.76562 l 1
 279.785 315.918 l 1
 173.828 315.918 l 2
 149.414 315.918 131.836 309.57 121.582 296.875 c 0
 111.328 284.18 103.516 268.555 98.1445 250 c 1
 82.0312 250 l 1
 104.004 339.844 l 1
 368.164 339.844 l 1
 366.211 328.125 l 1
 97.168 22.9492 l 1
 201.172 22.9492 l 2
 217.773 22.9492 231.934 24.4141 243.652 26.8555 c 0
 255.371 29.7852 265.137 34.1797 273.926 40.5273 c 0
 282.715 46.875 290.039 55.1758 296.387 65.4297 c 0
 302.734 75.6836 309.082 88.8672 314.941 104.004 c 1
 327.148 100.098 l 1
EndSplineSet
EndChar
StartChar: braceleft
Encoding: 123 123 92
Width: 327
Flags: W
VStem: 116.103 50.2152<-74.635 -59> 149.562 50.0116<115 123>
DStem: 146 93 195 83 120 -28 170 -32 204 369 256 373 179 248 232 258
Fore
120 -28 m 2
 146 93 l 2
 148.25 104 149.562 113.562 149.562 121.922 c 0
 149.562 147 137.75 161.25 104 171 c 1
 154 183 169 204 179 248 c 2
 204 369 l 2
 222 451 268 464 338 464 c 1
 336 457 l 1
 286 446 266 420 256 373 c 2
 232 258 l 2
 222 210 207 183 151 171 c 1
 151 169 l 1
 187.747 161.074 199.574 144.842 199.574 118.433 c 0
 199.574 108.189 197.795 96.4147 195 83 c 2
 170 -32 l 2
 167.622 -43.1789 166.318 -53.1698 166.318 -62.0534 c 0
 166.318 -90.5196 179.703 -107.616 214 -116 c 1
 213 -124 l 1
 153.836 -124 116.103 -113.999 116.103 -61.3923 c 0
 116.103 -51.7574 117.368 -40.6934 120 -28 c 2
EndSplineSet
Back
189.941 -125 m 1
 151.367 -125 124.512 -119.141 108.887 -106.934 c 0
 91.7969 -92.2852 86.9141 -65.4297 95.2148 -26.8555 c 2
 121.094 95.2148 l 2
 126.465 119.141 125.977 136.719 120.117 148.438 c 0
 113.77 160.156 100.098 168.945 79.1016 174.805 c 1
 102.539 181.152 119.629 189.941 130.371 201.66 c 0
 141.602 213.379 149.902 230.469 154.785 253.906 c 1
 182.129 378.906 l 2
 189.941 416.992 205.566 443.359 229.004 458.008 c 0
 249.023 470.215 278.809 476.074 317.871 476.074 c 1
 315.918 467.773 l 1
 290.527 462.891 271.973 453.613 259.766 440.43 c 0
 248.047 427.734 239.258 408.203 233.887 381.836 c 2
 208.984 265.137 l 1
 204.102 238.77 195.801 218.262 184.082 203.125 c 1
 173.34 191.895 154.297 182.129 126.953 174.805 c 1
 139.16 170.898 148.438 166.504 155.762 162.109 c 0
 163.574 157.227 168.457 151.855 171.875 145.02 c 0
 175.293 138.184 176.758 130.371 176.27 120.605 c 0
 176.27 110.84 174.316 99.1211 170.898 84.9609 c 1
 145.996 -30.7617 l 2
 140.625 -56.1523 141.113 -75.1953 147.949 -87.8906 c 0
 154.785 -100.586 169.434 -110.352 191.895 -117.188 c 1
 189.941 -125 l 1
EndSplineSet
EndChar
StartChar: bar
Encoding: 124 124 93
Width: 136
Flags: W
HStem: 442 20G<149 183>
DStem: 149 462 183 462 25 -120 59 -120
Fore
25 -120 m 1
 149 462 l 1
 183 462 l 1
 59 -120 l 1
 25 -120 l 1
EndSplineSet
Back
70.8008 -121.094 m 1
 36.1328 -121.094 l 1
 163.086 473.145 l 1
 198.242 473.145 l 1
 70.8008 -121.094 l 1
EndSplineSet
EndChar
StartChar: braceright
Encoding: 125 125 94
Width: 327
Flags: W
VStem: 201.404 48.594<211 229> 233.815 49.5569<389.099 407>
DStem: 169 83 221 93 144 -32 195 -29 230 373 279 369 206 258 254 248
Fore
279 369 m 2
 254 248 l 2
 251.443 236.751 249.998 227.005 249.998 218.528 c 0
 249.998 193.85 262.249 179.932 295 171 c 1
 246 158 230 137 221 93 c 2
 195 -29 l 2
 178 -110 133 -124 63 -124 c 1
 64 -116 l 1
 115 -105 134 -79 144 -32 c 2
 169 83 l 2
 179 131 194 158 249 170 c 1
 249 171 l 1
 213.06 179.626 201.404 196.001 201.404 222.355 c 0
 201.404 232.665 203.188 244.502 206 258 c 2
 230 373 l 2
 232.446 384.494 233.815 394.732 233.815 403.802 c 0
 233.815 431.82 220.751 448.69 186 457 c 1
 188 464 l 1
 246.518 464 283.371 454.915 283.371 404.029 c 0
 283.371 394.045 281.953 382.451 279 369 c 2
EndSplineSet
Back
237.793 174.805 m 1
 214.844 168.945 197.266 160.156 186.035 147.949 c 0
 174.805 136.23 166.504 118.164 161.133 95.2148 c 1
 134.766 -26.8555 l 2
 126.953 -64.9414 111.328 -91.7969 87.8906 -106.934 c 0
 69.3359 -119.141 39.5508 -125 -0.976562 -125 c 1
 0.976562 -117.188 l 1
 45.8984 -106.445 73.2422 -77.6367 83.0078 -30.7617 c 2
 107.91 84.9609 l 2
 113.77 111.816 121.582 130.859 130.859 143.066 c 0
 141.602 157.227 161.133 167.48 189.941 173.828 c 1
 166.016 181.152 151.367 191.406 145.508 204.102 c 0
 139.648 216.797 140.137 236.816 145.996 265.137 c 2
 170.898 381.836 l 2
 176.27 407.227 175.781 426.27 169.434 439.453 c 0
 163.086 452.637 148.438 461.914 125 467.773 c 1
 126.953 476.074 l 1
 167.48 476.074 194.824 470.215 208.984 458.008 c 0
 225.586 443.359 229.492 416.504 221.191 377.93 c 1
 194.824 253.906 l 1
 185.547 212.891 200.195 186.523 237.793 174.805 c 1
EndSplineSet
EndChar
StartChar: asciitilde
Encoding: 126 126 95
Width: 369
Flags: W
Fore
365 221 m 1
 383 186 l 1
 356 158 327 128 284 128 c 0
 259 128 239 138 220 150 c 0
 201 163 178 174 146 174 c 0
 116 174 95 149 79 125 c 1
 61 159 l 1
 82 188 113 218 159 218 c 0
 182 218 207 208 230 196 c 0
 253 185 276 171 294 171 c 0
 321 171 344 197 365 221 c 1
EndSplineSet
Back
414.062 190.918 m 1
 388.184 165.039 l 1
 370.117 149.902 l 2
 354.492 137.207 335.938 130.859 313.965 130.859 c 0
 299.316 130.859 275.879 138.672 244.141 153.809 c 0
 213.867 169.922 189.941 178.223 171.875 178.223 c 0
 149.414 178.223 125.977 161.133 102.051 127.93 c 1
 84.9609 163.086 l 1
 114.258 203.125 147.461 223.145 184.082 223.145 c 0
 200.195 223.145 224.121 215.332 255.859 200.195 c 0
 286.133 185.547 308.594 177.246 324.219 175.781 c 0
 344.238 175.781 368.164 192.871 395.996 226.074 c 1
 414.062 190.918 l 1
EndSplineSet
EndChar
StartChar: uni0E10.descless
Encoding: 128 63232 96
Width: 355
Flags: W
HStem: 0 21G<193 245> 106 19<122 130> 197 23<143 160> 279 21<79 156> 316 29<298 316> 341 44<194 209> 360 20G<365 386>
Fore
287 197 m 1
 245 0 l 1
 193 0 l 1
 213 96 207 158 180 186 c 1
 181 179 181 170 179 160 c 0
 172 132 151 106 124 106 c 0
 100 106 87 135 92 162 c 0
 99 195 123 220 160 220 c 0
 195 220 220 200 227 161 c 1
 235 196 l 1
 241 233 224 257 185 268 c 0
 160 275 124 279 79 279 c 1
 100 337 153 385 209 385 c 0
 228 385 246 382 262 373 c 0
 277 365 303 345 316 345 c 0
 339 345 352 360 365 380 c 1
 386 380 l 1
 365 337 335 316 298 316 c 0
 287 316 272 319 249 327 c 0
 226 334 209 341 197 341 c 0
 159 341 132 327 116 298 c 1
 124 299 132 300 156 300 c 0
 195 300 227 293 252 278 c 0
 281 259 293 232 287 197 c 1
160 162 m 0
 164 178 159 197 143 197 c 0
 128 197 116 182 111 162 c 0
 106 138 113 125 128 125 c 0
 141 125 155 138 160 162 c 0
EndSplineSet
Back
287.109 196.777 m 1
 292.969 231.445 281.25 258.789 251.953 277.832 c 0
 227.539 292.48 195.312 299.805 155.762 299.805 c 0
 144.043 299.805 135.254 299.805 129.883 299.316 c 0
 124.512 299.316 120.117 298.828 116.211 297.852 c 1
 131.836 326.66 159.18 340.82 196.777 340.82 c 0
 203.125 340.82 210.449 339.355 219.238 336.426 c 0
 227.539 333.496 237.793 330.566 249.023 327.148 c 0
 260.254 323.242 270.02 320.312 277.832 318.359 c 0
 286.133 316.895 292.48 315.918 297.852 315.918 c 0
 335.449 315.918 364.746 337.402 386.23 379.883 c 1
 365.234 379.883 l 1
 358.398 370.117 351.562 361.816 344.238 354.98 c 0
 336.426 348.145 327.148 345.215 315.918 345.215 c 0
 309.57 345.215 300.293 348.633 289.551 355.957 c 0
 278.32 363.281 269.531 369.141 262.207 373.047 c 0
 253.906 377.441 245.605 380.859 236.328 382.324 c 0
 227.539 384.277 218.262 384.766 208.984 384.766 c 0
 194.824 384.766 181.152 382.324 167.969 376.465 c 0
 154.785 370.605 142.09 363.281 130.859 353.516 c 0
 119.629 343.75 109.375 332.52 100.586 319.824 c 0
 91.3086 307.129 84.4727 293.457 79.1016 278.809 c 1
 124.512 278.809 159.668 275.391 185.059 268.066 c 0
 224.121 256.836 241.211 232.91 234.863 195.801 c 1
 227.051 161.133 l 1
 223.633 180.176 215.82 194.824 204.102 205.078 c 0
 191.895 214.844 177.246 220.215 160.156 220.215 c 0
 141.113 220.215 125.977 214.355 114.258 203.613 c 0
 103.027 192.383 95.2148 178.711 91.7969 162.109 c 0
 89.3555 148.438 90.8203 136.23 97.168 124.023 c 0
 103.027 111.816 111.816 105.957 124.023 105.957 c 0
 137.207 105.957 148.926 111.328 159.18 122.559 c 0
 168.945 133.301 175.781 145.996 179.199 160.156 c 0
 181.152 169.922 181.152 178.711 180.176 186.035 c 1
 193.359 171.875 201.172 149.414 204.102 118.652 c 0
 206.543 87.4023 203.125 47.8516 192.871 0 c 1
 245.117 0 l 1
 287.109 196.777 l 1
160.156 162.109 m 0
 157.227 149.902 152.832 140.625 146.973 134.277 c 0
 141.113 127.93 134.766 125 127.93 125 c 0
 120.605 125 115.234 127.93 111.816 134.277 c 0
 108.887 140.625 108.398 149.902 110.84 162.109 c 0
 113.77 171.875 117.676 180.176 123.535 187.012 c 0
 129.395 193.848 135.742 196.777 143.066 196.777 c 0
 150.879 196.777 156.25 193.359 159.18 185.547 c 0
 161.621 177.734 162.109 169.922 160.156 162.109 c 0
EndSplineSet
KernsSLIF: 212 30 0 0 215 30 0 0 214 30 0 0 213 30 0 0
EndChar
StartChar: uni0E34.left
Encoding: 129 63233 97
Width: 0
Flags: W
HStem: 473 26<-214 -180> 545 35<-182 -165>
Fore
-63 456 m 1
 -66 488 -111 545 -169 545 c 0
 -194 545 -230 539 -237 515 c 0
 -240 500 -218 499 -201 499 c 0
 -174 499 -160 496 -137 491 c 0
 -106 484 -86 472 -63 456 c 1
-45 422 m 1
 -68 439 -99 453 -131 462 c 0
 -151 469 -176 473 -203 473 c 2
 -222 473 l 2
 -230 473 -237 473 -242 472 c 0
 -265 472 -277 475 -286 482 c 0
 -291 487 -294 498 -293 505 c 0
 -287 527 -258 552 -239 563 c 0
 -218 574 -194 580 -167 580 c 0
 -98 580 -26 513 -45 422 c 1
EndSplineSet
Back
-62.9883 456.055 m 1
 -63.4766 463.867 -66.8945 473.145 -72.2656 483.398 c 0
 -78.125 493.652 -85.9375 503.418 -95.7031 512.695 c 0
 -104.98 521.484 -116.211 529.297 -128.418 535.645 c 0
 -140.625 541.992 -154.297 544.922 -168.945 544.922 c 0
 -181.641 544.922 -195.312 542.969 -209.961 539.062 c 0
 -224.609 535.156 -233.887 526.855 -236.816 515.137 c 0
 -238.281 507.812 -234.863 502.93 -226.562 501.465 c 0
 -218.262 500 -209.473 499.023 -201.172 499.023 c 0
 -187.5 499.023 -176.27 498.535 -167.48 497.07 c 0
 -158.691 495.605 -148.438 493.652 -137.207 491.211 c 0
 -121.582 487.793 -108.398 482.91 -97.168 477.051 c 0
 -85.4492 471.191 -74.2188 463.867 -62.9883 456.055 c 1
-44.9219 421.875 m 1
 -56.1523 430.664 -69.3359 438.477 -84.4727 444.824 c 0
 -99.6094 451.66 -115.234 457.52 -130.859 461.914 c 0
 -141.113 465.332 -152.344 467.773 -164.551 470.215 c 0
 -176.758 472.168 -189.453 473.145 -203.125 473.145 c 0
 -208.496 473.145 -214.844 473.145 -222.168 473.145 c 0
 -229.98 473.145 -236.816 472.656 -242.188 472.168 c 0
 -253.418 472.168 -262.207 472.656 -269.043 474.609 c 0
 -275.879 476.074 -281.25 478.516 -286.133 481.934 c 0
 -288.574 484.863 -290.527 488.281 -291.992 493.164 c 0
 -293.457 497.559 -293.457 501.465 -292.969 504.883 c 0
 -291.504 510.254 -289.062 516.113 -285.156 521.973 c 0
 -280.762 527.832 -276.367 533.691 -270.996 538.574 c 0
 -265.625 543.457 -260.254 548.34 -254.395 552.734 c 0
 -249.023 556.641 -243.652 560.547 -238.77 562.988 c 0
 -218.262 574.219 -194.336 580.078 -166.992 580.078 c 0
 -149.902 580.078 -132.812 576.172 -116.211 567.871 c 0
 -99.1211 560.059 -84.9609 548.828 -73.2422 535.156 c 0
 -61.0352 520.996 -52.2461 504.395 -46.3867 484.863 c 0
 -41.0156 465.82 -40.5273 444.824 -44.9219 421.875 c 1
EndSplineSet
EndChar
StartChar: uni0E35.left
Encoding: 130 63234 98
Width: 0
Flags: W
HStem: 473 26<-214 -180> 545 35<-182 -165>
DStem: -58 615 -19 615 -75 537 -47 486
Fore
-19 615 m 1
 -47 486 l 1
 -41 465 -40 444 -45 422 c 1
 -68 439 -99 453 -131 462 c 0
 -151 469 -176 473 -203 473 c 2
 -222 473 l 2
 -230 473 -237 473 -242 472 c 0
 -265 472 -277 475 -286 482 c 0
 -291 487 -294 498 -293 505 c 0
 -287 527 -258 552 -239 563 c 0
 -218 574 -194 580 -167 580 c 0
 -132 580 -99 564 -75 537 c 1
 -58 615 l 1
 -19 615 l 1
-63 456 m 1
 -66 488 -111 545 -169 545 c 0
 -194 545 -230 539 -237 515 c 0
 -240 500 -218 499 -201 499 c 0
 -174 499 -160 496 -137 491 c 0
 -106 484 -86 472 -63 456 c 1
EndSplineSet
Back
-19.043 615.234 m 1
 -58.1055 615.234 l 1
 -75.1953 537.109 l 1
 -86.9141 550.293 -101.074 561.035 -117.188 568.359 c 0
 -132.812 576.172 -149.902 580.078 -166.992 580.078 c 0
 -194.336 580.078 -218.262 574.219 -238.77 562.988 c 0
 -243.652 560.547 -249.023 556.641 -254.395 552.734 c 0
 -260.254 548.34 -265.625 543.457 -270.996 538.574 c 0
 -276.367 533.691 -280.762 527.832 -285.156 521.973 c 0
 -289.062 516.113 -291.504 510.254 -292.969 504.883 c 0
 -293.457 501.465 -293.457 497.559 -291.992 493.164 c 0
 -290.527 488.281 -288.574 484.863 -286.133 481.934 c 0
 -281.25 478.516 -275.879 476.074 -269.043 474.609 c 0
 -262.207 472.656 -253.418 472.168 -242.188 472.168 c 0
 -236.816 472.656 -229.98 473.145 -222.168 473.145 c 0
 -214.844 473.145 -208.496 473.145 -203.125 473.145 c 0
 -189.453 473.145 -176.758 472.168 -164.551 470.215 c 0
 -152.344 467.773 -141.113 465.332 -130.859 461.914 c 0
 -115.234 457.52 -99.6094 451.66 -84.4727 444.824 c 0
 -69.3359 438.477 -56.1523 430.664 -44.9219 421.875 c 1
 -40.5273 443.848 -41.0156 465.332 -46.875 485.84 c 1
 -19.043 615.234 l 1
-62.9883 456.055 m 1
 -74.2188 463.867 -85.4492 471.191 -97.168 477.051 c 0
 -108.398 482.91 -121.582 487.793 -137.207 491.211 c 0
 -148.438 493.652 -158.691 495.605 -167.48 497.07 c 0
 -176.27 498.535 -187.5 499.023 -201.172 499.023 c 0
 -209.473 499.023 -218.262 500 -226.562 501.465 c 0
 -234.863 502.93 -238.281 507.812 -236.816 515.137 c 0
 -233.887 526.855 -224.609 535.156 -209.961 539.062 c 0
 -195.312 542.969 -181.641 544.922 -168.945 544.922 c 0
 -154.297 544.922 -140.625 541.992 -128.418 535.645 c 0
 -116.211 529.297 -104.98 521.484 -95.7031 512.695 c 0
 -85.9375 503.418 -78.125 493.652 -72.2656 483.398 c 0
 -66.8945 473.145 -63.4766 463.867 -62.9883 456.055 c 1
EndSplineSet
EndChar
StartChar: uni0E36.left
Encoding: 131 63235 99
Width: 0
Flags: W
HStem: 473 26<-214 -180> 530 15<-169 -77> 545 35<-182 -165> 590 25<-70 -57>
Fore
-45 422 m 1
 -68 439 -99 453 -131 462 c 0
 -151 469 -176 473 -203 473 c 2
 -222 473 l 2
 -230 473 -237 473 -242 472 c 0
 -265 472 -277 475 -286 482 c 0
 -291 487 -294 498 -293 505 c 0
 -287 527 -258 552 -239 563 c 0
 -218 574 -194 580 -167 580 c 0
 -151 580 -136 577 -123 571 c 1
 -112 596 -86 615 -59 615 c 0
 -28 615 -9 591 -16 560 c 0
 -20 539 -36 520 -56 511 c 1
 -43 486 -38 455 -45 422 c 1
-63 456 m 1
 -66 488 -111 545 -169 545 c 0
 -194 545 -230 539 -237 515 c 0
 -240 500 -218 499 -201 499 c 0
 -174 499 -160 496 -137 491 c 0
 -106 484 -86 472 -63 456 c 1
-101 560 m 0
 -105 543 -94 530 -77 530 c 0
 -39 530 -25 590 -65 590 c 0
 -82 590 -97 577 -101 560 c 0
EndSplineSet
Back
-44.9219 421.875 m 1
 -41.5039 438.477 -41.0156 454.59 -42.9688 469.727 c 0
 -44.9219 484.375 -49.3164 498.535 -56.1523 511.23 c 1
 -45.8984 515.625 -37.1094 522.461 -29.7852 530.762 c 0
 -22.4609 539.551 -18.0664 549.316 -16.1133 560.059 c 0
 -12.6953 575.195 -15.1367 588.379 -23.4375 599.121 c 0
 -31.7383 609.863 -43.457 615.234 -59.082 615.234 c 0
 -72.2656 615.234 -84.9609 610.84 -97.168 602.539 c 0
 -108.887 594.238 -117.676 583.496 -123.047 570.801 c 1
 -136.23 577.148 -150.879 580.078 -166.992 580.078 c 0
 -194.336 580.078 -218.262 574.219 -238.77 562.988 c 0
 -243.652 560.547 -249.023 556.641 -254.395 552.734 c 0
 -260.254 548.34 -265.625 543.457 -270.996 538.574 c 0
 -276.367 533.691 -280.762 527.832 -285.156 521.973 c 0
 -289.062 516.113 -291.504 510.254 -292.969 504.883 c 0
 -293.457 501.465 -293.457 497.559 -291.992 493.164 c 0
 -290.527 488.281 -288.574 484.863 -286.133 481.934 c 0
 -281.25 478.516 -275.879 476.074 -269.043 474.609 c 0
 -262.207 472.656 -253.418 472.168 -242.188 472.168 c 0
 -236.816 472.656 -229.98 473.145 -222.168 473.145 c 0
 -214.844 473.145 -208.496 473.145 -203.125 473.145 c 0
 -189.453 473.145 -176.758 472.168 -164.551 470.215 c 0
 -152.344 467.773 -141.113 465.332 -130.859 461.914 c 0
 -115.234 457.52 -99.6094 451.66 -84.4727 444.824 c 0
 -69.3359 438.477 -56.1523 430.664 -44.9219 421.875 c 1
-62.9883 456.055 m 1
 -74.2188 463.867 -85.4492 471.191 -97.168 477.051 c 0
 -108.398 482.91 -121.582 487.793 -137.207 491.211 c 0
 -148.438 493.652 -158.691 495.605 -167.48 497.07 c 0
 -176.27 498.535 -187.5 499.023 -201.172 499.023 c 0
 -209.473 499.023 -218.262 500 -226.562 501.465 c 0
 -234.863 502.93 -238.281 507.812 -236.816 515.137 c 0
 -233.887 526.855 -224.609 535.156 -209.961 539.062 c 0
 -195.312 542.969 -181.641 544.922 -168.945 544.922 c 0
 -154.297 544.922 -140.625 541.992 -128.418 535.645 c 0
 -116.211 529.297 -104.98 521.484 -95.7031 512.695 c 0
 -85.9375 503.418 -78.125 493.652 -72.2656 483.398 c 0
 -66.8945 473.145 -63.4766 463.867 -62.9883 456.055 c 1
-101.074 560.059 m 0
 -99.1211 568.848 -94.7266 575.684 -87.8906 581.543 c 0
 -81.543 587.402 -73.7305 589.844 -64.9414 589.844 c 0
 -56.1523 589.844 -49.8047 587.402 -44.9219 581.543 c 0
 -40.5273 575.684 -39.0625 568.848 -41.0156 560.059 c 0
 -42.9688 551.27 -47.3633 543.945 -54.1992 538.574 c 0
 -60.5469 532.715 -68.3594 529.785 -77.1484 529.785 c 0
 -85.4492 529.785 -92.2852 532.715 -97.168 538.574 c 0
 -101.562 543.945 -103.027 551.27 -101.074 560.059 c 0
EndSplineSet
EndChar
StartChar: uni0E37.left
Encoding: 132 63236 100
Width: 0
Flags: W
HStem: 473 26<-214 -180> 545 35<-182 -165>
DStem: -114 615 -79 615 -124 571 -92 553 -54 615 -19 615 -71 534 -47 486
Fore
-19 615 m 1
 -47 486 l 1
 -41 465 -40 444 -45 422 c 1
 -68 439 -99 453 -131 462 c 0
 -151 469 -176 473 -203 473 c 2
 -222 473 l 2
 -230 473 -237 473 -242 472 c 0
 -265 472 -277 475 -286 482 c 0
 -291 487 -294 498 -293 505 c 0
 -287 527 -258 552 -239 563 c 0
 -218 574 -194 580 -167 580 c 0
 -152 580 -137 577 -124 571 c 1
 -114 615 l 1
 -79 615 l 1
 -92 553 l 1
 -85 546 -78 541 -71 534 c 1
 -54 615 l 1
 -19 615 l 1
-63 456 m 1
 -66 488 -111 545 -169 545 c 0
 -194 545 -230 539 -237 515 c 0
 -240 500 -218 499 -201 499 c 0
 -174 499 -160 496 -137 491 c 0
 -106 484 -86 472 -63 456 c 1
EndSplineSet
Back
-19.043 615.234 m 1
 -54.1992 615.234 l 1
 -70.8008 534.18 l 1
 -74.2188 537.109 -77.6367 540.527 -81.543 543.457 c 0
 -84.9609 546.387 -88.8672 549.805 -91.7969 553.223 c 1
 -79.1016 615.234 l 1
 -113.77 615.234 l 1
 -124.023 570.801 l 1
 -137.207 577.148 -151.855 580.078 -166.992 580.078 c 0
 -194.336 580.078 -218.262 574.219 -238.77 562.988 c 0
 -243.652 560.547 -249.023 556.641 -254.395 552.734 c 0
 -260.254 548.34 -265.625 543.457 -270.996 538.574 c 0
 -276.367 533.691 -280.762 527.832 -285.156 521.973 c 0
 -289.062 516.113 -291.504 510.254 -292.969 504.883 c 0
 -293.457 501.465 -293.457 497.559 -291.992 493.164 c 0
 -290.527 488.281 -288.574 484.863 -286.133 481.934 c 0
 -281.25 478.516 -275.879 476.074 -269.043 474.609 c 0
 -262.207 472.656 -253.418 472.168 -242.188 472.168 c 0
 -236.816 472.656 -229.98 473.145 -222.168 473.145 c 0
 -214.844 473.145 -208.496 473.145 -203.125 473.145 c 0
 -189.453 473.145 -176.758 472.168 -164.551 470.215 c 0
 -152.344 467.773 -141.113 465.332 -130.859 461.914 c 0
 -115.234 457.52 -99.6094 451.66 -84.4727 444.824 c 0
 -69.3359 438.477 -56.1523 430.664 -44.9219 421.875 c 1
 -40.5273 443.848 -41.0156 465.332 -46.875 485.84 c 1
 -19.043 615.234 l 1
-62.9883 456.055 m 1
 -74.2188 463.867 -85.4492 471.191 -97.168 477.051 c 0
 -108.398 482.91 -121.582 487.793 -137.207 491.211 c 0
 -148.438 493.652 -158.691 495.605 -167.48 497.07 c 0
 -176.27 498.535 -187.5 499.023 -201.172 499.023 c 0
 -209.473 499.023 -218.262 500 -226.562 501.465 c 0
 -234.863 502.93 -238.281 507.812 -236.816 515.137 c 0
 -233.887 526.855 -224.609 535.156 -209.961 539.062 c 0
 -195.312 542.969 -181.641 544.922 -168.945 544.922 c 0
 -154.297 544.922 -140.625 541.992 -128.418 535.645 c 0
 -116.211 529.297 -104.98 521.484 -95.7031 512.695 c 0
 -85.9375 503.418 -78.125 493.652 -72.2656 483.398 c 0
 -66.8945 473.145 -63.4766 463.867 -62.9883 456.055 c 1
EndSplineSet
EndChar
StartChar: ellipsis
Encoding: 133 8230 101
Width: 510
Flags: W
HStem: -8 21<76.7498 91.8026 246.75 261.803 416.75 431.803>
Ref: 46 46 N 1 0 0 1 340 0
Ref: 46 46 N 1 0 0 1 170 0
Ref: 46 46 N 1 0 0 1 0 0
Back
460.938 29.7852 m 0
 457.031 8.78906 441.895 -3.90625 415.039 -6.83594 c 1
 391.602 -6.83594 380.859 5.37109 382.812 29.7852 c 1
 389.16 56.6406 404.785 69.8242 431.152 69.8242 c 0
 441.895 69.8242 450.195 65.918 456.055 58.1055 c 0
 461.426 50.7812 462.891 41.5039 460.938 29.7852 c 0
308.105 29.7852 m 0
 304.199 8.78906 288.574 -3.90625 262.207 -6.83594 c 1
 238.77 -6.83594 228.027 5.37109 229.98 29.7852 c 1
 235.84 56.6406 251.953 69.8242 277.832 69.8242 c 0
 288.574 69.8242 296.875 65.918 303.223 58.1055 c 0
 308.105 50.7812 310.059 41.5039 308.105 29.7852 c 0
154.785 29.7852 m 0
 150.391 5.37109 134.766 -6.83594 108.887 -6.83594 c 0
 83.0078 -6.83594 72.2656 5.37109 77.1484 29.7852 c 0
 83.0078 56.6406 99.1211 69.8242 125 69.8242 c 0
 150.879 69.8242 161.133 56.6406 154.785 29.7852 c 0
EndSplineSet
EndChar
StartChar: uni0E48.low_left
Encoding: 134 63237 102
Width: 0
Flags: W
DStem: -86 597 -36 597 -96 537 -53 537
Fore
-36 597 m 1
 -53 537 l 1
 -81 454 l 1
 -84 448 -89 445 -94 445 c 0
 -101 445 -104 448 -103 454 c 1
 -96 537 l 1
 -86 597 l 1
 -36 597 l 1
EndSplineSet
Back
-36.1328 597.168 m 1
 -53.2227 537.109 l 1
 -81.0547 454.102 l 1
 -84.4727 448.242 -88.8672 444.824 -94.2383 444.824 c 0
 -101.562 444.824 -104.492 448.242 -103.027 454.102 c 1
 -96.1914 537.109 l 1
 -85.9375 597.168 l 1
 -36.1328 597.168 l 1
EndSplineSet
EndChar
StartChar: uni0E49.low_left
Encoding: 135 63238 103
Width: 0
Flags: W
HStem: 445 23<-208 -188.904> 496 19<-209 -202> 583 20<-189 -181>
Fore
-17 603 m 1
 -28 552 -54 512 -95 484 c 0
 -130 460 -165 445 -208 445 c 2
 -262 445 l 1
 -259 463 l 1
 -236 465 -216 476 -198 497 c 1
 -206 496 l 2
 -234 496 -244 514 -236 550 c 0
 -231 577 -208 603 -183 603 c 0
 -159 603 -145 578 -152 551 c 0
 -160 512 -178 485 -206 468 c 1
 -167 468 -136 481 -112 508 c 0
 -89 532 -73 563 -65 603 c 1
 -17 603 l 1
-172 550 m 0
 -168 569 -172 583 -187 583 c 0
 -202 583 -212 572 -217 550 c 0
 -222 527 -217 515 -202 515 c 0
 -187 515 -177 527 -172 550 c 0
EndSplineSet
Back
-17.0898 603.027 m 1
 -28.3203 551.758 -54.1992 512.207 -95.2148 483.887 c 0
 -112.305 472.168 -130.371 462.402 -148.438 455.566 c 0
 -166.992 448.73 -186.523 444.824 -208.008 444.824 c 2
 -262.207 444.824 l 1
 -258.789 462.891 l 1
 -236.328 464.844 -215.82 476.562 -198.242 497.07 c 1
 -206.055 496.094 l 2
 -233.887 496.094 -244.141 514.16 -235.84 549.805 c 0
 -233.398 563.477 -227.051 575.684 -216.797 586.426 c 0
 -207.031 597.656 -195.801 603.027 -183.105 603.027 c 0
 -170.898 603.027 -162.109 597.656 -155.762 586.914 c 0
 -149.902 576.172 -148.438 564.453 -151.855 550.781 c 0
 -160.156 512.207 -178.223 484.863 -206.055 467.773 c 1
 -167.48 467.773 -136.23 481.445 -111.816 507.812 c 0
 -100.586 520.02 -90.8203 533.691 -83.0078 549.316 c 0
 -75.1953 564.941 -68.8477 583.008 -64.9414 603.027 c 1
 -17.0898 603.027 l 1
-171.875 549.805 m 0
 -169.922 559.57 -170.41 567.383 -172.363 573.73 c 0
 -174.805 579.59 -179.688 583.008 -187.012 583.008 c 0
 -202.148 583.008 -212.402 571.777 -216.797 549.805 c 0
 -222.168 526.855 -217.285 515.137 -202.148 515.137 c 0
 -187.5 515.137 -177.246 526.855 -171.875 549.805 c 0
EndSplineSet
EndChar
StartChar: uni0E4A.low_left
Encoding: 136 63239 104
Width: 0
Flags: W
HStem: 445 17<-266 -259> 532 16<-246 -235> 557 22<-218 -207 -141 -130>
Fore
-17 582 m 1
 -37 489 -91 443 -178 443 c 1
 -174 463 l 1
 -150 468 -124 494 -119 519 c 0
 -114 544 -120 557 -139 557 c 0
 -156 557 -168 543 -174 514 c 1
 -193 514 l 1
 -187 543 -194 557 -214 557 c 0
 -221 557 -228 553 -235 548 c 1
 -212 548 -204 526 -211 497 c 0
 -219 462 -237 445 -264 445 c 0
 -287 445 -302 472 -295 497 c 0
 -292 512 -286 526 -277 539 c 0
 -262 559 -242 579 -209 579 c 0
 -192 579 -181 570 -176 551 c 1
 -168 567 -151 579 -136 579 c 0
 -99 579 -85 559 -93 520 c 0
 -99 495 -111 477 -130 464 c 1
 -97 476 -76 503 -67 545 c 1
 -64 562 l 1
 -61 582 l 1
 -17 582 l 1
-229 497 m 0
 -225 518 -230 532 -246 532 c 0
 -261 532 -273 514 -276 497 c 0
 -281 477 -276 462 -261 462 c 0
 -245 462 -234 474 -229 497 c 0
EndSplineSet
Back
-17.0898 582.031 m 1
 -37.1094 489.258 -90.8203 442.871 -178.223 442.871 c 1
 -173.828 462.891 l 1
 -162.109 465.82 -150.391 472.656 -139.648 483.398 c 0
 -128.418 494.629 -121.582 506.348 -119.141 519.043 c 0
 -113.77 544.434 -120.117 557.129 -139.16 557.129 c 0
 -156.25 557.129 -167.969 542.48 -173.828 514.16 c 1
 -192.871 514.16 l 1
 -187.012 542.48 -193.848 557.129 -213.867 557.129 c 0
 -217.285 557.129 -220.703 556.152 -224.609 554.688 c 0
 -228.027 552.734 -231.445 550.781 -234.863 547.852 c 1
 -223.633 547.852 -215.82 542.969 -211.914 533.691 c 0
 -208.008 523.926 -207.52 511.719 -210.938 497.07 c 0
 -219.238 462.402 -236.816 444.824 -264.16 444.824 c 0
 -275.391 444.824 -284.18 450.684 -290.527 461.426 c 0
 -296.875 472.656 -298.34 484.375 -294.922 497.07 c 0
 -292.48 512.207 -286.133 526.367 -276.855 539.062 c 0
 -269.531 548.828 -260.742 558.105 -250 566.406 c 0
 -239.258 574.707 -225.586 579.102 -208.984 579.102 c 0
 -191.895 579.102 -180.664 569.824 -175.781 550.781 c 1
 -171.875 559.082 -166.016 565.43 -158.691 570.801 c 0
 -150.879 576.172 -143.555 579.102 -136.23 579.102 c 0
 -99.1211 579.102 -84.9609 559.57 -92.7734 520.02 c 0
 -99.1211 495.117 -111.328 476.562 -129.883 463.867 c 1
 -97.168 476.074 -76.1719 502.93 -66.8945 544.922 c 1
 -63.9648 562.012 l 1
 -61.0352 582.031 l 1
 -17.0898 582.031 l 1
-229.004 497.07 m 0
 -227.051 507.812 -227.539 516.113 -229.98 522.461 c 0
 -232.91 528.809 -237.793 532.227 -246.094 532.227 c 0
 -253.418 532.227 -259.766 528.32 -265.625 520.996 c 0
 -270.996 513.672 -274.902 505.859 -275.879 497.07 c 0
 -278.809 486.816 -278.809 478.516 -275.879 472.168 c 0
 -273.438 465.332 -268.555 461.914 -261.23 461.914 c 0
 -245.117 461.914 -234.375 473.633 -229.004 497.07 c 0
EndSplineSet
EndChar
StartChar: uni0E4B.low_left
Encoding: 137 63240 105
Width: 0
Flags: W
HStem: 508 32<-208 -154 -97 -45>
DStem: -154 508 -105 508 -164 445 -121 445 -138 603 -81 603 -148 540 -97 540
Fore
-138 603 m 1
 -81 603 l 1
 -97 540 l 1
 -38 540 l 1
 -45 508 l 1
 -105 508 l 1
 -121 445 l 1
 -164 445 l 1
 -154 508 l 1
 -214 508 l 1
 -207 540 l 1
 -148 540 l 1
 -138 603 l 1
EndSplineSet
Back
-138.184 603.027 m 1
 -147.949 540.039 l 1
 -207.031 540.039 l 1
 -213.867 507.812 l 1
 -153.809 507.812 l 1
 -164.062 444.824 l 1
 -121.094 444.824 l 1
 -104.98 507.812 l 1
 -44.9219 507.812 l 1
 -38.0859 540.039 l 1
 -97.168 540.039 l 1
 -81.0547 603.027 l 1
 -138.184 603.027 l 1
EndSplineSet
EndChar
StartChar: uni0E4C.low_left
Encoding: 138 63241 106
Width: 0
Flags: W
HStem: 445 23<-131 -122>
Fore
-90 507 m 1
 -90 507 -87 520 -90 529 c 0
 -93 538 -99 543 -108 543 c 0
 -121 543 -134 531 -139 507 c 0
 -145 481 -140 468 -124 468 c 0
 -119 468 -108 472 -101 479 c 0
 -94 487 -93 499 -90 507 c 1
-90 564 m 1
 -68 558 -60 539 -67 506 c 0
 -74 474 -101 445 -130 445 c 0
 -165 445 -186 472 -179 507 c 0
 -168 554 -130 582 -61 601 c 0
 -24 612 -7 622 -8 650 c 1
 37 660 l 1
 37 657 36 652 35 645 c 0
 31 624 16 608 -24 595 c 0
 -47 587 -77 575 -90 564 c 1
EndSplineSet
Back
-89.8438 506.836 m 1
 -89.8438 506.836 -89.8438 509.277 -88.8672 514.648 c 0
 -88.3789 519.531 -88.8672 524.414 -89.8438 528.809 c 0
 -92.7734 538.574 -98.6328 542.969 -107.91 542.969 c 0
 -114.746 542.969 -120.605 540.039 -126.465 534.18 c 0
 -132.324 527.832 -136.23 519.043 -139.16 506.836 c 0
 -145.02 480.957 -140.137 467.773 -124.023 467.773 c 0
 -121.094 467.773 -117.676 469.238 -112.793 471.191 c 0
 -108.398 473.145 -104.492 475.586 -101.074 479.004 c 0
 -97.6562 482.91 -95.2148 487.793 -94.2383 493.164 c 0
 -92.7734 498.535 -91.3086 502.93 -89.8438 506.836 c 1
-89.8438 563.965 m 1
 -67.8711 558.105 -60.5469 538.574 -66.8945 505.859 c 0
 -70.3125 490.234 -78.125 476.074 -89.8438 463.379 c 0
 -102.051 451.172 -115.234 444.824 -129.883 444.824 c 0
 -147.461 444.824 -160.645 451.172 -169.922 462.891 c 0
 -179.199 475.098 -182.129 489.746 -179.199 506.836 c 0
 -173.828 530.273 -161.133 549.316 -142.09 564.453 c 0
 -122.559 579.59 -95.7031 591.797 -61.0352 601.074 c 0
 -42.4805 606.445 -28.8086 612.305 -20.0195 619.141 c 0
 -11.2305 625.488 -7.32422 636.23 -7.8125 649.902 c 1
 37.1094 660.156 l 1
 37.1094 656.738 36.1328 651.855 35.1562 645.02 c 0
 33.2031 634.277 27.832 625 19.043 617.188 c 0
 10.2539 608.887 -3.90625 601.562 -23.9258 595.215 c 0
 -35.1562 590.82 -47.3633 585.938 -60.5469 580.566 c 0
 -73.7305 574.707 -83.4961 569.336 -89.8438 563.965 c 1
EndSplineSet
EndChar
StartChar: uni0E48.low
Encoding: 139 63242 107
Width: 0
Flags: W
DStem: -6 597 44 597 -16 537 27 537
Fore
44 597 m 1
 27 537 l 1
 -1 454 l 1
 -4 448 -9 445 -14 445 c 0
 -21 445 -24 448 -23 454 c 1
 -16 537 l 1
 -6 597 l 1
 44 597 l 1
EndSplineSet
Back
43.9453 597.168 m 1
 26.8555 537.109 l 1
 -0.976562 454.102 l 1
 -4.39453 448.242 -8.78906 444.824 -14.1602 444.824 c 0
 -21.4844 444.824 -24.4141 448.242 -22.9492 454.102 c 1
 -16.1133 537.109 l 1
 -5.85938 597.168 l 1
 43.9453 597.168 l 1
EndSplineSet
EndChar
StartChar: uni0E49.low
Encoding: 140 63243 108
Width: 0
Flags: W
HStem: 445 23<-100 -80.9041> 496 19<-101 -94> 583 20<-81 -73>
Fore
91 603 m 1
 80 552 54 512 13 484 c 0
 -22 460 -57 445 -100 445 c 2
 -154 445 l 1
 -151 463 l 1
 -128 465 -108 476 -90 497 c 1
 -98 496 l 2
 -126 496 -136 514 -128 550 c 0
 -123 577 -100 603 -75 603 c 0
 -51 603 -37 578 -44 551 c 0
 -52 512 -70 485 -98 468 c 1
 -59 468 -28 481 -4 508 c 0
 19 532 35 563 43 603 c 1
 91 603 l 1
-64 550 m 0
 -60 569 -64 583 -79 583 c 0
 -94 583 -104 572 -109 550 c 0
 -114 527 -109 515 -94 515 c 0
 -79 515 -69 527 -64 550 c 0
EndSplineSet
Back
90.8203 603.027 m 1
 79.5898 551.758 53.7109 512.207 13.1836 483.887 c 0
 -4.39453 472.168 -21.9727 462.402 -40.5273 455.566 c 0
 -58.5938 448.73 -78.6133 444.824 -100.098 444.824 c 2
 -153.809 444.824 l 1
 -150.879 462.891 l 1
 -128.418 464.844 -107.91 476.562 -89.8438 497.07 c 1
 -98.1445 496.094 l 2
 -125.977 496.094 -136.23 514.16 -127.93 549.805 c 0
 -125.488 563.477 -119.141 575.684 -108.887 586.426 c 0
 -99.1211 597.656 -87.8906 603.027 -75.1953 603.027 c 0
 -62.9883 603.027 -54.1992 597.656 -47.8516 586.914 c 0
 -41.9922 576.172 -40.5273 564.453 -43.9453 550.781 c 0
 -51.7578 512.207 -69.8242 484.863 -98.1445 467.773 c 1
 -59.5703 467.773 -27.832 481.445 -3.90625 507.812 c 0
 7.32422 520.02 17.0898 533.691 24.9023 549.316 c 0
 33.2031 564.941 39.0625 583.008 42.9688 603.027 c 1
 90.8203 603.027 l 1
-63.9648 549.805 m 0
 -62.0117 559.57 -62.0117 567.383 -64.4531 573.73 c 0
 -66.8945 579.59 -71.7773 583.008 -79.1016 583.008 c 0
 -94.2383 583.008 -104.492 571.777 -108.887 549.805 c 0
 -114.258 526.855 -109.375 515.137 -94.2383 515.137 c 0
 -79.1016 515.137 -69.3359 526.855 -63.9648 549.805 c 0
EndSplineSet
EndChar
StartChar: uni0E4A.low
Encoding: 141 63244 109
Width: 0
Flags: W
HStem: 445 17<-154 -147> 532 16<-134 -123> 557 23<-106 -95 -29 -18>
Fore
95 582 m 1
 75 489 21 443 -66 443 c 1
 -62 463 l 1
 -38 468 -12 494 -7 519 c 0
 -2 544 -8 557 -27 557 c 0
 -44 557 -56 543 -62 514 c 1
 -81 514 l 1
 -75 543 -82 557 -102 557 c 0
 -109 557 -116 553 -123 548 c 1
 -100 548 -92 526 -99 497 c 0
 -107 462 -125 445 -152 445 c 0
 -175 445 -190 472 -183 497 c 0
 -180 512 -176 526 -165 539 c 1
 -150 562 -130 580 -97 580 c 0
 -80 580 -69 570 -64 551 c 1
 -56 567 -43 579 -24 579 c 0
 13 579 27 559 19 520 c 0
 13 495 1 477 -18 464 c 1
 15 476 36 503 45 545 c 1
 48 562 l 1
 51 582 l 1
 95 582 l 1
-117 497 m 0
 -113 518 -118 532 -134 532 c 0
 -149 532 -161 514 -164 497 c 0
 -169 477 -164 462 -149 462 c 0
 -133 462 -122 474 -117 497 c 0
EndSplineSet
Back
95.2148 582.031 m 1
 75.1953 489.258 21.4844 442.871 -65.918 442.871 c 1
 -62.0117 462.891 l 1
 -49.8047 465.82 -38.5742 472.656 -27.3438 483.398 c 0
 -16.6016 494.629 -9.76562 506.348 -6.83594 519.043 c 0
 -1.46484 544.434 -8.30078 557.129 -26.8555 557.129 c 0
 -44.4336 557.129 -56.1523 542.48 -62.0117 514.16 c 1
 -81.0547 514.16 l 1
 -75.1953 542.48 -82.0312 557.129 -102.051 557.129 c 0
 -105.469 557.129 -108.887 556.152 -112.305 554.688 c 0
 -116.211 552.734 -119.629 550.781 -123.047 547.852 c 1
 -111.816 547.852 -104.004 542.969 -100.098 533.691 c 0
 -96.1914 523.926 -95.7031 511.719 -99.1211 497.07 c 0
 -106.934 462.402 -124.512 444.824 -151.855 444.824 c 0
 -163.574 444.824 -172.363 450.684 -178.711 461.426 c 0
 -185.059 472.656 -186.523 484.375 -183.105 497.07 c 0
 -181.641 504.395 -179.688 511.719 -176.758 518.555 c 0
 -174.316 525.391 -170.41 532.227 -165.039 539.062 c 0
 -157.715 550.293 -148.438 560.059 -138.184 567.871 c 0
 -127.441 576.172 -113.77 580.078 -97.168 580.078 c 0
 -80.5664 580.078 -69.3359 570.312 -63.9648 550.781 c 1
 -60.0586 559.082 -54.6875 565.43 -47.8516 570.801 c 0
 -41.5039 576.172 -33.2031 579.102 -23.9258 579.102 c 0
 12.6953 579.102 26.8555 559.57 19.043 520.02 c 0
 13.1836 495.117 0.488281 476.562 -18.0664 463.867 c 1
 14.6484 476.074 35.6445 502.93 44.9219 544.922 c 1
 47.8516 562.012 l 1
 50.7812 582.031 l 1
 95.2148 582.031 l 1
-117.188 497.07 m 0
 -115.234 507.812 -115.234 516.113 -118.164 522.461 c 0
 -120.605 528.809 -125.977 532.227 -133.789 532.227 c 0
 -141.113 532.227 -147.949 528.32 -153.32 520.996 c 0
 -159.18 513.672 -162.598 505.859 -164.062 497.07 c 0
 -166.504 486.816 -166.504 478.516 -164.062 472.168 c 0
 -161.133 465.332 -156.25 461.914 -148.926 461.914 c 0
 -132.812 461.914 -122.559 473.633 -117.188 497.07 c 0
EndSplineSet
EndChar
StartChar: uni0E4B.low
Encoding: 142 63245 110
Width: 0
Flags: W
HStem: 548 32<-98 -44 13 65>
DStem: -44 548 5 548 -54 485 -11 485 -27 643 30 643 -38 580 13 580
Fore
-27 643 m 1
 30 643 l 1
 13 580 l 1
 72 580 l 1
 65 548 l 1
 5 548 l 1
 -11 485 l 1
 -54 485 l 1
 -44 548 l 1
 -104 548 l 1
 -97 580 l 1
 -38 580 l 1
 -27 643 l 1
EndSplineSet
Back
-26.8555 643.066 m 1
 -38.0859 580.078 l 1
 -97.168 580.078 l 1
 -104.004 547.852 l 1
 -43.9453 547.852 l 1
 -54.1992 484.863 l 1
 -11.2305 484.863 l 1
 4.88281 547.852 l 1
 64.9414 547.852 l 1
 71.7773 580.078 l 1
 13.1836 580.078 l 1
 29.7852 643.066 l 1
 -26.8555 643.066 l 1
EndSplineSet
EndChar
StartChar: uni0E4C.low
Encoding: 143 63246 111
Width: 0
Flags: W
HStem: 445 26<-107 -97>
Fore
-62 513 m 1
 -62 513 -59 528 -62 537 c 0
 -66 548 -72 553 -81 553 c 0
 -96 553 -110 540 -117 513 c 0
 -123 485 -117 471 -99 471 c 0
 -92 471 -82 475 -74 483 c 0
 -67 491 -65 505 -62 513 c 1
-62 576 m 1
 -37 570 -29 549 -36 512 c 0
 -44 477 -73 445 -106 445 c 0
 -145 445 -168 474 -160 513 c 0
 -149 564 -105 599 -30 618 c 0
 13 629 30 640 29 671 c 1
 79 682 l 1
 79 678 78 673 77 666 c 0
 72 643 56 625 11 610 c 0
 -16 602 -47 588 -62 576 c 1
EndSplineSet
Back
-62.0117 513.184 m 1
 -62.0117 513.184 -61.5234 515.625 -61.0352 521.484 c 0
 -60.5469 527.344 -60.5469 532.227 -62.0117 537.109 c 0
 -65.918 547.852 -72.2656 553.223 -81.0547 553.223 c 0
 -88.3789 553.223 -95.2148 549.805 -102.051 542.969 c 0
 -108.887 536.133 -113.77 526.367 -117.188 513.184 c 0
 -123.047 484.863 -117.188 471.191 -99.1211 471.191 c 0
 -95.7031 471.191 -91.7969 472.168 -86.9141 474.121 c 0
 -82.5195 476.074 -78.125 479.004 -74.2188 482.91 c 0
 -70.8008 486.816 -68.3594 492.188 -66.4062 498.047 c 0
 -64.9414 503.906 -63.4766 508.789 -62.0117 513.184 c 1
-62.0117 576.172 m 1
 -37.1094 569.824 -28.8086 548.828 -36.1328 512.207 c 0
 -40.0391 494.629 -48.3398 479.004 -61.5234 465.332 c 0
 -74.707 451.66 -89.3555 444.824 -105.957 444.824 c 0
 -125.488 444.824 -140.137 451.66 -150.391 464.355 c 0
 -160.645 477.539 -164.062 493.652 -160.156 513.184 c 0
 -148.438 564.453 -105.469 599.121 -29.7852 618.164 c 0
 -8.78906 623.535 6.83594 629.883 16.1133 637.207 c 0
 25.3906 644.531 29.7852 655.762 28.8086 670.898 c 1
 79.1016 682.129 l 1
 79.1016 678.223 78.125 672.852 77.1484 666.016 c 0
 74.2188 654.785 68.3594 644.531 59.082 634.766 c 0
 49.8047 625.488 33.6914 617.188 11.2305 609.863 c 0
 -2.44141 605.957 -16.1133 601.074 -29.7852 594.727 c 0
 -43.9453 588.379 -54.6875 582.031 -62.0117 576.172 c 1
EndSplineSet
EndChar
